ISO-10303-21;
HEADER;
FILE_DESCRIPTION (( 'STEP AP203' ),
    '1' );
FILE_NAME ('16 MA Nut_Default_sldprt.STEP',
    '2026-08-05T08:05:30',
    ( '' ),
    ( '' ),
    'SwSTEP 2.0',
    'SolidWorks 2026',
    '' );
FILE_SCHEMA (( 'CONFIG_CONTROL_DESIGN' ));
ENDSEC;

DATA;
#1 = CARTESIAN_POINT ( 'NONE',  ( 0.8660254037844401509, 5.937171043518960190, 11.00000000000000000 ) ) ;
#2 = VERTEX_POINT ( 'NONE', #483 ) ;
#3 = DIRECTION ( 'NONE',  ( 0.000000000000000000, 0.000000000000000000, -1.000000000000000000 ) ) ;
#4 = DIRECTION ( 'NONE',  ( -1.000000000000000000, 0.000000000000000000, 0.000000000000000000 ) ) ;
#5 = CALENDAR_DATE ( 2026, 5, 8 ) ;
#6 = DIRECTION ( 'NONE',  ( 0.000000000000000000, 0.5000000000000129896, -0.8660254037844311581 ) ) ;
#7 = VERTEX_POINT ( 'NONE', #90 ) ;
#8 = AXIS2_PLACEMENT_3D ( 'NONE', #433, #130, #116 ) ;
#9 = DIRECTION ( 'NONE',  ( 0.000000000000000000, -0.5246155135895504973, -0.8513392760240608981 ) ) ;
#10 = CARTESIAN_POINT ( 'NONE',  ( 0.000000000000000000, 0.000000000000000000, 0.000000000000000000 ) ) ;
#11 = AXIS2_PLACEMENT_3D ( 'NONE', #316, #465, #562 ) ;
#12 = AXIS2_PLACEMENT_3D ( 'NONE', #594, #500, #55 ) ;
#13 = ORIENTED_EDGE ( 'NONE', *, *, #182, .F. ) ;
#14 = CARTESIAN_POINT ( 'NONE',  ( 5.500000000000000000, 0.000000000000000000, 0.000000000000000000 ) ) ;
#15 = EDGE_LOOP ( 'NONE', ( #180, #34, #162, #986 ) ) ;
#16 = FACE_OUTER_BOUND ( 'NONE', #377, .T. ) ;
#17 = CARTESIAN_POINT ( 'NONE',  ( 5.500000000000000000, 5.937171043518960190, 11.00000000000000000 ) ) ;
#18 = APPROVAL_PERSON_ORGANIZATION ( #171, #677, #722 ) ;
#19 = DATE_AND_TIME ( #5, #502 ) ;
#20 = CARTESIAN_POINT ( 'NONE',  ( 0.5989690928917318358, -4.916014278267094362, 10.99685370921127969 ) ) ;
#21 = ORIENTED_EDGE ( 'NONE', *, *, #656, .F. ) ;
#22 = EDGE_CURVE ( 'NONE', #605, #454, #820, .T. ) ;
#23 = EDGE_CURVE ( 'NONE', #140, #1003, #200, .T. ) ;
#24 = CARTESIAN_POINT ( 'NONE',  ( 0.8120000000000001661, 0.000000000000000000, 7.187999999999999723 ) ) ;
#25 = DIRECTION ( 'NONE',  ( -0.7071067811865480168, 8.659560562354926695E-17, -0.7071067811865470176 ) ) ;
#26 = VECTOR ( 'NONE', #453, 1000.000000000000000 ) ;
#27 = CARTESIAN_POINT ( 'NONE',  ( 0.000000000000000000, 9.797174393178825657E-16, -8.000000000000000000 ) ) ;
#28 = ORIENTED_EDGE ( 'NONE', *, *, #665, .T. ) ;
#29 = CARTESIAN_POINT ( 'NONE',  ( 0.09988592861866464612, -2.012157009819758091, -11.00164694654273134 ) ) ;
#30 = VECTOR ( 'NONE', #275, 1000.000000000000000 ) ;
#31 = CARTESIAN_POINT ( 'NONE',  ( 0.3917715053344936194, 3.956626411846741131, -10.99690727716877525 ) ) ;
#32 = CARTESIAN_POINT ( 'NONE',  ( 5.187999999999999723, 0.000000000000000000, -7.187999999999999723 ) ) ;
#33 = DIRECTION ( 'NONE',  ( 0.000000000000000000, 0.000000000000000000, -1.000000000000000000 ) ) ;
#34 = ORIENTED_EDGE ( 'NONE', *, *, #257, .F. ) ;
#35 = DIRECTION ( 'NONE',  ( 0.000000000000000000, 0.000000000000000000, -1.000000000000000000 ) ) ;
#36 = DIRECTION ( 'NONE',  ( 0.000000000000000000, 0.000000000000000000, -1.000000000000000000 ) ) ;
#37 = LINE ( 'NONE', #349, #428 ) ;
#38 = CARTESIAN_POINT ( 'NONE',  ( 0.5979991576964984734, 11.97956340082675020, -1.244678227297867368 ) ) ;
#39 = LINE ( 'NONE', #423, #459 ) ;
#40 = VERTEX_POINT ( 'NONE', #774 ) ;
#41 = CARTESIAN_POINT ( 'NONE',  ( 0.3941113389720675708, -3.968889866738018135, -10.99672370985080683 ) ) ;
#42 = DESIGN_CONTEXT ( 'detailed design', #1012, 'design' ) ;
#43 = DIRECTION ( 'NONE',  ( 1.000000000000000000, 0.000000000000000000, 0.000000000000000000 ) ) ;
#44 = CYLINDRICAL_SURFACE ( 'NONE', #280, 12.50000000000000000 ) ;
#45 = EDGE_CURVE ( 'NONE', #599, #499, #847, .T. ) ;
#46 = ORIENTED_EDGE ( 'NONE', *, *, #334, .T. ) ;
#47 = CARTESIAN_POINT ( 'NONE',  ( 0.6009024880511392164, -4.924841371874670415, -10.99650116326153970 ) ) ;
#48 = EDGE_CURVE ( 'NONE', #615, #7, #704, .T. ) ;
#49 = CIRCLE ( 'NONE', #160, 12.50000000000000000 ) ;
#50 = CARTESIAN_POINT ( 'NONE',  ( 0.3045058289933729734, 11.26550700080558087, -2.487569501582168385 ) ) ;
#51 = CARTESIAN_POINT ( 'NONE',  ( 0.000000000000000000, 0.000000000000000000, 0.000000000000000000 ) ) ;
#52 = VECTOR ( 'NONE', #242, 1000.000000000000000 ) ;
#53 = ORIENTED_EDGE ( 'NONE', *, *, #374, .T. ) ;
#54 = AXIS2_PLACEMENT_3D ( 'NONE', #128, #897, #445 ) ;
#55 = DIRECTION ( 'NONE',  ( 0.000000000000000000, 0.9995891970710634178, -0.02866072397596944321 ) ) ;
#56 = ORIENTED_EDGE ( 'NONE', *, *, #617, .F. ) ;
#57 = VERTEX_POINT ( 'NONE', #320 ) ;
#58 = EDGE_LOOP ( 'NONE', ( #411, #924, #690, #955, #788 ) ) ;
#59 = CARTESIAN_POINT ( 'NONE',  ( 6.000000000000000000, 0.000000000000000000, 0.000000000000000000 ) ) ;
#60 = ADVANCED_FACE ( 'NONE', ( #81 ), #782, .F. ) ;
#61 = ORIENTED_EDGE ( 'NONE', *, *, #132, .T. ) ;
#62 = CARTESIAN_POINT ( 'NONE',  ( 0.7200240148079430913, 6.823900061889069057, 10.18065838703577874 ) ) ;
#63 = ORIENTED_EDGE ( 'NONE', *, *, #619, .T. ) ;
#64 = VERTEX_POINT ( 'NONE', #1 ) ;
#65 = AXIS2_PLACEMENT_3D ( 'NONE', #155, #627, #238 ) ;
#66 = VECTOR ( 'NONE', #753, 1000.000000000000000 ) ;
#67 = CARTESIAN_POINT ( 'NONE',  ( 0.000000000000000000, 0.000000000000000000, 0.000000000000000000 ) ) ;
#68 =( LENGTH_UNIT ( ) NAMED_UNIT ( * ) SI_UNIT ( .MILLI., .METRE. ) );
#69 = VERTEX_POINT ( 'NONE', #857 ) ;
#70 = FACE_OUTER_BOUND ( 'NONE', #1002, .T. ) ;
#71 = ORIENTED_EDGE ( 'NONE', *, *, #521, .F. ) ;
#72 = DIRECTION ( 'NONE',  ( 1.000000000000000000, 0.000000000000000000, 0.000000000000000000 ) ) ;
#73 = EDGE_CURVE ( 'NONE', #813, #499, #701, .T. ) ;
#74 = CARTESIAN_POINT ( 'NONE',  ( 5.500000000000000000, 0.000000000000000000, 0.000000000000000000 ) ) ;
#75 = CARTESIAN_POINT ( 'NONE',  ( 5.500000000000000000, 6.557693919869380217, -10.64174095030075939 ) ) ;
#76 = ORIENTED_EDGE ( 'NONE', *, *, #260, .F. ) ;
#77 = ADVANCED_FACE ( 'NONE', ( #624 ), #94, .T. ) ;
#78 = CARTESIAN_POINT ( 'NONE',  ( 0.000000000000000000, -9.526279441628838995, 5.500000000000199840 ) ) ;
#79 = ADVANCED_FACE ( 'NONE', ( #547 ), #556, .F. ) ;
#80 = DIRECTION ( 'NONE',  ( 1.000000000000000000, 0.000000000000000000, 0.000000000000000000 ) ) ;
#81 = FACE_OUTER_BOUND ( 'NONE', #682, .T. ) ;
#82 = DIRECTION ( 'NONE',  ( 1.000000000000000000, 0.000000000000000000, 0.000000000000000000 ) ) ;
#83 = PERSON_AND_ORGANIZATION ( #401, #915 ) ;
#84 = DIRECTION ( 'NONE',  ( 1.000000000000000000, 0.000000000000000000, 0.000000000000000000 ) ) ;
#85 = DIRECTION ( 'NONE',  ( 0.000000000000000000, 0.000000000000000000, -1.000000000000000000 ) ) ;
#86 = APPROVAL_ROLE ( '' ) ;
#87 = CARTESIAN_POINT ( 'NONE',  ( 0.000000000000000000, 0.000000000000000000, 0.000000000000000000 ) ) ;
#88 = FACE_OUTER_BOUND ( 'NONE', #762, .T. ) ;
#89 = CARTESIAN_POINT ( 'NONE',  ( 0.6029525229966821165, -7.057720551571756928, 9.769929885086540367 ) ) ;
#90 = CARTESIAN_POINT ( 'NONE',  ( 0.8660254037844401509, 5.937171043518960190, -11.00000000000000000 ) ) ;
#91 = CYLINDRICAL_SURFACE ( 'NONE', #145, 7.187999999999999723 ) ;
#92 = ORIENTED_EDGE ( 'NONE', *, *, #189, .F. ) ;
#93 = FACE_OUTER_BOUND ( 'NONE', #603, .T. ) ;
#94 = CONICAL_SURFACE ( 'NONE', #265, 11.00000000000000000, 1.047197551196597853 ) ;
#95 = APPROVAL_DATE_TIME ( #177, #677 ) ;
#96 = CIRCLE ( 'NONE', #366, 8.000000000000000000 ) ;
#97 = ADVANCED_FACE ( 'NONE', ( #636 ), #871, .T. ) ;
#98 = FACE_OUTER_BOUND ( 'NONE', #299, .T. ) ;
#99 = ORIENTED_EDGE ( 'NONE', *, *, #104, .T. ) ;
#100 = DIRECTION ( 'NONE',  ( 0.000000000000000000, -0.5246155135895504973, -0.8513392760240608981 ) ) ;
#101 = CARTESIAN_POINT ( 'NONE',  ( 0.02466401200252203718, 9.025502049114621173, -6.367342090785520270 ) ) ;
#102 = CC_DESIGN_APPROVAL ( #715, ( #727 ) ) ;
#103 = CARTESIAN_POINT ( 'NONE',  ( 0.000000000000000000, 0.000000000000000000, 0.000000000000000000 ) ) ;
#104 = EDGE_CURVE ( 'NONE', #353, #345, #115, .T. ) ;
#105 = DIRECTION ( 'NONE',  ( 1.000000000000000000, 0.000000000000000000, 0.000000000000000000 ) ) ;
#106 = ORIENTED_EDGE ( 'NONE', *, *, #691, .T. ) ;
#107 = CARTESIAN_POINT ( 'NONE',  ( 0.005126167932638976514, 0.5018504300557262710, 11.00029335055817192 ) ) ;
#108 = CARTESIAN_POINT ( 'NONE',  ( 0.000000000000000000, 0.000000000000000000, 8.000000000000000000 ) ) ;
#109 = ADVANCED_FACE ( 'NONE', ( #802 ), #178, .F. ) ;
#110 = DIRECTION ( 'NONE',  ( -0.7071067811865480168, 0.000000000000000000, 0.7071067811865470176 ) ) ;
#111 = ORIENTED_EDGE ( 'NONE', *, *, #956, .T. ) ;
#112 = DIRECTION ( 'NONE',  ( 0.000000000000000000, 0.000000000000000000, -1.000000000000000000 ) ) ;
#113 = PLANE ( 'NONE',  #1013 ) ;
#114 = DIRECTION ( 'NONE',  ( 1.000000000000000000, 0.000000000000000000, 0.000000000000000000 ) ) ;
#115 = CIRCLE ( 'NONE', #380, 7.999999999999998224 ) ;
#116 = DIRECTION ( 'NONE',  ( 0.000000000000000000, 0.000000000000000000, -1.000000000000000000 ) ) ;
#117 = AXIS2_PLACEMENT_3D ( 'NONE', #412, #105, #173 ) ;
#118 = CARTESIAN_POINT ( 'NONE',  ( 0.7205420547933646391, -5.406647846569124560, 10.99999999999999822 ) ) ;
#119 = CARTESIAN_POINT ( 'NONE',  ( 0.7216161608760055524, 5.410564716129643514, 10.99999999999999645 ) ) ;
#120 = ADVANCED_FACE ( 'NONE', ( #16 ), #957, .F. ) ;
#121 = CYLINDRICAL_SURFACE ( 'NONE', #554, 10.69999999999999929 ) ;
#122 = CARTESIAN_POINT ( 'NONE',  ( 0.03951005957108314620, -8.901569201361938966, 6.582826304032749931 ) ) ;
#123 = ORIENTED_EDGE ( 'NONE', *, *, #988, .F. ) ;
#124 = EDGE_CURVE ( 'NONE', #533, #135, #559, .T. ) ;
#125 = CARTESIAN_POINT ( 'NONE',  ( 3.045587945990002216E-08, -0.2537213862331432201, -11.00000000000000000 ) ) ;
#126 = CARTESIAN_POINT ( 'NONE',  ( 0.4479105762431819238, 11.63185984161770570, 1.848938300095686937 ) ) ;
#127 = ORIENTED_EDGE ( 'NONE', *, *, #941, .F. ) ;
#128 = CARTESIAN_POINT ( 'NONE',  ( 6.000000000000000000, 0.000000000000000000, 0.000000000000000000 ) ) ;
#129 = AXIS2_PLACEMENT_3D ( 'NONE', #517, #827, #276 ) ;
#130 = DIRECTION ( 'NONE',  ( 1.000000000000000000, 0.000000000000000000, 0.000000000000000000 ) ) ;
#131 = CARTESIAN_POINT ( 'NONE',  ( 6.000000000000000000, 6.350852961085899473, -11.00000000000000000 ) ) ;
#132 = EDGE_CURVE ( 'NONE', #675, #533, #184, .T. ) ;
#133 = AXIS2_PLACEMENT_3D ( 'NONE', #149, #341, #229 ) ;
#134 = ORIENTED_EDGE ( 'NONE', *, *, #909, .T. ) ;
#135 = VERTEX_POINT ( 'NONE', #249 ) ;
#136 = ORIENTED_EDGE ( 'NONE', *, *, #303, .T. ) ;
#137 = LINE ( 'NONE', #310, #26 ) ;
#138 = EDGE_LOOP ( 'NONE', ( #452, #156 ) ) ;
#139 = CARTESIAN_POINT ( 'NONE',  ( 0.8660254037844401509, -12.49486496338829866, -0.3582590496996179708 ) ) ;
#140 = VERTEX_POINT ( 'NONE', #24 ) ;
#141 = LINE ( 'NONE', #457, #475 ) ;
#142 = AXIS2_PLACEMENT_3D ( 'NONE', #621, #604, #373 ) ;
#143 = ORIENTED_EDGE ( 'NONE', *, *, #656, .T. ) ;
#144 = AXIS2_PLACEMENT_3D ( 'NONE', #224, #534, #844 ) ;
#145 = AXIS2_PLACEMENT_3D ( 'NONE', #962, #508, #491 ) ;
#146 = EDGE_CURVE ( 'NONE', #339, #666, #632, .T. ) ;
#147 = CARTESIAN_POINT ( 'NONE',  ( 0.3045058289933715301, -11.26550700080558265, 2.487569501582170162 ) ) ;
#148 = CARTESIAN_POINT ( 'NONE',  ( -8.689014860154520339E-09, -9.651705026655541531, -5.282756514164892003 ) ) ;
#149 = CARTESIAN_POINT ( 'NONE',  ( 0.8660254037844402619, 0.000000000000000000, 0.000000000000000000 ) ) ;
#150 = EDGE_CURVE ( 'NONE', #454, #605, #673, .T. ) ;
#151 = B_SPLINE_CURVE_WITH_KNOTS ( 'NONE', 3,
 ( #735, #361, #38, #669, #50, #832, #730, #653, #581, #358 ),
 .UNSPECIFIED., .F., .F.,
 ( 4, 2, 2, 2, 4 ),
 ( 0.0007486442404219528779, 1.500461849127377789, 3.000175054014333043, 4.499888258901288296, 5.999601463788242661 ),
 .UNSPECIFIED. ) ;
#152 = ORIENTED_EDGE ( 'NONE', *, *, #473, .T. ) ;
#153 = EDGE_CURVE ( 'NONE', #7, #2, #902, .T. ) ;
#154 = FACE_OUTER_BOUND ( 'NONE', #637, .T. ) ;
#155 = CARTESIAN_POINT ( 'NONE',  ( 6.000000000000000000, 0.000000000000000000, 0.000000000000000000 ) ) ;
#156 = ORIENTED_EDGE ( 'NONE', *, *, #150, .T. ) ;
#157 = AXIS2_PLACEMENT_3D ( 'NONE', #74, #694, #842 ) ;
#158 = DIRECTION ( 'NONE',  ( 1.000000000000000000, 0.000000000000000000, 0.000000000000000000 ) ) ;
#159 = COORDINATED_UNIVERSAL_TIME_OFFSET ( 8, 0, .AHEAD. ) ;
#160 = AXIS2_PLACEMENT_3D ( 'NONE', #288, #43, #271 ) ;
#161 = EDGE_LOOP ( 'NONE', ( #285, #134, #393, #208 ) ) ;
#162 = ORIENTED_EDGE ( 'NONE', *, *, #536, .T. ) ;
#163 = CONICAL_SURFACE ( 'NONE', #737, 7.187999999999999723, 0.7853981633974476129 ) ;
#164 = CARTESIAN_POINT ( 'NONE',  ( 0.7225970782022700378, 6.819208563514051136, -10.18878430058493656 ) ) ;
#165 = EDGE_CURVE ( 'NONE', #345, #353, #764, .T. ) ;
#166 = PERSON_AND_ORGANIZATION_ROLE ( 'classification_officer' ) ;
#167 = CARTESIAN_POINT ( 'NONE',  ( 0.000000000000000000, 0.000000000000000000, 0.000000000000000000 ) ) ;
#168 = VERTEX_POINT ( 'NONE', #638 ) ;
#169 = CARTESIAN_POINT ( 'NONE',  ( 6.000000000000000000, 0.000000000000000000, 0.000000000000000000 ) ) ;
#170 = CARTESIAN_POINT ( 'NONE',  ( 5.500000000000000000, -12.49486496338829866, -0.3582590496996225227 ) ) ;
#171 = PERSON_AND_ORGANIZATION ( #401, #915 ) ;
#172 = ORIENTED_EDGE ( 'NONE', *, *, #665, .F. ) ;
#173 = DIRECTION ( 'NONE',  ( 0.000000000000000000, 0.000000000000000000, -1.000000000000000000 ) ) ;
#174 = CARTESIAN_POINT ( 'NONE',  ( 6.000000000000000000, -6.350852961085899473, -11.00000000000000000 ) ) ;
#175 = CARTESIAN_POINT ( 'NONE',  ( 0.8660254037844401509, 6.557693919869380217, -10.64174095030075939 ) ) ;
#176 = APPROVAL ( #331, '未' ) ;
#177 = DATE_AND_TIME ( #877, #761 ) ;
#178 = PLANE ( 'NONE',  #312 ) ;
#179 = CARTESIAN_POINT ( 'NONE',  ( 0.02051099492422123541, -1.013318675597169261, 11.00000000000000355 ) ) ;
#180 = ORIENTED_EDGE ( 'NONE', *, *, #1020, .F. ) ;
#181 = DIRECTION ( 'NONE',  ( 0.000000000000000000, 0.5000000000000129896, 0.8660254037844311581 ) ) ;
#182 = EDGE_CURVE ( 'NONE', #808, #168, #921, .T. ) ;
#183 = CARTESIAN_POINT ( 'NONE',  ( 0.8660254037844401509, -6.557693919869380217, -10.64174095030075939 ) ) ;
#184 = CIRCLE ( 'NONE', #398, 12.50000000000000178 ) ;
#185 = CARTESIAN_POINT ( 'NONE',  ( 5.500000000000000000, -12.49486496338829866, -0.3582590496996245211 ) ) ;
#186 = ORIENTED_EDGE ( 'NONE', *, *, #124, .T. ) ;
#187 = DIRECTION ( 'NONE',  ( 1.000000000000000000, -0.000000000000000000, -0.000000000000000000 ) ) ;
#188 = CARTESIAN_POINT ( 'NONE',  ( 0.5989690928917327239, 4.916014278267077486, -10.99685370921129035 ) ) ;
#189 = EDGE_CURVE ( 'NONE', #382, #795, #963, .T. ) ;
#190 = LINE ( 'NONE', #196, #432 ) ;
#191 = EDGE_LOOP ( 'NONE', ( #172, #881 ) ) ;
#192 = DIRECTION ( 'NONE',  ( 0.000000000000000000, 0.000000000000000000, -1.000000000000000000 ) ) ;
#193 = CARTESIAN_POINT ( 'NONE',  ( 0.000000000000000000, 9.797174393178825657E-16, -8.000000000000000000 ) ) ;
#194 = DIRECTION ( 'NONE',  ( 1.000000000000000000, 0.000000000000000000, 0.000000000000000000 ) ) ;
#195 = CARTESIAN_POINT ( 'NONE',  ( 6.000000000000000000, 0.000000000000000000, 0.000000000000000000 ) ) ;
#196 = CARTESIAN_POINT ( 'NONE',  ( 5.500000000000000000, -6.557693919869380217, -10.64174095030075939 ) ) ;
#197 = ORIENTED_EDGE ( 'NONE', *, *, #549, .T. ) ;
#198 = CARTESIAN_POINT ( 'NONE',  ( 0.04052049860981191132, 1.256755928015058643, 11.00144341966460004 ) ) ;
#199 = VECTOR ( 'NONE', #978, 1000.000000000000000 ) ;
#200 = CIRCLE ( 'NONE', #11, 7.187999999999999723 ) ;
#201 = FACE_OUTER_BOUND ( 'NONE', #972, .T. ) ;
#202 = CIRCLE ( 'NONE', #298, 12.50000000000000178 ) ;
#203 = CARTESIAN_POINT ( 'NONE',  ( 0.8660254037844402619, 0.000000000000000000, 0.000000000000000000 ) ) ;
#204 = ORIENTED_EDGE ( 'NONE', *, *, #536, .F. ) ;
#205 = CARTESIAN_POINT ( 'NONE',  ( 5.187999999999999723, 0.000000000000000000, 0.000000000000000000 ) ) ;
#206 = CYLINDRICAL_SURFACE ( 'NONE', #129, 12.50000000000000000 ) ;
#207 = CARTESIAN_POINT ( 'NONE',  ( 0.1576655362705983443, -10.78133792907454236, 3.326174933273756462 ) ) ;
#208 = ORIENTED_EDGE ( 'NONE', *, *, #189, .T. ) ;
#209 = CC_DESIGN_APPROVAL ( #176, ( #750 ) ) ;
#210 = FACE_OUTER_BOUND ( 'NONE', #262, .T. ) ;
#211 = ADVANCED_FACE ( 'NONE', ( #948 ), #486, .F. ) ;
#212 = AXIS2_PLACEMENT_3D ( 'NONE', #59, #376, #680 ) ;
#213 = DIRECTION ( 'NONE',  ( 0.000000000000000000, -0.5000000000000129896, -0.8660254037844311581 ) ) ;
#214 = VERTEX_POINT ( 'NONE', #75 ) ;
#215 = AXIS2_PLACEMENT_3D ( 'NONE', #780, #82, #713 ) ;
#216 = CARTESIAN_POINT ( 'NONE',  ( 0.3902400647892045882, 7.549309216531748135, 8.918209560304795502 ) ) ;
#217 = VECTOR ( 'NONE', #641, 1000.000000000000000 ) ;
#218 = ORIENTED_EDGE ( 'NONE', *, *, #23, .T. ) ;
#219 = EDGE_LOOP ( 'NONE', ( #13, #197, #710, #143 ) ) ;
#220 = CARTESIAN_POINT ( 'NONE',  ( 0.3113475729497108824, -11.27315424665224697, -2.474492389075571452 ) ) ;
#221 = ORIENTED_EDGE ( 'NONE', *, *, #619, .F. ) ;
#222 = ORIENTED_EDGE ( 'NONE', *, *, #440, .F. ) ;
#223 = CARTESIAN_POINT ( 'NONE',  ( 0.4479105762431811466, -11.63185984161770747, -1.848938300095696263 ) ) ;
#224 = CARTESIAN_POINT ( 'NONE',  ( 0.8120000000000001661, 0.000000000000000000, 0.000000000000000000 ) ) ;
#225 = EDGE_LOOP ( 'NONE', ( #1006, #914, #903, #649 ) ) ;
#226 = ADVANCED_FACE ( 'NONE', ( #570, #93 ), #789, .F. ) ;
#227 = CARTESIAN_POINT ( 'NONE',  ( 0.7225970782022763661, 12.23335031974362863, 0.8112156994154485767 ) ) ;
#228 = CARTESIAN_POINT ( 'NONE',  ( 0.1576655362705963459, 8.271220954183124974, 7.673825066726635669 ) ) ;
#229 = DIRECTION ( 'NONE',  ( 0.000000000000000000, -0.4749736834815167508, 0.8800000000000000044 ) ) ;
#230 = EDGE_CURVE ( 'NONE', #783, #135, #413, .T. ) ;
#231 = ORIENTED_EDGE ( 'NONE', *, *, #876, .F. ) ;
#232 = AXIS2_PLACEMENT_3D ( 'NONE', #169, #565, #480 ) ;
#233 = VECTOR ( 'NONE', #575, 1000.000000000000114 ) ;
#234 = CARTESIAN_POINT ( 'NONE',  ( 0.02466401200252362272, 10.02703102976335536, 4.632643011049308868 ) ) ;
#235 = CARTESIAN_POINT ( 'NONE',  ( 0.5979991576964920341, 7.067704664790432467, 9.752267117713522282 ) ) ;
#236 = DIRECTION ( 'NONE',  ( 0.000000000000000000, 0.000000000000000000, 1.000000000000000000 ) ) ;
#237 = CARTESIAN_POINT ( 'NONE',  ( 0.3045058289933713080, -7.787051882452119322, -8.512430498418192215 ) ) ;
#238 = DIRECTION ( 'NONE',  ( 0.000000000000000000, 0.000000000000000000, -1.000000000000000000 ) ) ;
#239 = ADVANCED_FACE ( 'NONE', ( #88 ), #970, .F. ) ;
#240 = CARTESIAN_POINT ( 'NONE',  ( 5.500000000000000000, 0.000000000000000000, 0.000000000000000000 ) ) ;
#241 = PERSON_AND_ORGANIZATION_ROLE ( 'creator' ) ;
#242 = DIRECTION ( 'NONE',  ( 1.000000000000000000, 0.000000000000000000, 0.000000000000000000 ) ) ;
#243 = AXIS2_PLACEMENT_3D ( 'NONE', #131, #524, #213 ) ;
#244 = CARTESIAN_POINT ( 'NONE',  ( 6.000000000000000000, 6.350852961085899473, 11.00000000000000000 ) ) ;
#245 = CARTESIAN_POINT ( 'NONE',  ( 0.8660254037844401509, -6.557693919869380217, -10.64174095030075939 ) ) ;
#246 = DATE_TIME_ROLE ( 'classification_date' ) ;
#247 = CARTESIAN_POINT ( 'NONE',  ( 5.500000000000000000, 5.937171043518960190, -11.00000000000000000 ) ) ;
#248 = EDGE_LOOP ( 'NONE', ( #92, #364, #273, #438, #525 ) ) ;
#249 = CARTESIAN_POINT ( 'NONE',  ( 5.500000000000000000, -5.937171043518960190, -11.00000000000000000 ) ) ;
#250 = CARTESIAN_POINT ( 'NONE',  ( -8.689011208718981137E-09, 9.400853856602124026, -5.717243485835514782 ) ) ;
#251 = APPROVAL_DATE_TIME ( #395, #715 ) ;
#252 = CARTESIAN_POINT ( 'NONE',  ( 6.000000000000000000, 0.000000000000000000, 0.000000000000000000 ) ) ;
#253 = CARTESIAN_POINT ( 'NONE',  ( 0.8660254037844401509, -5.937171043518960190, 11.00000000000000000 ) ) ;
#254 = EDGE_CURVE ( 'NONE', #946, #937, #527, .T. ) ;
#255 = CARTESIAN_POINT ( 'NONE',  ( 5.500000000000000000, -12.49486496338829866, 0.3582590496996179708 ) ) ;
#256 = FACE_OUTER_BOUND ( 'NONE', #219, .T. ) ;
#257 = EDGE_CURVE ( 'NONE', #1003, #140, #884, .T. ) ;
#258 = PERSON_AND_ORGANIZATION ( #401, #915 ) ;
#259 = DIRECTION ( 'NONE',  ( 0.000000000000000000, 0.000000000000000000, -1.000000000000000000 ) ) ;
#260 = EDGE_CURVE ( 'NONE', #599, #325, #141, .T. ) ;
#261 = CONICAL_SURFACE ( 'NONE', #968, 11.00000000000000000, 1.047197551196597853 ) ;
#262 = EDGE_LOOP ( 'NONE', ( #861, #587, #391, #386 ) ) ;
#263 = CARTESIAN_POINT ( 'NONE',  ( 0.8660254037844402619, -12.49486496338829866, -0.3582590496996179708 ) ) ;
#264 = CARTESIAN_POINT ( 'NONE',  ( 0.1589736087784197061, 2.520188493420203013, -10.99999999999999822 ) ) ;
#265 = AXIS2_PLACEMENT_3D ( 'NONE', #87, #405, #1019 ) ;
#266 = CARTESIAN_POINT ( 'NONE',  ( -6.019173930509326722E-08, 0.5014410728412429519, -11.00000000000000000 ) ) ;
#267 = CARTESIAN_POINT ( 'NONE',  ( 0.000000000000000000, 9.526279441628838995, 5.500000000000199840 ) ) ;
#268 = ORIENTED_EDGE ( 'NONE', *, *, #668, .F. ) ;
#269 = CARTESIAN_POINT ( 'NONE',  ( 0.3941113389720660720, 3.968889866738029237, 10.99672370985080150 ) ) ;
#270 = CARTESIAN_POINT ( 'NONE',  ( 0.8660254037844401509, -5.937171043518960190, 11.00000000000000000 ) ) ;
#271 = DIRECTION ( 'NONE',  ( 0.000000000000000000, 0.5246155135895507193, 0.8513392760240607871 ) ) ;
#272 = CARTESIAN_POINT ( 'NONE',  ( 0.000000000000000000, 0.000000000000000000, 11.00000000000000000 ) ) ;
#273 = ORIENTED_EDGE ( 'NONE', *, *, #73, .F. ) ;
#274 = DIRECTION ( 'NONE',  ( -1.000000000000000000, 0.000000000000000000, 0.000000000000000000 ) ) ;
#275 = DIRECTION ( 'NONE',  ( 0.7071067811865480168, 8.659560562354926695E-17, 0.7071067811865470176 ) ) ;
#276 = DIRECTION ( 'NONE',  ( 0.000000000000000000, 0.000000000000000000, -1.000000000000000000 ) ) ;
#277 = CARTESIAN_POINT ( 'NONE',  ( -8.689013861626206679E-09, 9.651705026655550412, 5.282756514164882233 ) ) ;
#278 = ORIENTED_EDGE ( 'NONE', *, *, #617, .T. ) ;
#279 = DIRECTION ( 'NONE',  ( 0.000000000000000000, 0.000000000000000000, 1.000000000000000000 ) ) ;
#280 = AXIS2_PLACEMENT_3D ( 'NONE', #848, #72, #387 ) ;
#281 = AXIS2_PLACEMENT_3D ( 'NONE', #792, #778, #332 ) ;
#282 = CARTESIAN_POINT ( 'NONE',  ( 0.8660254037844401509, -12.49486496338829866, -0.3582590496996179708 ) ) ;
#283 = AXIS2_PLACEMENT_3D ( 'NONE', #434, #741, #926 ) ;
#284 = CARTESIAN_POINT ( 'NONE',  ( 0.1570327161292440210, -8.275299358229077029, 7.668528357786295047 ) ) ;
#285 = ORIENTED_EDGE ( 'NONE', *, *, #892, .T. ) ;
#286 = CC_DESIGN_PERSON_AND_ORGANIZATION_ASSIGNMENT ( #83, #478, ( #727 ) ) ;
#287 = LINE ( 'NONE', #430, #596 ) ;
#288 = CARTESIAN_POINT ( 'NONE',  ( 0.8660254037844402619, 0.000000000000000000, 0.000000000000000000 ) ) ;
#289 = CARTESIAN_POINT ( 'NONE',  ( 0.3902400647892080299, -11.49805064376301900, 2.078788782388450773 ) ) ;
#290 = ORIENTED_EDGE ( 'NONE', *, *, #23, .F. ) ;
#291 = ADVANCED_FACE ( 'NONE', ( #70 ), #541, .F. ) ;
#292 = ORIENTED_EDGE ( 'NONE', *, *, #729, .F. ) ;
#293 = ADVANCED_FACE ( 'NONE', ( #506 ), #163, .F. ) ;
#294 = CIRCLE ( 'NONE', #751, 10.69999999999999929 ) ;
#295 = CARTESIAN_POINT ( 'NONE',  ( 5.500000000000000000, 12.49486496338829689, 0.3582590496996256868 ) ) ;
#296 = ORIENTED_EDGE ( 'NONE', *, *, #374, .F. ) ;
#297 = AXIS2_PLACEMENT_3D ( 'NONE', #355, #360, #192 ) ;
#298 = AXIS2_PLACEMENT_3D ( 'NONE', #578, #739, #600 ) ;
#299 = EDGE_LOOP ( 'NONE', ( #278, #53, #551, #908 ) ) ;
#300 = CARTESIAN_POINT ( 'NONE',  ( 0.02022820412164089490, 9.022678135660868293, 6.372263048694727594 ) ) ;
#301 = B_SPLINE_CURVE_WITH_KNOTS ( 'NONE', 3,
 ( #887, #809, #107, #425, #198, #733, #346, #973, #269, #822, #119, #338 ),
 .UNSPECIFIED., .F., .F.,
 ( 4, 2, 2, 2, 2, 4 ),
 ( 20.28846719197901649, 21.04185097065176535, 21.79523474932451776, 23.30200230667001549, 24.80876986401551676, 26.31553742136101448 ),
 .UNSPECIFIED. ) ;
#302 = ORIENTED_EDGE ( 'NONE', *, *, #352, .T. ) ;
#303 = EDGE_CURVE ( 'NONE', #937, #946, #801, .T. ) ;
#304 = CARTESIAN_POINT ( 'NONE',  ( 5.500000000000000000, 12.49486496338829866, -0.3582590496996270746 ) ) ;
#305 = EDGE_CURVE ( 'NONE', #836, #479, #367, .T. ) ;
#306 = ORIENTED_EDGE ( 'NONE', *, *, #45, .F. ) ;
#307 = DIRECTION ( 'NONE',  ( 0.000000000000000000, 0.000000000000000000, -1.000000000000000000 ) ) ;
#308 = EDGE_LOOP ( 'NONE', ( #917, #552, #896, #679 ) ) ;
#309 = FACE_OUTER_BOUND ( 'NONE', #138, .T. ) ;
#310 = CARTESIAN_POINT ( 'NONE',  ( 6.000000000000000000, 8.802761192271173604E-16, 7.187999999999999723 ) ) ;
#311 = DIRECTION ( 'NONE',  ( -1.000000000000000000, 0.000000000000000000, 0.000000000000000000 ) ) ;
#312 = AXIS2_PLACEMENT_3D ( 'NONE', #490, #928, #181 ) ;
#313 = ORIENTED_EDGE ( 'NONE', *, *, #983, .F. ) ;
#314 = PRODUCT_RELATED_PRODUCT_CATEGORY ( 'detail', '', ( #944 ) ) ;
#315 = CARTESIAN_POINT ( 'NONE',  ( 0.3113475729497094391, -7.779550393736561098, 8.525591763843710424 ) ) ;
#316 = CARTESIAN_POINT ( 'NONE',  ( 0.8120000000000001661, 0.000000000000000000, 0.000000000000000000 ) ) ;
#317 = FACE_OUTER_BOUND ( 'NONE', #558, .T. ) ;
#318 = LOCAL_TIME ( 16, 5, 30.00000000000000000, #488 ) ;
#319 = MECHANICAL_CONTEXT ( 'NONE', #744, 'mechanical' ) ;
#320 = CARTESIAN_POINT ( 'NONE',  ( 5.500000000000000000, 0.000000000000000000, -10.69999999999999929 ) ) ;
#321 = DIRECTION ( 'NONE',  ( 0.000000000000000000, 0.000000000000000000, 1.000000000000000000 ) ) ;
#322 = CARTESIAN_POINT ( 'NONE',  ( 0.7225970782022679284, -6.819208563514054688, 10.18878430058493301 ) ) ;
#323 = COORDINATED_UNIVERSAL_TIME_OFFSET ( 8, 0, .AHEAD. ) ;
#324 = CIRCLE ( 'NONE', #607, 12.50000000000000178 ) ;
#325 = VERTEX_POINT ( 'NONE', #748 ) ;
#326 = ORIENTED_EDGE ( 'NONE', *, *, #597, .T. ) ;
#327 = CLOSED_SHELL ( 'NONE', ( #293, #467, #60, #996, #693, #369, #485, #77, #769, #97, #916, #482, #643, #516, #838, #723, #905, #226, #911, #648, #291, #416, #239, #109, #574, #211, #593, #79, #120 ) ) ;
#328 = CONICAL_SURFACE ( 'NONE', #904, 11.00000000000000000, 1.047197551196597853 ) ;
#329 = DIRECTION ( 'NONE',  ( 1.000000000000000000, 0.000000000000000000, 0.000000000000000000 ) ) ;
#330 = CARTESIAN_POINT ( 'NONE',  ( 0.8660254037844401509, -6.557693919869380217, 10.64174095030075939 ) ) ;
#331 = APPROVAL_STATUS ( 'not_yet_approved' ) ;
#332 = DIRECTION ( 'NONE',  ( 0.000000000000000000, 0.000000000000000000, -1.000000000000000000 ) ) ;
#333 = FACE_OUTER_BOUND ( 'NONE', #1015, .T. ) ;
#334 = EDGE_CURVE ( 'NONE', #325, #813, #932, .T. ) ;
#335 = CARTESIAN_POINT ( 'NONE',  ( 0.8660254037844402619, 0.000000000000000000, 0.000000000000000000 ) ) ;
#336 = DIRECTION ( 'NONE',  ( 1.000000000000000000, 0.000000000000000000, 0.000000000000000000 ) ) ;
#337 = B_SPLINE_CURVE_WITH_KNOTS ( 'NONE', 3,
 ( #439, #125, #515, #510, #825, #29, #662, #976, #41, #47, #967, #365 ),
 .UNSPECIFIED., .F., .F.,
 ( 4, 2, 2, 2, 2, 4 ),
 ( 20.28846719197901294, 21.04185097065176180, 21.79523474932451421, 23.30200230667001193, 24.80876986401551321, 26.31553742136101448 ),
 .UNSPECIFIED. ) ;
#338 = CARTESIAN_POINT ( 'NONE',  ( 0.8660254037844401509, 5.937171043518960190, 11.00000000000000000 ) ) ;
#339 = VERTEX_POINT ( 'NONE', #667 ) ;
#340 =( GEOMETRIC_REPRESENTATION_CONTEXT ( 3 ) GLOBAL_UNCERTAINTY_ASSIGNED_CONTEXT ( ( #496 ) ) GLOBAL_UNIT_ASSIGNED_CONTEXT ( ( #68, #959, #703 ) ) REPRESENTATION_CONTEXT ( 'NONE', 'WORKASPACE' ) );
#341 = DIRECTION ( 'NONE',  ( 1.000000000000000000, 0.000000000000000000, 0.000000000000000000 ) ) ;
#342 = DIRECTION ( 'NONE',  ( 0.000000000000000000, -0.9995891970710633068, 0.02866072397597044935 ) ) ;
#343 = LINE ( 'NONE', #441, #833 ) ;
#344 = FACE_OUTER_BOUND ( 'NONE', #685, .T. ) ;
#345 = VERTEX_POINT ( 'NONE', #584 ) ;
#346 = CARTESIAN_POINT ( 'NONE',  ( 0.1581833746825080100, 2.514749583123624621, 11.00016295000640554 ) ) ;
#347 = LINE ( 'NONE', #501, #489 ) ;
#348 = AXIS2_PLACEMENT_3D ( 'NONE', #420, #329, #851 ) ;
#349 = CARTESIAN_POINT ( 'NONE',  ( 6.000000000000000000, 1.310372075087667939E-15, 10.69999999999999929 ) ) ;
#350 = LINE ( 'NONE', #295, #591 ) ;
#351 = CARTESIAN_POINT ( 'NONE',  ( 0.000000000000000000, 0.000000000000000000, 8.000000000000000000 ) ) ;
#352 = EDGE_CURVE ( 'NONE', #135, #615, #658, .T. ) ;
#353 = VERTEX_POINT ( 'NONE', #372 ) ;
#354 = B_SPLINE_CURVE_WITH_KNOTS ( 'NONE', 3,
 ( #447, #62, #235, #216, #927, #228, #538, #300, #1005, #850 ),
 .UNSPECIFIED., .F., .F.,
 ( 4, 2, 2, 2, 4 ),
 ( 0.0007486442408253940473, 1.500461849127776803, 3.000175054014728282, 4.499888258901679983, 5.999601463788631683 ),
 .UNSPECIFIED. ) ;
#355 = CARTESIAN_POINT ( 'NONE',  ( 5.187999999999999723, 0.000000000000000000, 0.000000000000000000 ) ) ;
#356 = DIRECTION ( 'NONE',  ( 0.000000000000000000, 0.5000000000000129896, -0.8660254037844311581 ) ) ;
#357 = B_SPLINE_CURVE_WITH_KNOTS ( 'NONE', 3,
 ( #253, #118, #20, #664, #569, #660, #879, #179, #504, #272 ),
 .UNSPECIFIED., .F., .F.,
 ( 4, 2, 2, 2, 4 ),
 ( 14.25732262034998499, 15.76510876325724197, 17.27289490616450252, 18.78068104907175950, 20.28846719197901649 ),
 .UNSPECIFIED. ) ;
#358 = CARTESIAN_POINT ( 'NONE',  ( 0.000000000000000000, 9.526279441628838995, -5.500000000000199840 ) ) ;
#359 = CYLINDRICAL_SURFACE ( 'NONE', #117, 12.50000000000000000 ) ;
#360 = DIRECTION ( 'NONE',  ( 1.000000000000000000, 0.000000000000000000, 0.000000000000000000 ) ) ;
#361 = CARTESIAN_POINT ( 'NONE',  ( 0.7200240148079504188, 12.22865882136861515, -0.8193416129646027279 ) ) ;
#362 = CARTESIAN_POINT ( 'NONE',  ( 0.09851494077935696314, -8.527407246139800279, 7.232678329136073891 ) ) ;
#363 = EDGE_CURVE ( 'NONE', #40, #533, #337, .T. ) ;
#364 = ORIENTED_EDGE ( 'NONE', *, *, #956, .F. ) ;
#365 = CARTESIAN_POINT ( 'NONE',  ( 0.8660254037844401509, -5.937171043518960190, -11.00000000000000000 ) ) ;
#366 = AXIS2_PLACEMENT_3D ( 'NONE', #51, #674, #687 ) ;
#367 = CIRCLE ( 'NONE', #864, 8.000000000000000000 ) ;
#368 = AXIS2_PLACEMENT_3D ( 'NONE', #436, #743, #112 ) ;
#369 = ADVANCED_FACE ( 'NONE', ( #210 ), #381, .T. ) ;
#370 = CARTESIAN_POINT ( 'NONE',  ( 5.187999999999999723, 0.000000000000000000, -7.187999999999999723 ) ) ;
#371 = ORIENTED_EDGE ( 'NONE', *, *, #45, .T. ) ;
#372 = CARTESIAN_POINT ( 'NONE',  ( 6.000000000000000000, 0.000000000000000000, -7.999999999999998224 ) ) ;
#373 = DIRECTION ( 'NONE',  ( 0.000000000000000000, -0.8660254037844308250, 0.5000000000000135447 ) ) ;
#374 = EDGE_CURVE ( 'NONE', #919, #449, #522, .T. ) ;
#375 = ORIENTED_EDGE ( 'NONE', *, *, #1014, .F. ) ;
#376 = DIRECTION ( 'NONE',  ( 1.000000000000000000, 0.000000000000000000, 0.000000000000000000 ) ) ;
#377 = EDGE_LOOP ( 'NONE', ( #768, #268, #618, #222, #824 ) ) ;
#378 = VECTOR ( 'NONE', #25, 1000.000000000000000 ) ;
#379 = CARTESIAN_POINT ( 'NONE',  ( 0.000000000000000000, -9.526279441628838995, -5.500000000000199840 ) ) ;
#380 = AXIS2_PLACEMENT_3D ( 'NONE', #252, #568, #878 ) ;
#381 = CONICAL_SURFACE ( 'NONE', #368, 11.00000000000000000, 1.047197551196597853 ) ;
#382 = VERTEX_POINT ( 'NONE', #989 ) ;
#383 = CARTESIAN_POINT ( 'NONE',  ( 0.000000000000000000, -9.526279441628838995, 5.500000000000199840 ) ) ;
#384 = CARTESIAN_POINT ( 'NONE',  ( 0.000000000000000000, 0.000000000000000000, 0.000000000000000000 ) ) ;
#385 = ORIENTED_EDGE ( 'NONE', *, *, #396, .T. ) ;
#386 = ORIENTED_EDGE ( 'NONE', *, *, #960, .T. ) ;
#387 = DIRECTION ( 'NONE',  ( 0.000000000000000000, 0.000000000000000000, -1.000000000000000000 ) ) ;
#388 = CARTESIAN_POINT ( 'NONE',  ( 0.2695418178824698363, -11.15003879280753907, -2.687528730433362600 ) ) ;
#389 = ORIENTED_EDGE ( 'NONE', *, *, #334, .F. ) ;
#390 = DIRECTION ( 'NONE',  ( -1.000000000000000000, 0.000000000000000000, 0.000000000000000000 ) ) ;
#391 = ORIENTED_EDGE ( 'NONE', *, *, #892, .F. ) ;
#392 = CC_DESIGN_DATE_AND_TIME_ASSIGNMENT ( #640, #246, ( #770 ) ) ;
#393 = ORIENTED_EDGE ( 'NONE', *, *, #814, .F. ) ;
#394 = CARTESIAN_POINT ( 'NONE',  ( -8.689009358516709245E-09, -9.400853856602124026, 5.717243485835518335 ) ) ;
#395 = DATE_AND_TIME ( #472, #318 ) ;
#396 = EDGE_CURVE ( 'NONE', #57, #605, #287, .T. ) ;
#397 = ORIENTED_EDGE ( 'NONE', *, *, #150, .F. ) ;
#398 = AXIS2_PLACEMENT_3D ( 'NONE', #773, #711, #9 ) ;
#399 = DIRECTION ( 'NONE',  ( 0.000000000000000000, 0.000000000000000000, -1.000000000000000000 ) ) ;
#400 = CARTESIAN_POINT ( 'NONE',  ( 0.000000000000000000, 0.000000000000000000, 0.000000000000000000 ) ) ;
#401 = PERSON ( '未', '未', '未', ('未'), ('未'), ('未') ) ;
#402 = EDGE_LOOP ( 'NONE', ( #925, #681 ) ) ;
#403 = CARTESIAN_POINT ( 'NONE',  ( 5.500000000000000000, -6.557693919869380217, -10.64174095030075939 ) ) ;
#404 = APPROVAL_STATUS ( 'not_yet_approved' ) ;
#405 = DIRECTION ( 'NONE',  ( 1.000000000000000000, 0.000000000000000000, 0.000000000000000000 ) ) ;
#406 = CARTESIAN_POINT ( 'NONE',  ( 5.187999999999999723, 0.000000000000000000, 0.000000000000000000 ) ) ;
#407 = DIRECTION ( 'NONE',  ( 1.000000000000000000, 0.000000000000000000, 0.000000000000000000 ) ) ;
#408 = COORDINATED_UNIVERSAL_TIME_OFFSET ( 8, 0, .AHEAD. ) ;
#409 = EDGE_CURVE ( 'NONE', #993, #716, #202, .T. ) ;
#410 = CIRCLE ( 'NONE', #455, 11.00000000000000000 ) ;
#411 = ORIENTED_EDGE ( 'NONE', *, *, #48, .F. ) ;
#412 = CARTESIAN_POINT ( 'NONE',  ( 6.000000000000000000, 0.000000000000000000, 0.000000000000000000 ) ) ;
#413 = CIRCLE ( 'NONE', #595, 12.50000000000000178 ) ;
#414 = CIRCLE ( 'NONE', #934, 11.00000000000000178 ) ;
#415 = DIRECTION ( 'NONE',  ( 1.000000000000000000, 0.000000000000000000, 0.000000000000000000 ) ) ;
#416 = ADVANCED_FACE ( 'NONE', ( #910 ), #830, .F. ) ;
#417 = FACE_OUTER_BOUND ( 'NONE', #424, .T. ) ;
#418 = CARTESIAN_POINT ( 'NONE',  ( 0.000000000000000000, 0.000000000000000000, 0.000000000000000000 ) ) ;
#419 = ORIENTED_EDGE ( 'NONE', *, *, #230, .F. ) ;
#420 = CARTESIAN_POINT ( 'NONE',  ( 6.000000000000000000, 0.000000000000000000, 0.000000000000000000 ) ) ;
#421 = CARTESIAN_POINT ( 'NONE',  ( 0.09797179333509006827, -8.525722896474746904, -7.233014772052600350 ) ) ;
#422 = DIRECTION ( 'NONE',  ( 0.000000000000000000, 0.8660254037844310471, -0.5000000000000132117 ) ) ;
#423 = CARTESIAN_POINT ( 'NONE',  ( 5.500000000000000000, -6.557693919869381105, 10.64174095030076117 ) ) ;
#424 = EDGE_LOOP ( 'NONE', ( #63, #839, #696, #106 ) ) ;
#425 = CARTESIAN_POINT ( 'NONE',  ( 0.02541214512134724532, 1.004658829769243811, 11.00108296199054614 ) ) ;
#426 = CARTESIAN_POINT ( 'NONE',  ( 5.500000000000000000, 0.000000000000000000, 0.000000000000000000 ) ) ;
#427 = CARTESIAN_POINT ( 'NONE',  ( 0.000000000000000000, 0.000000000000000000, 0.000000000000000000 ) ) ;
#428 = VECTOR ( 'NONE', #194, 1000.000000000000000 ) ;
#429 = ORIENTED_EDGE ( 'NONE', *, *, #990, .F. ) ;
#430 = CARTESIAN_POINT ( 'NONE',  ( 6.000000000000000000, 0.000000000000000000, -10.69999999999999929 ) ) ;
#431 = CARTESIAN_POINT ( 'NONE',  ( 5.500000000000000000, 0.000000000000000000, 0.000000000000000000 ) ) ;
#432 = VECTOR ( 'NONE', #582, 1000.000000000000000 ) ;
#433 = CARTESIAN_POINT ( 'NONE',  ( 6.000000000000000000, 0.000000000000000000, 0.000000000000000000 ) ) ;
#434 = CARTESIAN_POINT ( 'NONE',  ( 6.000000000000000000, -12.70170592217200145, 0.000000000000000000 ) ) ;
#435 = ORIENTED_EDGE ( 'NONE', *, *, #305, .T. ) ;
#436 = CARTESIAN_POINT ( 'NONE',  ( 0.000000000000000000, 0.000000000000000000, 0.000000000000000000 ) ) ;
#437 = CARTESIAN_POINT ( 'NONE',  ( 0.000000000000000000, 9.526279441628838995, 5.500000000000199840 ) ) ;
#438 = ORIENTED_EDGE ( 'NONE', *, *, #579, .F. ) ;
#439 = CARTESIAN_POINT ( 'NONE',  ( 0.000000000000000000, 0.000000000000000000, -11.00000000000000000 ) ) ;
#440 = EDGE_CURVE ( 'NONE', #535, #64, #301, .T. ) ;
#441 = CARTESIAN_POINT ( 'NONE',  ( 0.8660254037844402619, 5.937171043518960190, 11.00000000000000000 ) ) ;
#442 = DIRECTION ( 'NONE',  ( 0.000000000000000000, -0.9995891970710634178, 0.02866072397596956811 ) ) ;
#443 = EDGE_CURVE ( 'NONE', #140, #836, #975, .T. ) ;
#444 = ORIENTED_EDGE ( 'NONE', *, *, #880, .F. ) ;
#445 = DIRECTION ( 'NONE',  ( 0.000000000000000000, 0.000000000000000000, -1.000000000000000000 ) ) ;
#446 = EDGE_CURVE ( 'NONE', #725, #57, #866, .T. ) ;
#447 = CARTESIAN_POINT ( 'NONE',  ( 0.8660254037844401509, 6.557693919869380217, 10.64174095030075939 ) ) ;
#448 = CARTESIAN_POINT ( 'NONE',  ( 0.02022820412164222023, -10.02988074759680792, 4.627736951305662316 ) ) ;
#449 = VERTEX_POINT ( 'NONE', #185 ) ;
#450 = CARTESIAN_POINT ( 'NONE',  ( 0.09851494077935779581, -10.52738679350281714, -3.768612139004846817 ) ) ;
#451 = ORIENTED_EDGE ( 'NONE', *, *, #48, .T. ) ;
#452 = ORIENTED_EDGE ( 'NONE', *, *, #22, .T. ) ;
#453 = DIRECTION ( 'NONE',  ( 1.000000000000000000, 0.000000000000000000, 0.000000000000000000 ) ) ;
#454 = VERTEX_POINT ( 'NONE', #647 ) ;
#455 = AXIS2_PLACEMENT_3D ( 'NONE', #883, #1017, #798 ) ;
#456 = ORIENTED_EDGE ( 'NONE', *, *, #153, .T. ) ;
#457 = CARTESIAN_POINT ( 'NONE',  ( 5.500000000000000000, 12.49486496338829866, -0.3582590496996179708 ) ) ;
#458 = AXIS2_PLACEMENT_3D ( 'NONE', #174, #321, #463 ) ;
#459 = VECTOR ( 'NONE', #872, 1000.000000000000114 ) ;
#460 = ORIENTED_EDGE ( 'NONE', *, *, #146, .F. ) ;
#461 = CARTESIAN_POINT ( 'NONE',  ( 0.6029525229966874456, 11.98986774946357770, 1.227200347929743973 ) ) ;
#462 = CARTESIAN_POINT ( 'NONE',  ( 0.4003007416678256436, -11.51351422411704384, -2.055624126868485835 ) ) ;
#463 = DIRECTION ( 'NONE',  ( 1.000000000000000000, 0.000000000000000000, 0.000000000000000000 ) ) ;
#464 = CC_DESIGN_DATE_AND_TIME_ASSIGNMENT ( #965, #786, ( #750 ) ) ;
#465 = DIRECTION ( 'NONE',  ( 1.000000000000000000, -0.000000000000000000, -0.000000000000000000 ) ) ;
#466 = CARTESIAN_POINT ( 'NONE',  ( 1.728108245135803039E-08, -9.775728992087932667, 5.067940704679848807 ) ) ;
#467 = ADVANCED_FACE ( 'NONE', ( #793 ), #91, .F. ) ;
#468 = CC_DESIGN_APPROVAL ( #677, ( #770 ) ) ;
#469 = CIRCLE ( 'NONE', #157, 12.50000000000000178 ) ;
#470 = ORIENTED_EDGE ( 'NONE', *, *, #668, .T. ) ;
#471 = CARTESIAN_POINT ( 'NONE',  ( 0.000000000000000000, -9.526279441628838995, -5.500000000000199840 ) ) ;
#472 = CALENDAR_DATE ( 2026, 5, 8 ) ;
#473 = EDGE_CURVE ( 'NONE', #214, #599, #498, .T. ) ;
#474 = EDGE_LOOP ( 'NONE', ( #46, #1008, #306, #992 ) ) ;
#475 = VECTOR ( 'NONE', #766, 1000.000000000000000 ) ;
#476 = ORIENTED_EDGE ( 'NONE', *, *, #797, .T. ) ;
#477 = LINE ( 'NONE', #785, #526 ) ;
#478 = PERSON_AND_ORGANIZATION_ROLE ( 'creator' ) ;
#479 = VERTEX_POINT ( 'NONE', #27 ) ;
#480 = DIRECTION ( 'NONE',  ( 0.000000000000000000, 0.000000000000000000, -1.000000000000000000 ) ) ;
#481 = CARTESIAN_POINT ( 'NONE',  ( 0.1576655362706003982, -8.271220954183144514, -7.673825066726623234 ) ) ;
#482 = ADVANCED_FACE ( 'NONE', ( #344 ), #803, .T. ) ;
#483 = CARTESIAN_POINT ( 'NONE',  ( 0.8660254037844401509, 6.557693919869380217, -10.64174095030075939 ) ) ;
#484 = DIRECTION ( 'NONE',  ( 1.000000000000000000, 0.000000000000000000, 0.000000000000000000 ) ) ;
#485 = ADVANCED_FACE ( 'NONE', ( #333 ), #328, .T. ) ;
#486 = PLANE ( 'NONE',  #458 ) ;
#487 = DIRECTION ( 'NONE',  ( 0.000000000000000000, -1.000000000000000000, 0.000000000000000000 ) ) ;
#488 = COORDINATED_UNIVERSAL_TIME_OFFSET ( 8, 0, .AHEAD. ) ;
#489 = VECTOR ( 'NONE', #585, 1000.000000000000000 ) ;
#490 = CARTESIAN_POINT ( 'NONE',  ( 6.000000000000000000, -6.350852961085899473, 11.00000000000000000 ) ) ;
#491 = DIRECTION ( 'NONE',  ( 0.000000000000000000, 0.000000000000000000, -1.000000000000000000 ) ) ;
#492 = AXIS2_PLACEMENT_3D ( 'NONE', #882, #390, #616 ) ;
#493 = AXIS2_PLACEMENT_3D ( 'NONE', #203, #757, #442 ) ;
#494 = DIRECTION ( 'NONE',  ( -1.000000000000000000, 0.000000000000000000, 0.000000000000000000 ) ) ;
#495 = CARTESIAN_POINT ( 'NONE',  ( 0.5979991576964907019, -7.067704664790434244, -9.752267117713520506 ) ) ;
#496 = UNCERTAINTY_MEASURE_WITH_UNIT (LENGTH_MEASURE( 1.000000000000000082E-05 ), #68, 'distance_accuracy_value', 'NONE');
#497 = EDGE_CURVE ( 'NONE', #716, #339, #39, .T. ) ;
#498 = LINE ( 'NONE', #736, #233 ) ;
#499 = VERTEX_POINT ( 'NONE', #885 ) ;
#500 = DIRECTION ( 'NONE',  ( 1.000000000000000000, 0.000000000000000000, 0.000000000000000000 ) ) ;
#501 = CARTESIAN_POINT ( 'NONE',  ( 0.8660254037844402619, -6.557693919869380217, 10.64174095030075939 ) ) ;
#502 = LOCAL_TIME ( 16, 5, 30.00000000000000000, #159 ) ;
#503 = LINE ( 'NONE', #811, #199 ) ;
#504 = CARTESIAN_POINT ( 'NONE',  ( -6.019173945247700004E-08, -0.5014410728412380669, 11.00000000000000000 ) ) ;
#505 = VERTEX_POINT ( 'NONE', #267 ) ;
#506 = FACE_OUTER_BOUND ( 'NONE', #999, .T. ) ;
#507 = DIRECTION ( 'NONE',  ( 0.000000000000000000, 0.5246155135895507193, 0.8513392760240607871 ) ) ;
#508 = DIRECTION ( 'NONE',  ( 1.000000000000000000, 0.000000000000000000, 0.000000000000000000 ) ) ;
#509 = CIRCLE ( 'NONE', #142, 11.00000000000000000 ) ;
#510 = CARTESIAN_POINT ( 'NONE',  ( 0.02541214512134759226, -1.004658829769237371, -11.00108296199054969 ) ) ;
#511 = AXIS2_PLACEMENT_3D ( 'NONE', #244, #720, #494 ) ;
#512 = AXIS2_PLACEMENT_3D ( 'NONE', #14, #807, #812 ) ;
#513 = CARTESIAN_POINT ( 'NONE',  ( 0.005125507427910589407, -9.273256384832082588, 5.938281351961175680 ) ) ;
#514 = ORIENTED_EDGE ( 'NONE', *, *, #814, .T. ) ;
#515 = CARTESIAN_POINT ( 'NONE',  ( 0.005126167932639091006, -0.5018504300557162789, -11.00029335055817370 ) ) ;
#516 = ADVANCED_FACE ( 'NONE', ( #98 ), #359, .T. ) ;
#517 = CARTESIAN_POINT ( 'NONE',  ( 6.000000000000000000, 0.000000000000000000, 0.000000000000000000 ) ) ;
#518 = CARTESIAN_POINT ( 'NONE',  ( 0.5979991576964965860, -11.97956340082674664, 1.244678227297863371 ) ) ;
#519 = APPROVAL_PERSON_ORGANIZATION ( #561, #176, #781 ) ;
#520 = ORIENTED_EDGE ( 'NONE', *, *, #880, .T. ) ;
#521 = EDGE_CURVE ( 'NONE', #505, #535, #414, .T. ) ;
#522 = LINE ( 'NONE', #263, #684 ) ;
#523 = AXIS2_PLACEMENT_3D ( 'NONE', #400, #626, #80 ) ;
#524 = DIRECTION ( 'NONE',  ( 0.000000000000000000, -0.8660254037844311581, 0.5000000000000129896 ) ) ;
#525 = ORIENTED_EDGE ( 'NONE', *, *, #960, .F. ) ;
#526 = VECTOR ( 'NONE', #4, 1000.000000000000000 ) ;
#527 = CIRCLE ( 'NONE', #985, 7.187999999999999723 ) ;
#528 = CARTESIAN_POINT ( 'NONE',  ( 0.7225970782022763661, -12.23335031974363218, -0.8112156994154450240 ) ) ;
#529 = ORIENTED_EDGE ( 'NONE', *, *, #1020, .T. ) ;
#530 = CARTESIAN_POINT ( 'NONE',  ( 5.500000000000000000, -5.937171043518960190, 11.00000000000000000 ) ) ;
#531 = EDGE_LOOP ( 'NONE', ( #290, #529, #136, #204 ) ) ;
#532 = DIRECTION ( 'NONE',  ( 1.000000000000000000, 0.000000000000000000, 0.000000000000000000 ) ) ;
#533 = VERTEX_POINT ( 'NONE', #731 ) ;
#534 = DIRECTION ( 'NONE',  ( 1.000000000000000000, -0.000000000000000000, -0.000000000000000000 ) ) ;
#535 = VERTEX_POINT ( 'NONE', #724 ) ;
#536 = EDGE_CURVE ( 'NONE', #1003, #946, #819, .T. ) ;
#537 = CARTESIAN_POINT ( 'NONE',  ( 0.1570327161292457696, 10.77879004659873630, 3.332355289254606223 ) ) ;
#538 = CARTESIAN_POINT ( 'NONE',  ( 0.09797179333509027643, 8.525722896474750456, 7.233014772052596797 ) ) ;
#539 = VERTEX_POINT ( 'NONE', #563 ) ;
#540 = CARTESIAN_POINT ( 'NONE',  ( 5.500000000000000000, 0.000000000000000000, 0.000000000000000000 ) ) ;
#541 = CONICAL_SURFACE ( 'NONE', #610, 8.000000000000000000, 0.7853981633974476129 ) ;
#542 = VECTOR ( 'NONE', #110, 1000.000000000000000 ) ;
#543 = EDGE_LOOP ( 'NONE', ( #920, #221, #313, #429, #71, #444 ) ) ;
#544 = EDGE_CURVE ( 'NONE', #783, #675, #190, .T. ) ;
#545 = CARTESIAN_POINT ( 'NONE',  ( 0.2695418178824707245, 11.15003879280754262, 2.687528730433351942 ) ) ;
#546 = DIRECTION ( 'NONE',  ( 0.000000000000000000, -0.5000000000000129896, 0.8660254037844311581 ) ) ;
#547 = FACE_OUTER_BOUND ( 'NONE', #248, .T. ) ;
#548 = APPROVAL_PERSON_ORGANIZATION ( #952, #715, #86 ) ;
#549 = EDGE_CURVE ( 'NONE', #808, #535, #357, .T. ) ;
#550 = LINE ( 'NONE', #17, #763 ) ;
#551 = ORIENTED_EDGE ( 'NONE', *, *, #826, .F. ) ;
#552 = ORIENTED_EDGE ( 'NONE', *, *, #767, .T. ) ;
#553 = CARTESIAN_POINT ( 'NONE',  ( 0.4003007416678242003, 7.536979826558576789, -8.943183741484819649 ) ) ;
#554 = AXIS2_PLACEMENT_3D ( 'NONE', #195, #818, #982 ) ;
#555 = PERSON_AND_ORGANIZATION ( #401, #915 ) ;
#556 = PLANE ( 'NONE',  #700 ) ;
#557 = VECTOR ( 'NONE', #979, 1000.000000000000000 ) ;
#558 = EDGE_LOOP ( 'NONE', ( #631, #829, #56, #732 ) ) ;
#559 = LINE ( 'NONE', #1007, #577 ) ;
#560 = CARTESIAN_POINT ( 'NONE',  ( 0.8660254037844401509, 6.557693919869380217, 10.64174095030075939 ) ) ;
#561 = PERSON_AND_ORGANIZATION ( #401, #915 ) ;
#562 = DIRECTION ( 'NONE',  ( 0.000000000000000000, 0.000000000000000000, -1.000000000000000000 ) ) ;
#563 = CARTESIAN_POINT ( 'NONE',  ( 0.000000000000000000, -9.526279441628838995, 5.500000000000199840 ) ) ;
#564 = ORIENTED_EDGE ( 'NONE', *, *, #938, .F. ) ;
#565 = DIRECTION ( 'NONE',  ( 1.000000000000000000, 0.000000000000000000, 0.000000000000000000 ) ) ;
#566 = CARTESIAN_POINT ( 'NONE',  ( 0.8660254037844401509, -12.49486496338829866, 0.3582590496996179708 ) ) ;
#567 = PERSON_AND_ORGANIZATION ( #401, #915 ) ;
#568 = DIRECTION ( 'NONE',  ( 1.000000000000000000, 0.000000000000000000, 0.000000000000000000 ) ) ;
#569 = CARTESIAN_POINT ( 'NONE',  ( 0.3061468796788923141, -3.487802284112524909, 11.00000000000000178 ) ) ;
#570 = FACE_BOUND ( 'NONE', #191, .T. ) ;
#571 = CARTESIAN_POINT ( 'NONE',  ( 0.2695418178824686706, 7.902487550359348134, -8.312452482536857090 ) ) ;
#572 = CC_DESIGN_PERSON_AND_ORGANIZATION_ASSIGNMENT ( #258, #708, ( #727 ) ) ;
#573 = SHAPE_DEFINITION_REPRESENTATION ( #794, #697 ) ;
#574 = ADVANCED_FACE ( 'NONE', ( #586 ), #895, .F. ) ;
#575 = DIRECTION ( 'NONE',  ( 0.000000000000000000, 0.5000000000000129896, 0.8660254037844311581 ) ) ;
#576 = ORIENTED_EDGE ( 'NONE', *, *, #831, .F. ) ;
#577 = VECTOR ( 'NONE', #644, 1000.000000000000000 ) ;
#578 = CARTESIAN_POINT ( 'NONE',  ( 5.500000000000000000, 0.000000000000000000, 0.000000000000000000 ) ) ;
#579 = EDGE_CURVE ( 'NONE', #505, #813, #949, .T. ) ;
#580 = CARTESIAN_POINT ( 'NONE',  ( 0.09890395416718926469, 2.010490377008647300, -10.99999999999999645 ) ) ;
#581 = CARTESIAN_POINT ( 'NONE',  ( 1.728108080952583209E-08, 9.775728992087932667, -5.067940704679841701 ) ) ;
#582 = DIRECTION ( 'NONE',  ( -1.000000000000000000, 0.000000000000000000, 0.000000000000000000 ) ) ;
#583 = VERTEX_POINT ( 'NONE', #1004 ) ;
#584 = CARTESIAN_POINT ( 'NONE',  ( 6.000000000000000000, 9.797174393178823685E-16, 7.999999999999998224 ) ) ;
#585 = DIRECTION ( 'NONE',  ( 1.000000000000000000, 0.000000000000000000, 0.000000000000000000 ) ) ;
#586 = FACE_OUTER_BOUND ( 'NONE', #592, .T. ) ;
#587 = ORIENTED_EDGE ( 'NONE', *, *, #440, .T. ) ;
#588 = DIRECTION ( 'NONE',  ( 0.000000000000000000, 0.000000000000000000, -1.000000000000000000 ) ) ;
#589 = CARTESIAN_POINT ( 'NONE',  ( 0.000000000000000000, 0.000000000000000000, 0.000000000000000000 ) ) ;
#590 = LINE ( 'NONE', #370, #718 ) ;
#591 = VECTOR ( 'NONE', #546, 1000.000000000000114 ) ;
#592 = EDGE_LOOP ( 'NONE', ( #873, #613, #296, #123, #852 ) ) ;
#593 = ADVANCED_FACE ( 'NONE', ( #828 ), #913, .F. ) ;
#594 = CARTESIAN_POINT ( 'NONE',  ( 0.8660254037844402619, 0.000000000000000000, 0.000000000000000000 ) ) ;
#595 = AXIS2_PLACEMENT_3D ( 'NONE', #540, #804, #100 ) ;
#596 = VECTOR ( 'NONE', #893, 1000.000000000000000 ) ;
#597 = EDGE_CURVE ( 'NONE', #946, #353, #590, .T. ) ;
#598 = CARTESIAN_POINT ( 'NONE',  ( 0.8660254037844401509, 12.49486496338829866, 0.3582590496996179708 ) ) ;
#599 = VERTEX_POINT ( 'NONE', #304 ) ;
#600 = DIRECTION ( 'NONE',  ( 0.000000000000000000, -0.4749736834815167508, 0.8800000000000000044 ) ) ;
#601 = FACE_OUTER_BOUND ( 'NONE', #308, .T. ) ;
#602 = CARTESIAN_POINT ( 'NONE',  ( 0.005125507427910087205, 9.779330698033676939, 5.061734929090527579 ) ) ;
#603 = EDGE_LOOP ( 'NONE', ( #514, #470, #891, #945, #980, #476, #630, #302, #738, #152, #371, #111 ) ) ;
#604 = DIRECTION ( 'NONE',  ( 1.000000000000000000, 0.000000000000000000, 0.000000000000000000 ) ) ;
#605 = VERTEX_POINT ( 'NONE', #614 ) ;
#606 = EDGE_CURVE ( 'NONE', #666, #539, #712, .T. ) ;
#607 = AXIS2_PLACEMENT_3D ( 'NONE', #426, #740, #342 ) ;
#608 = MANIFOLD_SOLID_BREP ( '16 MA Nut', #327 ) ;
#609 = CC_DESIGN_SECURITY_CLASSIFICATION ( #770, ( #727 ) ) ;
#610 = AXIS2_PLACEMENT_3D ( 'NONE', #384, #274, #279 ) ;
#611 = ORIENTED_EDGE ( 'NONE', *, *, #606, .F. ) ;
#612 = CARTESIAN_POINT ( 'NONE',  ( 0.02466401200252320292, -10.02703102976333760, -4.632643011049331960 ) ) ;
#613 = ORIENTED_EDGE ( 'NONE', *, *, #797, .F. ) ;
#614 = CARTESIAN_POINT ( 'NONE',  ( 6.000000000000000000, 0.000000000000000000, -10.69999999999999929 ) ) ;
#615 = VERTEX_POINT ( 'NONE', #834 ) ;
#616 = DIRECTION ( 'NONE',  ( 0.000000000000000000, 0.000000000000000000, 1.000000000000000000 ) ) ;
#617 = EDGE_CURVE ( 'NONE', #666, #919, #821, .T. ) ;
#618 = ORIENTED_EDGE ( 'NONE', *, *, #909, .F. ) ;
#619 = EDGE_CURVE ( 'NONE', #997, #40, #849, .T. ) ;
#620 = DIRECTION ( 'NONE',  ( -1.000000000000000000, 0.000000000000000000, 0.000000000000000000 ) ) ;
#621 = CARTESIAN_POINT ( 'NONE',  ( 0.000000000000000000, 0.000000000000000000, 0.000000000000000000 ) ) ;
#622 = AXIS2_PLACEMENT_3D ( 'NONE', #335, #415, #796 ) ;
#623 = EDGE_CURVE ( 'NONE', #479, #836, #96, .T. ) ;
#624 = FACE_OUTER_BOUND ( 'NONE', #225, .T. ) ;
#625 = CARTESIAN_POINT ( 'NONE',  ( 0.3902400647892057539, -7.549309216531752575, -8.918209560304799055 ) ) ;
#626 = DIRECTION ( 'NONE',  ( 0.000000000000000000, 0.000000000000000000, 1.000000000000000000 ) ) ;
#627 = DIRECTION ( 'NONE',  ( 1.000000000000000000, 0.000000000000000000, 0.000000000000000000 ) ) ;
#628 = CARTESIAN_POINT ( 'NONE',  ( 0.4479105762431790927, -7.417157458721463925, 9.149016966053343580 ) ) ;
#629 = B_SPLINE_CURVE_WITH_KNOTS ( 'NONE', 3,
 ( #183, #859, #495, #625, #237, #481, #421, #639, #806, #471 ),
 .UNSPECIFIED., .F., .F.,
 ( 4, 2, 2, 2, 4 ),
 ( 0.0007486442408253940473, 1.500461849127773917, 3.000175054014722509, 4.499888258901671989, 5.999601463788620137 ),
 .UNSPECIFIED. ) ;
#630 = ORIENTED_EDGE ( 'NONE', *, *, #230, .T. ) ;
#631 = ORIENTED_EDGE ( 'NONE', *, *, #983, .T. ) ;
#632 = LINE ( 'NONE', #255, #635 ) ;
#633 = CARTESIAN_POINT ( 'NONE',  ( 0.4003007416678236452, -7.536979826558575901, 8.943183741484817872 ) ) ;
#634 = CALENDAR_DATE ( 2026, 5, 8 ) ;
#635 = VECTOR ( 'NONE', #868, 1000.000000000000000 ) ;
#636 = FACE_OUTER_BOUND ( 'NONE', #161, .T. ) ;
#637 = EDGE_LOOP ( 'NONE', ( #61, #186, #419, #923 ) ) ;
#638 = CARTESIAN_POINT ( 'NONE',  ( 0.8660254037844401509, -6.557693919869380217, 10.64174095030075939 ) ) ;
#639 = CARTESIAN_POINT ( 'NONE',  ( 0.02022820412164106491, -9.022678135660864740, -6.372263048694729370 ) ) ;
#640 = DATE_AND_TIME ( #799, #676 ) ;
#641 = DIRECTION ( 'NONE',  ( -1.000000000000000000, 0.000000000000000000, 0.000000000000000000 ) ) ;
#642 = DIRECTION ( 'NONE',  ( 1.000000000000000000, 0.000000000000000000, 0.000000000000000000 ) ) ;
#643 = ADVANCED_FACE ( 'NONE', ( #154 ), #44, .T. ) ;
#644 = DIRECTION ( 'NONE',  ( 1.000000000000000000, 0.000000000000000000, 0.000000000000000000 ) ) ;
#645 = CARTESIAN_POINT ( 'NONE',  ( 0.1570327161292439100, 8.275299358229075253, -7.668528357786295047 ) ) ;
#646 = APPROVAL_DATE_TIME ( #19, #176 ) ;
#647 = CARTESIAN_POINT ( 'NONE',  ( 6.000000000000000000, 1.310372075087667939E-15, 10.69999999999999929 ) ) ;
#648 = ADVANCED_FACE ( 'NONE', ( #1010, #309 ), #984, .F. ) ;
#649 = ORIENTED_EDGE ( 'NONE', *, *, #856, .T. ) ;
#650 = CARTESIAN_POINT ( 'NONE',  ( 5.187999999999999723, 0.000000000000000000, 0.000000000000000000 ) ) ;
#651 = DIRECTION ( 'NONE',  ( 1.000000000000000000, 0.000000000000000000, 0.000000000000000000 ) ) ;
#652 = CARTESIAN_POINT ( 'NONE',  ( 0.000000000000000000, 0.000000000000000000, -11.00000000000000000 ) ) ;
#653 = CARTESIAN_POINT ( 'NONE',  ( 0.02022820412164241452, 10.02988074759680792, -4.627736951305664981 ) ) ;
#654 = AXIS2_PLACEMENT_3D ( 'NONE', #918, #532, #759 ) ;
#655 = DIRECTION ( 'NONE',  ( 1.000000000000000000, 0.000000000000000000, 0.000000000000000000 ) ) ;
#656 = EDGE_CURVE ( 'NONE', #539, #168, #817, .T. ) ;
#657 = ORIENTED_EDGE ( 'NONE', *, *, #938, .T. ) ;
#658 = LINE ( 'NONE', #906, #66 ) ;
#659 = LINE ( 'NONE', #894, #30 ) ;
#660 = CARTESIAN_POINT ( 'NONE',  ( 0.1589736087784220930, -2.520188493420201237, 11.00000000000000178 ) ) ;
#661 = ORIENTED_EDGE ( 'NONE', *, *, #800, .T. ) ;
#662 = CARTESIAN_POINT ( 'NONE',  ( 0.1581833746825089815, -2.514749583123638388, -11.00016295000640376 ) ) ;
#663 = FACE_OUTER_BOUND ( 'NONE', #543, .T. ) ;
#664 = CARTESIAN_POINT ( 'NONE',  ( 0.3917715053344957288, -3.956626411846761115, 10.99690727716877170 ) ) ;
#665 = EDGE_CURVE ( 'NONE', #57, #725, #294, .T. ) ;
#666 = VERTEX_POINT ( 'NONE', #566 ) ;
#667 = CARTESIAN_POINT ( 'NONE',  ( 5.500000000000000000, -12.49486496338829866, 0.3582590496996245211 ) ) ;
#668 = EDGE_CURVE ( 'NONE', #583, #993, #550, .T. ) ;
#669 = CARTESIAN_POINT ( 'NONE',  ( 0.3902400647892096397, 11.49805064376302965, -2.078788782388428569 ) ) ;
#670 = CARTESIAN_POINT ( 'NONE',  ( 0.09797179333509246912, -10.52683598678292576, 3.766985227947792225 ) ) ;
#671 = ORIENTED_EDGE ( 'NONE', *, *, #597, .F. ) ;
#672 = DIRECTION ( 'NONE',  ( 1.000000000000000000, 0.000000000000000000, 0.000000000000000000 ) ) ;
#673 = CIRCLE ( 'NONE', #348, 10.69999999999999929 ) ;
#674 = DIRECTION ( 'NONE',  ( 1.000000000000000000, -0.000000000000000000, -0.000000000000000000 ) ) ;
#675 = VERTEX_POINT ( 'NONE', #245 ) ;
#676 = LOCAL_TIME ( 16, 5, 30.00000000000000000, #323 ) ;
#677 = APPROVAL ( #791, '未' ) ;
#678 = CARTESIAN_POINT ( 'NONE',  ( 0.1570327161292449925, -10.77879004659873274, -3.332355289254617325 ) ) ;
#679 = ORIENTED_EDGE ( 'NONE', *, *, #805, .T. ) ;
#680 = DIRECTION ( 'NONE',  ( 0.000000000000000000, 0.000000000000000000, -1.000000000000000000 ) ) ;
#681 = ORIENTED_EDGE ( 'NONE', *, *, #165, .F. ) ;
#682 = EDGE_LOOP ( 'NONE', ( #218, #845, #858, #853 ) ) ;
#683 = CIRCLE ( 'NONE', #698, 11.00000000000000000 ) ;
#684 = VECTOR ( 'NONE', #672, 1000.000000000000000 ) ;
#685 = EDGE_LOOP ( 'NONE', ( #456, #936, #375, #451 ) ) ;
#686 = ORIENTED_EDGE ( 'NONE', *, *, #800, .F. ) ;
#687 = DIRECTION ( 'NONE',  ( 0.000000000000000000, 0.000000000000000000, -1.000000000000000000 ) ) ;
#688 = CARTESIAN_POINT ( 'NONE',  ( 0.03951005957108326416, -10.15167940867362439, -4.417571909908523331 ) ) ;
#689 = CARTESIAN_POINT ( 'NONE',  ( 5.500000000000000000, 6.557693919869380217, 10.64174095030075939 ) ) ;
#690 = ORIENTED_EDGE ( 'NONE', *, *, #124, .F. ) ;
#691 = EDGE_CURVE ( 'NONE', #675, #997, #629, .T. ) ;
#692 = CARTESIAN_POINT ( 'NONE',  ( 0.03951005957108374295, 10.15167940867362439, 4.417571909908522443 ) ) ;
#693 = ADVANCED_FACE ( 'NONE', ( #256 ), #947, .T. ) ;
#694 = DIRECTION ( 'NONE',  ( 1.000000000000000000, 0.000000000000000000, 0.000000000000000000 ) ) ;
#695 = DIRECTION ( 'NONE',  ( 0.000000000000000000, 0.9995891970710633068, -0.02866072397597010935 ) ) ;
#696 = ORIENTED_EDGE ( 'NONE', *, *, #132, .F. ) ;
#697 = ADVANCED_BREP_SHAPE_REPRESENTATION ( '16 MA Nut_Default_sldprt', ( #608, #523 ), #340 ) ;
#698 = AXIS2_PLACEMENT_3D ( 'NONE', #103, #114, #422 ) ;
#699 = CARTESIAN_POINT ( 'NONE',  ( 0.4003007416678263097, 11.51351422411704917, 2.055624126868484947 ) ) ;
#700 = AXIS2_PLACEMENT_3D ( 'NONE', #787, #709, #6 ) ;
#701 = LINE ( 'NONE', #961, #52 ) ;
#702 = CARTESIAN_POINT ( 'NONE',  ( 5.500000000000000000, 1.310372075087667939E-15, 10.69999999999999929 ) ) ;
#703 =( NAMED_UNIT ( * ) SI_UNIT ( $, .STERADIAN. ) SOLID_ANGLE_UNIT ( ) );
#704 = LINE ( 'NONE', #247, #217 ) ;
#705 = ORIENTED_EDGE ( 'NONE', *, *, #473, .F. ) ;
#706 = DIRECTION ( 'NONE',  ( 1.000000000000000000, 0.000000000000000000, 0.000000000000000000 ) ) ;
#707 = CARTESIAN_POINT ( 'NONE',  ( 0.09851494077935650517, 8.527407246139796726, -7.232678329136073891 ) ) ;
#708 = PERSON_AND_ORGANIZATION_ROLE ( 'design_supplier' ) ;
#709 = DIRECTION ( 'NONE',  ( 0.000000000000000000, -0.8660254037844311581, -0.5000000000000129896 ) ) ;
#710 = ORIENTED_EDGE ( 'NONE', *, *, #990, .T. ) ;
#711 = DIRECTION ( 'NONE',  ( 1.000000000000000000, 0.000000000000000000, 0.000000000000000000 ) ) ;
#712 = B_SPLINE_CURVE_WITH_KNOTS ( 'NONE', 3,
 ( #901, #749, #518, #289, #147, #207, #670, #448, #466, #383 ),
 .UNSPECIFIED., .F., .F.,
 ( 4, 2, 2, 2, 4 ),
 ( 0.0007486442404211479662, 1.500461849127375347, 3.000175054014329490, 4.499888258901282967, 5.999601463788237332 ),
 .UNSPECIFIED. ) ;
#713 = DIRECTION ( 'NONE',  ( 0.000000000000000000, 0.000000000000000000, -1.000000000000000000 ) ) ;
#714 = COORDINATED_UNIVERSAL_TIME_OFFSET ( 8, 0, .AHEAD. ) ;
#715 = APPROVAL ( #404, '未' ) ;
#716 = VERTEX_POINT ( 'NONE', #958 ) ;
#717 = CARTESIAN_POINT ( 'NONE',  ( 6.000000000000000000, 0.000000000000000000, 0.000000000000000000 ) ) ;
#718 = VECTOR ( 'NONE', #907, 1000.000000000000000 ) ;
#719 = EDGE_LOOP ( 'NONE', ( #435, #995 ) ) ;
#720 = DIRECTION ( 'NONE',  ( 0.000000000000000000, 0.000000000000000000, -1.000000000000000000 ) ) ;
#721 = CARTESIAN_POINT ( 'NONE',  ( 0.000000000000000000, 0.000000000000000000, 0.000000000000000000 ) ) ;
#722 = APPROVAL_ROLE ( '' ) ;
#723 = ADVANCED_FACE ( 'NONE', ( #317 ), #846, .T. ) ;
#724 = CARTESIAN_POINT ( 'NONE',  ( 0.000000000000000000, 0.000000000000000000, 11.00000000000000000 ) ) ;
#725 = VERTEX_POINT ( 'NONE', #702 ) ;
#726 = DIRECTION ( 'NONE',  ( 1.000000000000000000, 0.000000000000000000, 0.000000000000000000 ) ) ;
#727 = PRODUCT_DEFINITION_FORMATION_WITH_SPECIFIED_SOURCE ( '�', '', #944, .NOT_KNOWN. ) ;
#728 = LINE ( 'NONE', #193, #378 ) ;
#729 = EDGE_CURVE ( 'NONE', #69, #2, #953, .T. ) ;
#730 = CARTESIAN_POINT ( 'NONE',  ( 0.09797179333509230259, 10.52683598678292931, -3.766985227947790893 ) ) ;
#731 = CARTESIAN_POINT ( 'NONE',  ( 0.8660254037844401509, -5.937171043518960190, -11.00000000000000000 ) ) ;
#732 = ORIENTED_EDGE ( 'NONE', *, *, #606, .T. ) ;
#733 = CARTESIAN_POINT ( 'NONE',  ( 0.09988592861866352202, 2.012157009819764752, 11.00164694654272779 ) ) ;
#734 = CARTESIAN_POINT ( 'NONE',  ( 0.8660254037844401509, 5.937171043518960190, -11.00000000000000000 ) ) ;
#735 = CARTESIAN_POINT ( 'NONE',  ( 0.8660254037844401509, 12.49486496338829866, -0.3582590496996179708 ) ) ;
#736 = CARTESIAN_POINT ( 'NONE',  ( 5.500000000000000000, 6.557693919869380217, -10.64174095030076117 ) ) ;
#737 = AXIS2_PLACEMENT_3D ( 'NONE', #205, #981, #35 ) ;
#738 = ORIENTED_EDGE ( 'NONE', *, *, #1014, .T. ) ;
#739 = DIRECTION ( 'NONE',  ( 1.000000000000000000, 0.000000000000000000, 0.000000000000000000 ) ) ;
#740 = DIRECTION ( 'NONE',  ( 1.000000000000000000, 0.000000000000000000, 0.000000000000000000 ) ) ;
#741 = DIRECTION ( 'NONE',  ( 0.000000000000000000, 0.8660254037844311581, 0.5000000000000129896 ) ) ;
#742 = ORIENTED_EDGE ( 'NONE', *, *, #165, .T. ) ;
#743 = DIRECTION ( 'NONE',  ( 1.000000000000000000, 0.000000000000000000, 0.000000000000000000 ) ) ;
#744 = APPLICATION_CONTEXT ( 'configuration controlled 3d designs of mechanical parts and assemblies' ) ;
#745 = CARTESIAN_POINT ( 'NONE',  ( 5.187999999999999723, 8.802761192271173604E-16, 7.187999999999999723 ) ) ;
#746 = CARTESIAN_POINT ( 'NONE',  ( 0.09851494077935848970, 10.52738679350282069, 3.768612139004842376 ) ) ;
#747 = ORIENTED_EDGE ( 'NONE', *, *, #396, .F. ) ;
#748 = CARTESIAN_POINT ( 'NONE',  ( 0.8660254037844401509, 12.49486496338829866, -0.3582590496996179708 ) ) ;
#749 = CARTESIAN_POINT ( 'NONE',  ( 0.7200240148079485314, -12.22865882136861160, 0.8193416129645989532 ) ) ;
#750 = PRODUCT_DEFINITION ( '�', '', #727, #42 ) ;
#751 = AXIS2_PLACEMENT_3D ( 'NONE', #240, #158, #939 ) ;
#752 = ORIENTED_EDGE ( 'NONE', *, *, #22, .F. ) ;
#753 = DIRECTION ( 'NONE',  ( 0.000000000000000000, 1.000000000000000000, 0.000000000000000000 ) ) ;
#754 = VECTOR ( 'NONE', #874, 1000.000000000000000 ) ;
#755 = ORIENTED_EDGE ( 'NONE', *, *, #805, .F. ) ;
#756 = EDGE_CURVE ( 'NONE', #40, #69, #410, .T. ) ;
#757 = DIRECTION ( 'NONE',  ( 1.000000000000000000, 0.000000000000000000, 0.000000000000000000 ) ) ;
#758 = ORIENTED_EDGE ( 'NONE', *, *, #876, .T. ) ;
#759 = DIRECTION ( 'NONE',  ( 0.000000000000000000, 1.224646799147353207E-16, 1.000000000000000000 ) ) ;
#760 = ORIENTED_EDGE ( 'NONE', *, *, #623, .F. ) ;
#761 = LOCAL_TIME ( 16, 5, 30.00000000000000000, #714 ) ;
#762 = EDGE_LOOP ( 'NONE', ( #686, #886, #326, #99 ) ) ;
#763 = VECTOR ( 'NONE', #487, 1000.000000000000000 ) ;
#764 = CIRCLE ( 'NONE', #232, 7.999999999999998224 ) ;
#765 = CARTESIAN_POINT ( 'NONE',  ( 0.000000000000000000, -9.526279441628838995, -5.500000000000199840 ) ) ;
#766 = DIRECTION ( 'NONE',  ( -1.000000000000000000, 0.000000000000000000, 0.000000000000000000 ) ) ;
#767 = EDGE_CURVE ( 'NONE', #993, #808, #477, .T. ) ;
#768 = ORIENTED_EDGE ( 'NONE', *, *, #767, .F. ) ;
#769 = ADVANCED_FACE ( 'NONE', ( #417 ), #261, .T. ) ;
#770 = SECURITY_CLASSIFICATION ( '', '', #865 ) ;
#771 = DIRECTION ( 'NONE',  ( 1.000000000000000000, 0.000000000000000000, 0.000000000000000000 ) ) ;
#772 = CYLINDRICAL_SURFACE ( 'NONE', #212, 10.69999999999999929 ) ;
#773 = CARTESIAN_POINT ( 'NONE',  ( 0.8660254037844402619, 0.000000000000000000, 0.000000000000000000 ) ) ;
#774 = CARTESIAN_POINT ( 'NONE',  ( 0.000000000000000000, 0.000000000000000000, -11.00000000000000000 ) ) ;
#775 = LOCAL_TIME ( 16, 5, 30.00000000000000000, #408 ) ;
#776 = DIRECTION ( 'NONE',  ( 0.000000000000000000, 0.000000000000000000, 1.000000000000000000 ) ) ;
#777 = PERSON_AND_ORGANIZATION ( #401, #915 ) ;
#778 = DIRECTION ( 'NONE',  ( 1.000000000000000000, 0.000000000000000000, 0.000000000000000000 ) ) ;
#779 = AXIS2_PLACEMENT_3D ( 'NONE', #933, #620, #776 ) ;
#780 = CARTESIAN_POINT ( 'NONE',  ( 0.000000000000000000, 0.000000000000000000, 0.000000000000000000 ) ) ;
#781 = APPROVAL_ROLE ( '' ) ;
#782 = CONICAL_SURFACE ( 'NONE', #837, 8.000000000000000000, 0.7853981633974476129 ) ;
#783 = VERTEX_POINT ( 'NONE', #403 ) ;
#784 = ORIENTED_EDGE ( 'NONE', *, *, #303, .F. ) ;
#785 = CARTESIAN_POINT ( 'NONE',  ( 5.500000000000000000, -5.937171043518960190, 11.00000000000000000 ) ) ;
#786 = DATE_TIME_ROLE ( 'creation_date' ) ;
#787 = CARTESIAN_POINT ( 'NONE',  ( 6.000000000000000000, 12.70170592217200145, 0.000000000000000000 ) ) ;
#788 = ORIENTED_EDGE ( 'NONE', *, *, #856, .F. ) ;
#789 = PLANE ( 'NONE',  #492 ) ;
#790 = CARTESIAN_POINT ( 'NONE',  ( 0.4479105762431793147, 7.417157458721461261, -9.149016966053347133 ) ) ;
#791 = APPROVAL_STATUS ( 'not_yet_approved' ) ;
#792 = CARTESIAN_POINT ( 'NONE',  ( 6.000000000000000000, 0.000000000000000000, 0.000000000000000000 ) ) ;
#793 = FACE_OUTER_BOUND ( 'NONE', #531, .T. ) ;
#794 = PRODUCT_DEFINITION_SHAPE ( 'NONE', 'NONE',  #750 ) ;
#795 = VERTEX_POINT ( 'NONE', #560 ) ;
#796 = DIRECTION ( 'NONE',  ( 0.000000000000000000, 0.4749736834815167508, -0.8799999999999998934 ) ) ;
#797 = EDGE_CURVE ( 'NONE', #449, #783, #869, .T. ) ;
#798 = DIRECTION ( 'NONE',  ( 0.000000000000000000, 0.000000000000000000, -1.000000000000000000 ) ) ;
#799 = CALENDAR_DATE ( 2026, 5, 8 ) ;
#800 = EDGE_CURVE ( 'NONE', #937, #345, #659, .T. ) ;
#801 = CIRCLE ( 'NONE', #297, 7.187999999999999723 ) ;
#802 = FACE_OUTER_BOUND ( 'NONE', #940, .T. ) ;
#803 = CYLINDRICAL_SURFACE ( 'NONE', #1001, 12.50000000000000000 ) ;
#804 = DIRECTION ( 'NONE',  ( 1.000000000000000000, 0.000000000000000000, 0.000000000000000000 ) ) ;
#805 = EDGE_CURVE ( 'NONE', #168, #716, #347, .T. ) ;
#806 = CARTESIAN_POINT ( 'NONE',  ( 1.728107746487506991E-08, -9.276829891169732889, -5.932059295320559755 ) ) ;
#807 = DIRECTION ( 'NONE',  ( 1.000000000000000000, 0.000000000000000000, 0.000000000000000000 ) ) ;
#808 = VERTEX_POINT ( 'NONE', #270 ) ;
#809 = CARTESIAN_POINT ( 'NONE',  ( 3.045587950399869482E-08, 0.2537213862330816028, 11.00000000000000533 ) ) ;
#810 = CARTESIAN_POINT ( 'NONE',  ( 0.8660254037844401509, 12.49486496338829866, 0.3582590496996179708 ) ) ;
#811 = CARTESIAN_POINT ( 'NONE',  ( 0.8660254037844402619, 6.557693919869380217, -10.64174095030075939 ) ) ;
#812 = DIRECTION ( 'NONE',  ( 0.000000000000000000, 0.000000000000000000, -1.000000000000000000 ) ) ;
#813 = VERTEX_POINT ( 'NONE', #810 ) ;
#814 = EDGE_CURVE ( 'NONE', #382, #583, #998, .T. ) ;
#815 = CARTESIAN_POINT ( 'NONE',  ( 0.000000000000000000, 0.000000000000000000, 0.000000000000000000 ) ) ;
#816 = FACE_BOUND ( 'NONE', #719, .T. ) ;
#817 = B_SPLINE_CURVE_WITH_KNOTS ( 'NONE', 3,
 ( #78, #394, #513, #823, #122, #362, #284, #964, #315, #633, #628, #89, #322, #330 ),
 .UNSPECIFIED., .F., .F.,
 ( 4, 2, 2, 2, 2, 2, 4 ),
 ( 5.999601463788237332, 6.745270895290476965, 7.490940326792715709, 8.982279189797194974, 9.727948621299432830, 10.47361805280166891, 11.96495691580614462 ),
 .UNSPECIFIED. ) ;
#818 = DIRECTION ( 'NONE',  ( 1.000000000000000000, 0.000000000000000000, 0.000000000000000000 ) ) ;
#819 = LINE ( 'NONE', #890, #557 ) ;
#820 = CIRCLE ( 'NONE', #281, 10.69999999999999929 ) ;
#821 = CIRCLE ( 'NONE', #493, 12.50000000000000178 ) ;
#822 = CARTESIAN_POINT ( 'NONE',  ( 0.6009024880511364408, 4.924841371874681961, 10.99650116326152904 ) ) ;
#823 = CARTESIAN_POINT ( 'NONE',  ( 0.02466401200252356721, -9.025502049114631831, 6.367342090785506059 ) ) ;
#824 = ORIENTED_EDGE ( 'NONE', *, *, #549, .F. ) ;
#825 = CARTESIAN_POINT ( 'NONE',  ( 0.04052049860981261215, -1.256755928015049761, -11.00144341966460004 ) ) ;
#826 = EDGE_CURVE ( 'NONE', #339, #449, #324, .T. ) ;
#827 = DIRECTION ( 'NONE',  ( 1.000000000000000000, 0.000000000000000000, 0.000000000000000000 ) ) ;
#828 = FACE_OUTER_BOUND ( 'NONE', #929, .T. ) ;
#829 = ORIENTED_EDGE ( 'NONE', *, *, #988, .T. ) ;
#830 = CYLINDRICAL_SURFACE ( 'NONE', #54, 7.187999999999999723 ) ;
#831 = EDGE_CURVE ( 'NONE', #1003, #479, #728, .T. ) ;
#832 = CARTESIAN_POINT ( 'NONE',  ( 0.1576655362706003705, 10.78133792907455302, -3.326174933273741363 ) ) ;
#833 = VECTOR ( 'NONE', #974, 1000.000000000000000 ) ;
#834 = CARTESIAN_POINT ( 'NONE',  ( 5.500000000000000000, 5.937171043518960190, -11.00000000000000000 ) ) ;
#835 = CIRCLE ( 'NONE', #654, 11.00000000000000000 ) ;
#836 = VERTEX_POINT ( 'NONE', #108 ) ;
#837 = AXIS2_PLACEMENT_3D ( 'NONE', #167, #311, #236 ) ;
#838 = ADVANCED_FACE ( 'NONE', ( #816, #663 ), #113, .F. ) ;
#839 = ORIENTED_EDGE ( 'NONE', *, *, #363, .T. ) ;
#840 = CARTESIAN_POINT ( 'NONE',  ( 0.8120000000000001661, 9.299967792724999631E-16, -7.187999999999999723 ) ) ;
#841 = ORIENTED_EDGE ( 'NONE', *, *, #497, .F. ) ;
#842 = DIRECTION ( 'NONE',  ( 0.000000000000000000, 0.4749736834815168063, -0.8800000000000000044 ) ) ;
#843 = ORIENTED_EDGE ( 'NONE', *, *, #443, .T. ) ;
#844 = DIRECTION ( 'NONE',  ( 0.000000000000000000, 0.000000000000000000, -1.000000000000000000 ) ) ;
#845 = ORIENTED_EDGE ( 'NONE', *, *, #831, .T. ) ;
#846 = CONICAL_SURFACE ( 'NONE', #862, 11.00000000000000000, 1.047197551196597853 ) ;
#847 = CIRCLE ( 'NONE', #951, 12.50000000000000178 ) ;
#848 = CARTESIAN_POINT ( 'NONE',  ( 6.000000000000000000, 0.000000000000000000, 0.000000000000000000 ) ) ;
#849 = CIRCLE ( 'NONE', #987, 11.00000000000000178 ) ;
#850 = CARTESIAN_POINT ( 'NONE',  ( 0.000000000000000000, 9.526279441628838995, 5.500000000000199840 ) ) ;
#851 = DIRECTION ( 'NONE',  ( 0.000000000000000000, 0.000000000000000000, -1.000000000000000000 ) ) ;
#852 = ORIENTED_EDGE ( 'NONE', *, *, #691, .F. ) ;
#853 = ORIENTED_EDGE ( 'NONE', *, *, #443, .F. ) ;
#854 = DIRECTION ( 'NONE',  ( 0.000000000000000000, -0.8660254037844310471, -0.5000000000000132117 ) ) ;
#855 = CC_DESIGN_PERSON_AND_ORGANIZATION_ASSIGNMENT ( #567, #166, ( #770 ) ) ;
#856 = EDGE_CURVE ( 'NONE', #7, #40, #899, .T. ) ;
#857 = CARTESIAN_POINT ( 'NONE',  ( 0.000000000000000000, 9.526279441628838995, -5.500000000000199840 ) ) ;
#858 = ORIENTED_EDGE ( 'NONE', *, *, #305, .F. ) ;
#859 = CARTESIAN_POINT ( 'NONE',  ( 0.7200240148079412039, -6.823900061889063728, -10.18065838703577342 ) ) ;
#860 = ORIENTED_EDGE ( 'NONE', *, *, #257, .T. ) ;
#861 = ORIENTED_EDGE ( 'NONE', *, *, #521, .T. ) ;
#862 = AXIS2_PLACEMENT_3D ( 'NONE', #10, #407, #399 ) ;
#863 = CARTESIAN_POINT ( 'NONE',  ( 0.6029525229966831157, 7.057720551571757817, -9.769929885086551025 ) ) ;
#864 = AXIS2_PLACEMENT_3D ( 'NONE', #815, #187, #588 ) ;
#865 = SECURITY_CLASSIFICATION_LEVEL ( 'unclassified' ) ;
#866 = CIRCLE ( 'NONE', #512, 10.69999999999999929 ) ;
#867 = ORIENTED_EDGE ( 'NONE', *, *, #579, .T. ) ;
#868 = DIRECTION ( 'NONE',  ( -1.000000000000000000, 0.000000000000000000, 0.000000000000000000 ) ) ;
#869 = LINE ( 'NONE', #170, #900 ) ;
#870 = PERSON_AND_ORGANIZATION_ROLE ( 'design_owner' ) ;
#871 = CYLINDRICAL_SURFACE ( 'NONE', #65, 12.50000000000000000 ) ;
#872 = DIRECTION ( 'NONE',  ( 0.000000000000000000, -0.5000000000000129896, -0.8660254037844311581 ) ) ;
#873 = ORIENTED_EDGE ( 'NONE', *, *, #544, .F. ) ;
#874 = DIRECTION ( 'NONE',  ( -1.000000000000000000, 0.000000000000000000, 0.000000000000000000 ) ) ;
#875 = CARTESIAN_POINT ( 'NONE',  ( 0.3113475729497096056, 7.779550393736563763, -8.525591763843712201 ) ) ;
#876 = EDGE_CURVE ( 'NONE', #725, #454, #37, .T. ) ;
#877 = CALENDAR_DATE ( 2026, 5, 8 ) ;
#878 = DIRECTION ( 'NONE',  ( 0.000000000000000000, 0.000000000000000000, -1.000000000000000000 ) ) ;
#879 = CARTESIAN_POINT ( 'NONE',  ( 0.09890395416719126309, -2.010490377008652629, 10.99999999999999822 ) ) ;
#880 = EDGE_CURVE ( 'NONE', #69, #505, #683, .T. ) ;
#881 = ORIENTED_EDGE ( 'NONE', *, *, #446, .F. ) ;
#882 = CARTESIAN_POINT ( 'NONE',  ( 5.500000000000000000, 12.50000000000000000, 0.000000000000000000 ) ) ;
#883 = CARTESIAN_POINT ( 'NONE',  ( 0.000000000000000000, 0.000000000000000000, 0.000000000000000000 ) ) ;
#884 = CIRCLE ( 'NONE', #144, 7.187999999999999723 ) ;
#885 = CARTESIAN_POINT ( 'NONE',  ( 5.500000000000000000, 12.49486496338829866, 0.3582590496996270746 ) ) ;
#886 = ORIENTED_EDGE ( 'NONE', *, *, #254, .F. ) ;
#887 = CARTESIAN_POINT ( 'NONE',  ( 0.000000000000000000, 0.000000000000000000, 11.00000000000000000 ) ) ;
#888 = CARTESIAN_POINT ( 'NONE',  ( 0.02051099492421965334, 1.013318675597171481, -10.99999999999999822 ) ) ;
#889 = FACE_OUTER_BOUND ( 'NONE', #474, .T. ) ;
#890 = CARTESIAN_POINT ( 'NONE',  ( 6.000000000000000000, 0.000000000000000000, -7.187999999999999723 ) ) ;
#891 = ORIENTED_EDGE ( 'NONE', *, *, #409, .T. ) ;
#892 = EDGE_CURVE ( 'NONE', #795, #64, #49, .T. ) ;
#893 = DIRECTION ( 'NONE',  ( 1.000000000000000000, 0.000000000000000000, 0.000000000000000000 ) ) ;
#894 = CARTESIAN_POINT ( 'NONE',  ( 5.187999999999999723, 8.802761192271173604E-16, 7.187999999999999723 ) ) ;
#895 = PLANE ( 'NONE',  #283 ) ;
#896 = ORIENTED_EDGE ( 'NONE', *, *, #182, .T. ) ;
#897 = DIRECTION ( 'NONE',  ( 1.000000000000000000, 0.000000000000000000, 0.000000000000000000 ) ) ;
#898 = CARTESIAN_POINT ( 'NONE',  ( 0.3061468796788893720, 3.487802284112519136, -10.99999999999999822 ) ) ;
#899 = B_SPLINE_CURVE_WITH_KNOTS ( 'NONE', 3,
 ( #734, #969, #188, #31, #898, #264, #580, #888, #266, #652 ),
 .UNSPECIFIED., .F., .F.,
 ( 4, 2, 2, 2, 4 ),
 ( 14.25732262034998676, 15.76510876325724375, 17.27289490616449896, 18.78068104907175595, 20.28846719197901294 ),
 .UNSPECIFIED. ) ;
#900 = VECTOR ( 'NONE', #356, 1000.000000000000114 ) ;
#901 = CARTESIAN_POINT ( 'NONE',  ( 0.8660254037844401509, -12.49486496338829866, 0.3582590496996179708 ) ) ;
#902 = CIRCLE ( 'NONE', #622, 12.50000000000000178 ) ;
#903 = ORIENTED_EDGE ( 'NONE', *, *, #153, .F. ) ;
#904 = AXIS2_PLACEMENT_3D ( 'NONE', #427, #642, #259 ) ;
#905 = ADVANCED_FACE ( 'NONE', ( #601 ), #206, .T. ) ;
#906 = CARTESIAN_POINT ( 'NONE',  ( 5.500000000000000000, -5.937171043518958413, -11.00000000000000000 ) ) ;
#907 = DIRECTION ( 'NONE',  ( 0.7071067811865480168, 0.000000000000000000, -0.7071067811865470176 ) ) ;
#908 = ORIENTED_EDGE ( 'NONE', *, *, #146, .T. ) ;
#909 = EDGE_CURVE ( 'NONE', #64, #583, #343, .T. ) ;
#910 = FACE_OUTER_BOUND ( 'NONE', #15, .T. ) ;
#911 = ADVANCED_FACE ( 'NONE', ( #201 ), #121, .T. ) ;
#912 = CYLINDRICAL_SURFACE ( 'NONE', #8, 12.50000000000000000 ) ;
#913 = PLANE ( 'NONE',  #243 ) ;
#914 = ORIENTED_EDGE ( 'NONE', *, *, #729, .T. ) ;
#915 = ORGANIZATION ( '未', '未', '' ) ;
#916 = ADVANCED_FACE ( 'NONE', ( #889 ), #912, .T. ) ;
#917 = ORIENTED_EDGE ( 'NONE', *, *, #409, .F. ) ;
#918 = CARTESIAN_POINT ( 'NONE',  ( 0.000000000000000000, 0.000000000000000000, 0.000000000000000000 ) ) ;
#919 = VERTEX_POINT ( 'NONE', #282 ) ;
#920 = ORIENTED_EDGE ( 'NONE', *, *, #756, .F. ) ;
#921 = CIRCLE ( 'NONE', #133, 12.50000000000000178 ) ;
#922 = CARTESIAN_POINT ( 'NONE',  ( 0.005125507427909624034, -9.779330698033664504, -5.061734929090543567 ) ) ;
#923 = ORIENTED_EDGE ( 'NONE', *, *, #544, .T. ) ;
#924 = ORIENTED_EDGE ( 'NONE', *, *, #352, .F. ) ;
#925 = ORIENTED_EDGE ( 'NONE', *, *, #104, .F. ) ;
#926 = DIRECTION ( 'NONE',  ( 0.000000000000000000, -0.5000000000000129896, 0.8660254037844311581 ) ) ;
#927 = CARTESIAN_POINT ( 'NONE',  ( 0.3045058289933681439, 7.787051882452099782, 8.512430498418202873 ) ) ;
#928 = DIRECTION ( 'NONE',  ( 0.000000000000000000, 0.8660254037844311581, -0.5000000000000129896 ) ) ;
#929 = EDGE_LOOP ( 'NONE', ( #76, #705, #127, #292, #564 ) ) ;
#930 = AXIS2_PLACEMENT_3D ( 'NONE', #431, #977, #507 ) ;
#931 = CC_DESIGN_PERSON_AND_ORGANIZATION_ASSIGNMENT ( #555, #870, ( #944 ) ) ;
#932 = CIRCLE ( 'NONE', #12, 12.50000000000000178 ) ;
#933 = CARTESIAN_POINT ( 'NONE',  ( 6.000000000000000000, 10.69999999999999929, 0.000000000000000000 ) ) ;
#934 = AXIS2_PLACEMENT_3D ( 'NONE', #418, #655, #971 ) ;
#935 = B_SPLINE_CURVE_WITH_KNOTS ( 'NONE', 3,
 ( #765, #148, #922, #612, #688, #450, #678, #388, #220, #462, #223, #994, #528, #139 ),
 .UNSPECIFIED., .F., .F.,
 ( 4, 2, 2, 2, 2, 2, 4 ),
 ( 5.999601463788620137, 6.745270895290861546, 7.490940326793102955, 8.982279189797583996, 9.727948621299823628, 10.47361805280206326, 11.96495691580654608 ),
 .UNSPECIFIED. ) ;
#936 = ORIENTED_EDGE ( 'NONE', *, *, #941, .T. ) ;
#937 = VERTEX_POINT ( 'NONE', #745 ) ;
#938 = EDGE_CURVE ( 'NONE', #325, #69, #151, .T. ) ;
#939 = DIRECTION ( 'NONE',  ( 0.000000000000000000, 0.000000000000000000, -1.000000000000000000 ) ) ;
#940 = EDGE_LOOP ( 'NONE', ( #460, #841, #755, #21, #611 ) ) ;
#941 = EDGE_CURVE ( 'NONE', #2, #214, #503, .T. ) ;
#942 = CARTESIAN_POINT ( 'NONE',  ( 0.03951005957108189720, 8.901569201361935413, -6.582826304032749931 ) ) ;
#943 = APPLICATION_PROTOCOL_DEFINITION ( 'international standard', 'config_control_design', 1994, #1012 ) ;
#944 = PRODUCT ( '16 MA Nut_Default_sldprt', '16 MA Nut_Default_sldprt', '', ( #319 ) ) ;
#945 = ORIENTED_EDGE ( 'NONE', *, *, #497, .T. ) ;
#946 = VERTEX_POINT ( 'NONE', #32 ) ;
#947 = CONICAL_SURFACE ( 'NONE', #215, 11.00000000000000000, 1.047197551196597853 ) ;
#948 = FACE_OUTER_BOUND ( 'NONE', #58, .T. ) ;
#949 = B_SPLINE_CURVE_WITH_KNOTS ( 'NONE', 3,
 ( #437, #277, #602, #234, #692, #746, #537, #545, #991, #699, #126, #461, #227, #598 ),
 .UNSPECIFIED., .F., .F.,
 ( 4, 2, 2, 2, 2, 2, 4 ),
 ( 5.999601463788631683, 6.745270895290871316, 7.490940326793111836, 8.982279189797592878, 9.727948621299832510, 10.47361805280207392, 11.96495691580654963 ),
 .UNSPECIFIED. ) ;
#950 = CARTESIAN_POINT ( 'NONE',  ( 0.000000000000000000, 9.526279441628838995, -5.500000000000199840 ) ) ;
#951 = AXIS2_PLACEMENT_3D ( 'NONE', #954, #84, #695 ) ;
#952 = PERSON_AND_ORGANIZATION ( #401, #915 ) ;
#953 = B_SPLINE_CURVE_WITH_KNOTS ( 'NONE', 3,
 ( #950, #250, #1021, #101, #942, #707, #645, #571, #875, #553, #790, #863, #164, #175 ),
 .UNSPECIFIED., .F., .F.,
 ( 4, 2, 2, 2, 2, 2, 4 ),
 ( 5.999601463788242661, 6.745270895290479629, 7.490940326792716597, 8.982279189797189645, 9.727948621299429277, 10.47361805280166536, 11.96495691580614817 ),
 .UNSPECIFIED. ) ;
#954 = CARTESIAN_POINT ( 'NONE',  ( 5.500000000000000000, 0.000000000000000000, 0.000000000000000000 ) ) ;
#955 = ORIENTED_EDGE ( 'NONE', *, *, #363, .F. ) ;
#956 = EDGE_CURVE ( 'NONE', #499, #382, #350, .T. ) ;
#957 = PLANE ( 'NONE',  #511 ) ;
#958 = CARTESIAN_POINT ( 'NONE',  ( 5.500000000000000000, -6.557693919869380217, 10.64174095030075939 ) ) ;
#959 =( NAMED_UNIT ( * ) PLANE_ANGLE_UNIT ( ) SI_UNIT ( $, .RADIAN. ) );
#960 = EDGE_CURVE ( 'NONE', #795, #505, #354, .T. ) ;
#961 = CARTESIAN_POINT ( 'NONE',  ( 0.8660254037844402619, 12.49486496338829866, 0.3582590496996179708 ) ) ;
#962 = CARTESIAN_POINT ( 'NONE',  ( 6.000000000000000000, 0.000000000000000000, 0.000000000000000000 ) ) ;
#963 = LINE ( 'NONE', #689, #754 ) ;
#964 = CARTESIAN_POINT ( 'NONE',  ( 0.2695418178824683930, -7.902487550359355239, 8.312452482536848208 ) ) ;
#965 = DATE_AND_TIME ( #634, #775 ) ;
#966 = EDGE_LOOP ( 'NONE', ( #28, #758, #752, #747 ) ) ;
#967 = CARTESIAN_POINT ( 'NONE',  ( 0.7216161608760092161, -5.410564716129643514, -11.00000000000000533 ) ) ;
#968 = AXIS2_PLACEMENT_3D ( 'NONE', #721, #336, #85 ) ;
#969 = CARTESIAN_POINT ( 'NONE',  ( 0.7205420547933670816, 5.406647846569117455, -11.00000000000000888 ) ) ;
#970 = CONICAL_SURFACE ( 'NONE', #1000, 7.187999999999999723, 0.7853981633974476129 ) ;
#971 = DIRECTION ( 'NONE',  ( 0.000000000000000000, 0.8660254037844309360, 0.5000000000000132117 ) ) ;
#972 = EDGE_LOOP ( 'NONE', ( #231, #1016, #385, #397 ) ) ;
#973 = CARTESIAN_POINT ( 'NONE',  ( 0.3076553848520867662, 3.497897016785335378, 10.99985477041381365 ) ) ;
#974 = DIRECTION ( 'NONE',  ( 1.000000000000000000, 0.000000000000000000, 0.000000000000000000 ) ) ;
#975 = LINE ( 'NONE', #351, #542 ) ;
#976 = CARTESIAN_POINT ( 'NONE',  ( 0.3076553848520876544, -3.497897016785344260, -10.99985477041381188 ) ) ;
#977 = DIRECTION ( 'NONE',  ( 1.000000000000000000, 0.000000000000000000, 0.000000000000000000 ) ) ;
#978 = DIRECTION ( 'NONE',  ( 1.000000000000000000, 0.000000000000000000, 0.000000000000000000 ) ) ;
#979 = DIRECTION ( 'NONE',  ( 1.000000000000000000, 0.000000000000000000, 0.000000000000000000 ) ) ;
#980 = ORIENTED_EDGE ( 'NONE', *, *, #826, .T. ) ;
#981 = DIRECTION ( 'NONE',  ( 1.000000000000000000, 0.000000000000000000, 0.000000000000000000 ) ) ;
#982 = DIRECTION ( 'NONE',  ( 0.000000000000000000, 0.000000000000000000, -1.000000000000000000 ) ) ;
#983 = EDGE_CURVE ( 'NONE', #539, #997, #509, .T. ) ;
#984 = PLANE ( 'NONE',  #779 ) ;
#985 = AXIS2_PLACEMENT_3D ( 'NONE', #650, #706, #3 ) ;
#986 = ORIENTED_EDGE ( 'NONE', *, *, #254, .T. ) ;
#987 = AXIS2_PLACEMENT_3D ( 'NONE', #67, #771, #854 ) ;
#988 = EDGE_CURVE ( 'NONE', #997, #919, #935, .T. ) ;
#989 = CARTESIAN_POINT ( 'NONE',  ( 5.500000000000000000, 6.557693919869380217, 10.64174095030075939 ) ) ;
#990 = EDGE_CURVE ( 'NONE', #535, #539, #835, .T. ) ;
#991 = CARTESIAN_POINT ( 'NONE',  ( 0.3113475729497116040, 11.27315424665224697, 2.474492389075566123 ) ) ;
#992 = ORIENTED_EDGE ( 'NONE', *, *, #260, .T. ) ;
#993 = VERTEX_POINT ( 'NONE', #530 ) ;
#994 = CARTESIAN_POINT ( 'NONE',  ( 0.6029525229966871125, -11.98986774946357947, -1.227200347929761071 ) ) ;
#995 = ORIENTED_EDGE ( 'NONE', *, *, #623, .T. ) ;
#997 = VERTEX_POINT ( 'NONE', #379 ) ;
#996 = ADVANCED_FACE ( 'NONE', ( #1011 ), #772, .T. ) ;
#998 = CIRCLE ( 'NONE', #930, 12.50000000000000000 ) ;
#999 = EDGE_LOOP ( 'NONE', ( #784, #661, #742, #671 ) ) ;
#1000 = AXIS2_PLACEMENT_3D ( 'NONE', #406, #726, #307 ) ;
#1001 = AXIS2_PLACEMENT_3D ( 'NONE', #717, #484, #33 ) ;
#1002 = EDGE_LOOP ( 'NONE', ( #576, #860, #843, #760 ) ) ;
#1003 = VERTEX_POINT ( 'NONE', #840 ) ;
#1004 = CARTESIAN_POINT ( 'NONE',  ( 5.500000000000000000, 5.937171043518960190, 11.00000000000000000 ) ) ;
#1005 = CARTESIAN_POINT ( 'NONE',  ( 1.728107813233703234E-08, 9.276829891169738218, 5.932059295320549985 ) ) ;
#1006 = ORIENTED_EDGE ( 'NONE', *, *, #756, .T. ) ;
#1007 = CARTESIAN_POINT ( 'NONE',  ( 0.8660254037844402619, -5.937171043518960190, -11.00000000000000000 ) ) ;
#1008 = ORIENTED_EDGE ( 'NONE', *, *, #73, .T. ) ;
#1009 = CC_DESIGN_PERSON_AND_ORGANIZATION_ASSIGNMENT ( #777, #241, ( #750 ) ) ;
#1010 = FACE_BOUND ( 'NONE', #402, .T. ) ;
#1011 = FACE_OUTER_BOUND ( 'NONE', #966, .T. ) ;
#1012 = APPLICATION_CONTEXT ( 'configuration controlled 3d designs of mechanical parts and assemblies' ) ;
#1013 = AXIS2_PLACEMENT_3D ( 'NONE', #589, #651, #36 ) ;
#1014 = EDGE_CURVE ( 'NONE', #615, #214, #469, .T. ) ;
#1015 = EDGE_LOOP ( 'NONE', ( #520, #867, #389, #657 ) ) ;
#1016 = ORIENTED_EDGE ( 'NONE', *, *, #446, .T. ) ;
#1017 = DIRECTION ( 'NONE',  ( 1.000000000000000000, 0.000000000000000000, 0.000000000000000000 ) ) ;
#1018 = APPLICATION_PROTOCOL_DEFINITION ( 'international standard', 'config_control_design', 1994, #744 ) ;
#1019 = DIRECTION ( 'NONE',  ( 0.000000000000000000, 0.000000000000000000, -1.000000000000000000 ) ) ;
#1020 = EDGE_CURVE ( 'NONE', #140, #937, #137, .T. ) ;
#1021 = CARTESIAN_POINT ( 'NONE',  ( 0.005125507427908831265, 9.273256384832080812, -5.938281351961180121 ) ) ;
ENDSEC;
END-ISO-10303-21;
