ISO-10303-21;
HEADER;
FILE_DESCRIPTION (( 'STEP AP203' ),
    '1' );
FILE_NAME ('biella_centrale_0.1_Default_sldprt.STEP',
    '2026-08-05T08:05:38',
    ( '' ),
    ( '' ),
    'SwSTEP 2.0',
    'SolidWorks 2026',
    '' );
FILE_SCHEMA (( 'CONFIG_CONTROL_DESIGN' ));
ENDSEC;

DATA;
#1 = DIRECTION ( 'NONE',  ( 1.000000000000000000, 0.000000000000000000, 0.000000000000000000 ) ) ;
#2 = EDGE_CURVE ( 'NONE', #1081, #248, #988, .T. ) ;
#3 = DIRECTION ( 'NONE',  ( -4.260894298600669262E-17, -9.137517310908909378E-17, -1.000000000000000000 ) ) ;
#4 = PLANE ( 'NONE',  #729 ) ;
#5 = VERTEX_POINT ( 'NONE', #841 ) ;
#6 = LINE ( 'NONE', #887, #895 ) ;
#7 = ORIENTED_EDGE ( 'NONE', *, *, #364, .T. ) ;
#8 = CARTESIAN_POINT ( 'NONE',  ( 76.43669835249423272, 160.3697262230977287, -7.000000000000016875 ) ) ;
#9 = ADVANCED_FACE ( 'NONE', ( #814 ), #151, .F. ) ;
#10 = CARTESIAN_POINT ( 'NONE',  ( 62.08332126480296154, 136.6874144753178086, 6.999999999999988454 ) ) ;
#11 = ORIENTED_EDGE ( 'NONE', *, *, #143, .T. ) ;
#12 = ORIENTED_EDGE ( 'NONE', *, *, #794, .T. ) ;
#13 = CARTESIAN_POINT ( 'NONE',  ( 61.65288109731604038, 132.2150301825480767, 9.999999999999985789 ) ) ;
#14 = VECTOR ( 'NONE', #371, 1000.000000000000000 ) ;
#15 = LOCAL_TIME ( 16, 5, 38.00000000000000000, #1053 ) ;
#16 = VECTOR ( 'NONE', #884, 1000.000000000000000 ) ;
#17 = AXIS2_PLACEMENT_3D ( 'NONE', #231, #535, #651 ) ;
#18 = DIRECTION ( 'NONE',  ( -0.4226182617406973319, -0.9063077870366509359, 0.000000000000000000 ) ) ;
#19 = EDGE_LOOP ( 'NONE', ( #288, #417, #85, #379, #64, #994 ) ) ;
#20 = VERTEX_POINT ( 'NONE', #911 ) ;
#21 = EDGE_CURVE ( 'NONE', #1084, #906, #1207, .T. ) ;
#22 = LINE ( 'NONE', #806, #1199 ) ;
#23 = AXIS2_PLACEMENT_3D ( 'NONE', #1041, #271, #666 ) ;
#24 = ADVANCED_FACE ( 'NONE', ( #342 ), #540, .T. ) ;
#25 = LINE ( 'NONE', #410, #401 ) ;
#26 = ORIENTED_EDGE ( 'NONE', *, *, #685, .T. ) ;
#27 = DIRECTION ( 'NONE',  ( 0.4226182617406972764, 0.9063077870366509359, -1.008213483499440404E-16 ) ) ;
#28 = VERTEX_POINT ( 'NONE', #643 ) ;
#29 = EDGE_CURVE ( 'NONE', #1267, #267, #756, .T. ) ;
#30 = DIRECTION ( 'NONE',  ( 0.000000000000000000, 0.000000000000000000, 1.000000000000000000 ) ) ;
#31 = FACE_BOUND ( 'NONE', #506, .T. ) ;
#32 = VERTEX_POINT ( 'NONE', #940 ) ;
#33 = EDGE_LOOP ( 'NONE', ( #766, #1051, #134, #1176, #581, #45, #715, #1114, #1174, #119 ) ) ;
#34 = LINE ( 'NONE', #420, #867 ) ;
#35 = VECTOR ( 'NONE', #41, 1000.000000000000000 ) ;
#36 = DIRECTION ( 'NONE',  ( 4.260894298600668030E-17, 9.137517310908909378E-17, 1.000000000000000000 ) ) ;
#37 = CC_DESIGN_APPROVAL ( #930, ( #1158 ) ) ;
#38 = CYLINDRICAL_SURFACE ( 'NONE', #127, 6.000000000000005329 ) ;
#39 = VECTOR ( 'NONE', #1206, 999.9999999999998863 ) ;
#40 = EDGE_LOOP ( 'NONE', ( #763, #91, #503, #130 ) ) ;
#41 = DIRECTION ( 'NONE',  ( -0.000000000000000000, -0.000000000000000000, 1.000000000000000000 ) ) ;
#42 = EDGE_CURVE ( 'NONE', #260, #206, #105, .T. ) ;
#43 = CARTESIAN_POINT ( 'NONE',  ( 76.43669835249423272, 160.3697262230977287, -7.000000000000016875 ) ) ;
#44 = CYLINDRICAL_SURFACE ( 'NONE', #144, 6.000000000000005329 ) ;
#45 = ORIENTED_EDGE ( 'NONE', *, *, #908, .F. ) ;
#46 = CARTESIAN_POINT ( 'NONE',  ( 61.65288109731604038, 132.2150301825480767, 9.999999999999985789 ) ) ;
#47 = EDGE_CURVE ( 'NONE', #587, #700, #1127, .T. ) ;
#48 = CARTESIAN_POINT ( 'NONE',  ( 64.80224462591293388, 135.4195596900957526, -7.000000000000015099 ) ) ;
#49 = CARTESIAN_POINT ( 'NONE',  ( 76.86713851998113967, 164.8421105158674891, -10.00000000000001599 ) ) ;
#50 = ORIENTED_EDGE ( 'NONE', *, *, #265, .F. ) ;
#51 = LINE ( 'NONE', #928, #1078 ) ;
#52 = DIRECTION ( 'NONE',  ( -0.000000000000000000, -0.000000000000000000, -1.000000000000000000 ) ) ;
#53 = DIRECTION ( 'NONE',  ( -0.4226182617406972764, -0.9063077870366509359, 5.041067417497202019E-17 ) ) ;
#54 = AXIS2_PLACEMENT_3D ( 'NONE', #174, #565, #882 ) ;
#55 = ORIENTED_EDGE ( 'NONE', *, *, #1121, .F. ) ;
#56 = VECTOR ( 'NONE', #1232, 1000.000000000000227 ) ;
#57 = CARTESIAN_POINT ( 'NONE',  ( 82.86713851998115388, 164.8421105158674891, 9.999999999999985789 ) ) ;
#58 = EDGE_CURVE ( 'NONE', #746, #587, #825, .T. ) ;
#59 = CARTESIAN_POINT ( 'NONE',  ( 64.65288109731604038, 132.2150301825480767, -10.00000000000001599 ) ) ;
#60 = EDGE_CURVE ( 'NONE', #601, #1167, #61, .T. ) ;
#61 = LINE ( 'NONE', #158, #593 ) ;
#62 = VECTOR ( 'NONE', #53, 1000.000000000000227 ) ;
#63 = DIRECTION ( 'NONE',  ( -0.000000000000000000, 0.000000000000000000, 1.000000000000000000 ) ) ;
#64 = ORIENTED_EDGE ( 'NONE', *, *, #1121, .T. ) ;
#65 = CYLINDRICAL_SURFACE ( 'NONE', #464, 2.500000000000002220 ) ;
#66 = APPROVAL_DATE_TIME ( #838, #910 ) ;
#67 = ADVANCED_FACE ( 'NONE', ( #522, #1118, #820 ), #246, .T. ) ;
#68 = CYLINDRICAL_SURFACE ( 'NONE', #377, 2.500000000000002220 ) ;
#69 = CARTESIAN_POINT ( 'NONE',  ( 75.07723667193924655, 161.0036536157087994, -3.500000000000015543 ) ) ;
#70 = CARTESIAN_POINT ( 'NONE',  ( 71.39337455181042458, 156.6528881796182304, 2.499999999999979128 ) ) ;
#71 = ORIENTED_EDGE ( 'NONE', *, *, #970, .T. ) ;
#72 = DIRECTION ( 'NONE',  ( -0.000000000000000000, -0.000000000000000000, -1.000000000000000000 ) ) ;
#73 = ADVANCED_FACE ( 'NONE', ( #353 ), #44, .T. ) ;
#74 = CYLINDRICAL_SURFACE ( 'NONE', #1142, 3.000000000000002665 ) ;
#75 = DIRECTION ( 'NONE',  ( 0.9063077870366509359, -0.4226182617406974429, 0.000000000000000000 ) ) ;
#76 = AXIS2_PLACEMENT_3D ( 'NONE', #1104, #30, #201 ) ;
#77 = ORIENTED_EDGE ( 'NONE', *, *, #1139, .T. ) ;
#78 = CARTESIAN_POINT ( 'NONE',  ( 67.65288109731604038, 132.2150301825480767, 9.999999999999985789 ) ) ;
#79 = APPROVAL_STATUS ( 'not_yet_approved' ) ;
#80 = ORIENTED_EDGE ( 'NONE', *, *, #1145, .F. ) ;
#81 = AXIS2_PLACEMENT_3D ( 'NONE', #138, #899, #329 ) ;
#82 = AXIS2_PLACEMENT_3D ( 'NONE', #1003, #315, #128 ) ;
#83 = ADVANCED_FACE ( 'NONE', ( #252 ), #1231, .T. ) ;
#84 = CARTESIAN_POINT ( 'NONE',  ( 78.92904476684500992, 159.2075260033107895, 3.499999999999985345 ) ) ;
#85 = ORIENTED_EDGE ( 'NONE', *, *, #372, .T. ) ;
#86 = AXIS2_PLACEMENT_3D ( 'NONE', #973, #1246, #845 ) ;
#87 = PERSON_AND_ORGANIZATION_ROLE ( 'classification_officer' ) ;
#88 = ORIENTED_EDGE ( 'NONE', *, *, #42, .T. ) ;
#89 = DIRECTION ( 'NONE',  ( -0.000000000000000000, 0.000000000000000000, 1.000000000000000000 ) ) ;
#90 = CYLINDRICAL_SURFACE ( 'NONE', #751, 2.500000000000002220 ) ;
#91 = ORIENTED_EDGE ( 'NONE', *, *, #1253, .T. ) ;
#92 = CARTESIAN_POINT ( 'NONE',  ( 67.29459104026371108, 134.2573594703088418, -7.000000000000015099 ) ) ;
#93 = ORIENTED_EDGE ( 'NONE', *, *, #265, .T. ) ;
#94 = DIRECTION ( 'NONE',  ( -0.000000000000000000, -0.000000000000000000, 1.000000000000000000 ) ) ;
#95 = LINE ( 'NONE', #403, #1203 ) ;
#96 = ORIENTED_EDGE ( 'NONE', *, *, #194, .F. ) ;
#97 = EDGE_LOOP ( 'NONE', ( #573, #1102, #499, #161 ) ) ;
#98 = VECTOR ( 'NONE', #249, 1000.000000000000000 ) ;
#99 = EDGE_CURVE ( 'NONE', #1084, #1120, #919, .T. ) ;
#100 = FACE_OUTER_BOUND ( 'NONE', #97, .T. ) ;
#101 = AXIS2_PLACEMENT_3D ( 'NONE', #947, #445, #834 ) ;
#102 = DIRECTION ( 'NONE',  ( 0.000000000000000000, 1.000000000000000000, -9.137517310908909378E-17 ) ) ;
#103 = DIRECTION ( 'NONE',  ( -0.000000000000000000, -0.000000000000000000, -1.000000000000000000 ) ) ;
#104 = ORIENTED_EDGE ( 'NONE', *, *, #849, .F. ) ;
#105 = CIRCLE ( 'NONE', #1065, 3.000000000000002665 ) ;
#106 = DIRECTION ( 'NONE',  ( -0.000000000000000000, -0.000000000000000000, -1.000000000000000000 ) ) ;
#107 = ORIENTED_EDGE ( 'NONE', *, *, #190, .F. ) ;
#108 = ADVANCED_FACE ( 'NONE', ( #724 ), #38, .T. ) ;
#109 = CARTESIAN_POINT ( 'NONE',  ( 67.29459104026371108, 134.2573594703088418, 6.999999999999988454 ) ) ;
#110 = CARTESIAN_POINT ( 'NONE',  ( 59.59097485045217013, 137.8496146951047479, 9.999999999999985789 ) ) ;
#111 = CARTESIAN_POINT ( 'NONE',  ( 78.92904476684500992, 159.2075260033107895, -7.000000000000016875 ) ) ;
#112 = PLANE ( 'NONE',  #467 ) ;
#113 = ORIENTED_EDGE ( 'NONE', *, *, #213, .F. ) ;
#114 = CARTESIAN_POINT ( 'NONE',  ( 64.80224462591293388, 135.4195596900957526, -7.000000000000015099 ) ) ;
#115 = EDGE_CURVE ( 'NONE', #640, #746, #1023, .T. ) ;
#116 = CARTESIAN_POINT ( 'NONE',  ( 55.65288109731604038, 132.2150301825480767, 9.999999999999985789 ) ) ;
#117 = ORIENTED_EDGE ( 'NONE', *, *, #1234, .F. ) ;
#118 = CARTESIAN_POINT ( 'NONE',  ( 58.65288109731603328, 132.2150301825480767, 9.999999999999985789 ) ) ;
#119 = ORIENTED_EDGE ( 'NONE', *, *, #617, .F. ) ;
#120 = CARTESIAN_POINT ( 'NONE',  ( 78.92904476684499571, 159.2075260033107895, -10.00000000000001599 ) ) ;
#121 = AXIS2_PLACEMENT_3D ( 'NONE', #1205, #914, #1013 ) ;
#122 = AXIS2_PLACEMENT_3D ( 'NONE', #576, #502, #893 ) ;
#123 = DIRECTION ( 'NONE',  ( 1.000000000000000000, 0.000000000000000000, 0.000000000000000000 ) ) ;
#124 = ORIENTED_EDGE ( 'NONE', *, *, #1047, .T. ) ;
#125 = VERTEX_POINT ( 'NONE', #925 ) ;
#126 = DIRECTION ( 'NONE',  ( 0.9063077870366509359, -0.4226182617406972764, 0.000000000000000000 ) ) ;
#127 = AXIS2_PLACEMENT_3D ( 'NONE', #426, #133, #633 ) ;
#128 = DIRECTION ( 'NONE',  ( -1.000000000000000000, 0.000000000000000000, 0.000000000000000000 ) ) ;
#129 = ORIENTED_EDGE ( 'NONE', *, *, #625, .F. ) ;
#130 = ORIENTED_EDGE ( 'NONE', *, *, #608, .F. ) ;
#131 = DIRECTION ( 'NONE',  ( 1.000000000000000000, 0.000000000000000000, 0.000000000000000000 ) ) ;
#132 = CARTESIAN_POINT ( 'NONE',  ( 74.53491617466107755, 156.2913411814328128, 3.499999999999988010 ) ) ;
#133 = DIRECTION ( 'NONE',  ( -0.000000000000000000, -0.000000000000000000, -1.000000000000000000 ) ) ;
#134 = ORIENTED_EDGE ( 'NONE', *, *, #1008, .F. ) ;
#135 = CARTESIAN_POINT ( 'NONE',  ( 59.59097485045217013, 137.8496146951047479, 6.999999999999988454 ) ) ;
#136 = CALENDAR_DATE ( 2026, 5, 8 ) ;
#137 = CIRCLE ( 'NONE', #788, 6.000000000000005329 ) ;
#138 = CARTESIAN_POINT ( 'NONE',  ( 76.86713851998113967, 164.8421105158674891, 3.499999999999985345 ) ) ;
#139 = AXIS2_PLACEMENT_3D ( 'NONE', #676, #656, #168 ) ;
#140 = DIRECTION ( 'NONE',  ( -1.000000000000000000, 0.000000000000000000, 0.000000000000000000 ) ) ;
#141 = ORIENTED_EDGE ( 'NONE', *, *, #637, .T. ) ;
#142 = CARTESIAN_POINT ( 'NONE',  ( 76.86713851998113967, 164.8421105158674891, -3.500000000000015543 ) ) ;
#143 = EDGE_CURVE ( 'NONE', #1005, #835, #836, .T. ) ;
#144 = AXIS2_PLACEMENT_3D ( 'NONE', #737, #1132, #140 ) ;
#145 = PLANE ( 'NONE',  #795 ) ;
#146 = CARTESIAN_POINT ( 'NONE',  ( 73.71777499138426037, 161.6375810083198132, -7.000000000000016875 ) ) ;
#147 = VERTEX_POINT ( 'NONE', #482 ) ;
#148 = CARTESIAN_POINT ( 'NONE',  ( 78.92904476684500992, 159.2075260033107895, 6.999999999999985789 ) ) ;
#149 = PERSON_AND_ORGANIZATION_ROLE ( 'creator' ) ;
#150 = CARTESIAN_POINT ( 'NONE',  ( 75.50767683942616770, 165.4760379084785313, -3.500000000000015543 ) ) ;
#151 = CYLINDRICAL_SURFACE ( 'NONE', #986, 1.000000000000002220 ) ;
#152 = EDGE_CURVE ( 'NONE', #733, #913, #166, .T. ) ;
#153 = CARTESIAN_POINT ( 'NONE',  ( 78.92904476684500992, 159.2075260033107895, -7.000000000000016875 ) ) ;
#154 = ORIENTED_EDGE ( 'NONE', *, *, #552, .T. ) ;
#155 = PLANE ( 'NONE',  #710 ) ;
#156 = ADVANCED_FACE ( 'NONE', ( #363 ), #477, .F. ) ;
#157 = CARTESIAN_POINT ( 'NONE',  ( 79.36713851998113967, 164.8421105158674891, 9.999999999999985789 ) ) ;
#158 = CARTESIAN_POINT ( 'NONE',  ( 92.89884744479054746, 147.7280993963394451, 3.499999999999988010 ) ) ;
#159 = VECTOR ( 'NONE', #255, 1000.000000000000000 ) ;
#160 = ADVANCED_FACE ( 'NONE', ( #653 ), #1168, .F. ) ;
#161 = ORIENTED_EDGE ( 'NONE', *, *, #702, .F. ) ;
#162 = VECTOR ( 'NONE', #106, 1000.000000000000000 ) ;
#163 = DIRECTION ( 'NONE',  ( 1.000000000000000000, 0.000000000000000000, 0.000000000000000000 ) ) ;
#164 = SECURITY_CLASSIFICATION_LEVEL ( 'unclassified' ) ;
#165 = CARTESIAN_POINT ( 'NONE',  ( 78.92904476684499571, 159.2075260033107895, 9.999999999999985789 ) ) ;
#166 = LINE ( 'NONE', #471, #490 ) ;
#167 = ORIENTED_EDGE ( 'NONE', *, *, #780, .T. ) ;
#168 = DIRECTION ( 'NONE',  ( 1.000000000000000000, 0.000000000000000000, 0.000000000000000000 ) ) ;
#169 = FACE_OUTER_BOUND ( 'NONE', #33, .T. ) ;
#170 = CARTESIAN_POINT ( 'NONE',  ( 76.86713851998113967, 164.8421105158674891, 9.999999999999985789 ) ) ;
#171 = EDGE_LOOP ( 'NONE', ( #1190, #216, #393, #1194 ) ) ;
#172 = VERTEX_POINT ( 'NONE', #852 ) ;
#173 = ADVANCED_FACE ( 'NONE', ( #752 ), #187, .T. ) ;
#174 = CARTESIAN_POINT ( 'NONE',  ( 76.86713851998113967, 164.8421105158674891, -10.00000000000001599 ) ) ;
#175 = CARTESIAN_POINT ( 'NONE',  ( 76.86713851998113967, 164.8421105158674891, -3.500000000000015543 ) ) ;
#176 = AXIS2_PLACEMENT_3D ( 'NONE', #114, #781, #1177 ) ;
#177 = VERTEX_POINT ( 'NONE', #1263 ) ;
#178 = CARTESIAN_POINT ( 'NONE',  ( 71.22542857703346897, 162.7997812281067240, -7.000000000000016875 ) ) ;
#179 = ORIENTED_EDGE ( 'NONE', *, *, #143, .F. ) ;
#180 = AXIS2_PLACEMENT_3D ( 'NONE', #1072, #3, #102 ) ;
#181 = VECTOR ( 'NONE', #52, 1000.000000000000000 ) ;
#182 = CARTESIAN_POINT ( 'NONE',  ( 76.86713851998113967, 164.8421105158674891, -3.500000000000015543 ) ) ;
#183 = CARTESIAN_POINT ( 'NONE',  ( 61.65288109731604038, 132.2150301825480767, 9.999999999999985789 ) ) ;
#184 = EDGE_LOOP ( 'NONE', ( #532, #1108, #1251, #446 ) ) ;
#185 =( NAMED_UNIT ( * ) PLANE_ANGLE_UNIT ( ) SI_UNIT ( $, .RADIAN. ) );
#186 = VERTEX_POINT ( 'NONE', #768 ) ;
#187 = CYLINDRICAL_SURFACE ( 'NONE', #1024, 6.000000000000005329 ) ;
#188 = DIRECTION ( 'NONE',  ( 1.000000000000000000, 0.000000000000000000, 0.000000000000000000 ) ) ;
#189 = EDGE_LOOP ( 'NONE', ( #684, #739, #167, #1160, #11 ) ) ;
#190 = EDGE_CURVE ( 'NONE', #640, #577, #382, .T. ) ;
#191 = CARTESIAN_POINT ( 'NONE',  ( 71.22542857703346897, 162.7997812281067240, 9.999999999999985789 ) ) ;
#192 = ORIENTED_EDGE ( 'NONE', *, *, #209, .T. ) ;
#193 = PRODUCT ( 'biella_centrale_0.1_Default_sldprt', 'biella_centrale_0.1_Default_sldprt', '', ( #662 ) ) ;
#194 = EDGE_CURVE ( 'NONE', #962, #1042, #1066, .T. ) ;
#195 = DIRECTION ( 'NONE',  ( -0.000000000000000000, 0.000000000000000000, 1.000000000000000000 ) ) ;
#196 = PLANE ( 'NONE',  #980 ) ;
#197 = ORIENTED_EDGE ( 'NONE', *, *, #858, .F. ) ;
#198 = EDGE_CURVE ( 'NONE', #125, #578, #406, .T. ) ;
#199 = VERTEX_POINT ( 'NONE', #758 ) ;
#200 = AXIS2_PLACEMENT_3D ( 'NONE', #262, #282, #943 ) ;
#201 = DIRECTION ( 'NONE',  ( 1.000000000000000000, 0.000000000000000000, 0.000000000000000000 ) ) ;
#202 = LOCAL_TIME ( 16, 5, 38.00000000000000000, #440 ) ;
#203 = APPROVAL_ROLE ( '' ) ;
#204 = VECTOR ( 'NONE', #1075, 1000.000000000000000 ) ;
#205 = DIRECTION ( 'NONE',  ( 1.000000000000000000, 0.000000000000000000, 0.000000000000000000 ) ) ;
#206 = VERTEX_POINT ( 'NONE', #1151 ) ;
#207 = ORIENTED_EDGE ( 'NONE', *, *, #1008, .T. ) ;
#208 = CARTESIAN_POINT ( 'NONE',  ( 67.29459104026371108, 134.2573594703088418, 9.999999999999985789 ) ) ;
#209 = EDGE_CURVE ( 'NONE', #661, #316, #1128, .T. ) ;
#210 = LINE ( 'NONE', #776, #1101 ) ;
#211 = EDGE_LOOP ( 'NONE', ( #556, #1196, #411, #885 ) ) ;
#212 = ORIENTED_EDGE ( 'NONE', *, *, #534, .T. ) ;
#213 = EDGE_CURVE ( 'NONE', #1167, #458, #678, .T. ) ;
#214 = CARTESIAN_POINT ( 'NONE',  ( 73.71777499138426037, 161.6375810083198132, -7.000000000000016875 ) ) ;
#215 = CARTESIAN_POINT ( 'NONE',  ( 74.36713851998113967, 164.8421105158674891, -10.00000000000001599 ) ) ;
#216 = ORIENTED_EDGE ( 'NONE', *, *, #2, .F. ) ;
#217 = EDGE_LOOP ( 'NONE', ( #860, #88 ) ) ;
#218 = CARTESIAN_POINT ( 'NONE',  ( 76.86713851998113967, 164.8421105158674891, 9.999999999999985789 ) ) ;
#219 = VECTOR ( 'NONE', #1029, 1000.000000000000227 ) ;
#220 = VECTOR ( 'NONE', #703, 1000.000000000000000 ) ;
#221 = DIRECTION ( 'NONE',  ( 0.4226182617406974429, 0.9063077870366509359, -0.000000000000000000 ) ) ;
#222 = ORIENTED_EDGE ( 'NONE', *, *, #644, .F. ) ;
#223 = EDGE_LOOP ( 'NONE', ( #842, #1166, #1233, #706 ) ) ;
#224 = DIRECTION ( 'NONE',  ( -0.000000000000000000, -0.000000000000000000, -1.000000000000000000 ) ) ;
#225 = AXIS2_PLACEMENT_3D ( 'NONE', #1059, #575, #567 ) ;
#226 = DIRECTION ( 'NONE',  ( -0.9063077870366509359, 0.4226182617406972764, -0.000000000000000000 ) ) ;
#227 = ORIENTED_EDGE ( 'NONE', *, *, #1109, .T. ) ;
#228 = ORIENTED_EDGE ( 'NONE', *, *, #194, .T. ) ;
#229 = ADVANCED_FACE ( 'NONE', ( #1045 ), #357, .T. ) ;
#230 = DIRECTION ( 'NONE',  ( 0.000000000000000000, 0.000000000000000000, 1.000000000000000000 ) ) ;
#231 = CARTESIAN_POINT ( 'NONE',  ( 71.81599281355113362, 157.5591959666548689, 2.499999999999986233 ) ) ;
#232 = DIRECTION ( 'NONE',  ( -0.9063077870366509359, 0.4226182617406972764, -0.000000000000000000 ) ) ;
#233 = EDGE_CURVE ( 'NONE', #20, #777, #614, .T. ) ;
#234 = ORIENTED_EDGE ( 'NONE', *, *, #534, .F. ) ;
#235 = LINE ( 'NONE', #135, #35 ) ;
#236 = CIRCLE ( 'NONE', #504, 6.000000000000005329 ) ;
#237 = CARTESIAN_POINT ( 'NONE',  ( 62.08332126480296154, 136.6874144753178086, -7.000000000000015099 ) ) ;
#238 = VECTOR ( 'NONE', #416, 1000.000000000000227 ) ;
#239 = DIRECTION ( 'NONE',  ( -0.000000000000000000, 0.000000000000000000, 1.000000000000000000 ) ) ;
#240 = CIRCLE ( 'NONE', #1125, 2.500000000000002220 ) ;
#241 = ORIENTED_EDGE ( 'NONE', *, *, #1116, .T. ) ;
#242 = AXIS2_PLACEMENT_3D ( 'NONE', #175, #857, #264 ) ;
#243 = DIRECTION ( 'NONE',  ( 0.000000000000000000, 0.000000000000000000, 1.000000000000000000 ) ) ;
#244 = EDGE_CURVE ( 'NONE', #5, #32, #1105, .T. ) ;
#245 = PLANE ( 'NONE',  #343 ) ;
#246 = PLANE ( 'NONE',  #1186 ) ;
#247 = CC_DESIGN_PERSON_AND_ORGANIZATION_ASSIGNMENT ( #1210, #812, ( #1158 ) ) ;
#248 = VERTEX_POINT ( 'NONE', #84 ) ;
#249 = DIRECTION ( 'NONE',  ( 0.9063077870366509359, -0.4226182617406974429, -0.000000000000000000 ) ) ;
#250 = ADVANCED_FACE ( 'NONE', ( #659 ), #74, .F. ) ;
#251 = CARTESIAN_POINT ( 'NONE',  ( 73.71777499138426037, 161.6375810083198132, -7.000000000000016875 ) ) ;
#252 = FACE_OUTER_BOUND ( 'NONE', #1004, .T. ) ;
#253 = CARTESIAN_POINT ( 'NONE',  ( 71.22542857703346897, 162.7997812281067240, 6.999999999999985789 ) ) ;
#254 = ORIENTED_EDGE ( 'NONE', *, *, #1064, .F. ) ;
#255 = DIRECTION ( 'NONE',  ( -0.000000000000000000, -0.000000000000000000, -1.000000000000000000 ) ) ;
#256 = CYLINDRICAL_SURFACE ( 'NONE', #319, 6.000000000000005329 ) ;
#257 = CARTESIAN_POINT ( 'NONE',  ( 64.80224462591293388, 135.4195596900957526, 6.999999999999988454 ) ) ;
#258 = AXIS2_PLACEMENT_3D ( 'NONE', #550, #275, #747 ) ;
#259 = LOCAL_TIME ( 16, 5, 38.00000000000000000, #823 ) ;
#260 = VERTEX_POINT ( 'NONE', #369 ) ;
#261 = VECTOR ( 'NONE', #753, 1000.000000000000114 ) ;
#262 = CARTESIAN_POINT ( 'NONE',  ( 76.86713851998113967, 164.8421105158674891, 3.499999999999985345 ) ) ;
#263 = CARTESIAN_POINT ( 'NONE',  ( 76.86713851998113967, 164.8421105158674891, -10.00000000000001599 ) ) ;
#264 = DIRECTION ( 'NONE',  ( 1.000000000000000000, 0.000000000000000000, 0.000000000000000000 ) ) ;
#265 = EDGE_CURVE ( 'NONE', #913, #873, #284, .T. ) ;
#266 = CARTESIAN_POINT ( 'NONE',  ( 57.80107300241027701, 134.0111577949460298, -10.00000000000001599 ) ) ;
#267 = VERTEX_POINT ( 'NONE', #277 ) ;
#268 = LINE ( 'NONE', #1043, #527 ) ;
#269 = ORIENTED_EDGE ( 'NONE', *, *, #418, .F. ) ;
#270 = DIRECTION ( 'NONE',  ( -0.000000000000000000, -0.000000000000000000, -1.000000000000000000 ) ) ;
#271 = DIRECTION ( 'NONE',  ( -0.9063077870366509359, 0.4226182617406972764, -0.000000000000000000 ) ) ;
#272 = CARTESIAN_POINT ( 'NONE',  ( 58.65288109731603328, 132.2150301825480767, -10.00000000000001599 ) ) ;
#273 = ORIENTED_EDGE ( 'NONE', *, *, #740, .T. ) ;
#274 = EDGE_CURVE ( 'NONE', #587, #894, #672, .T. ) ;
#275 = DIRECTION ( 'NONE',  ( -0.000000000000000000, -0.000000000000000000, 1.000000000000000000 ) ) ;
#276 = ORIENTED_EDGE ( 'NONE', *, *, #725, .T. ) ;
#277 = CARTESIAN_POINT ( 'NONE',  ( 70.86713851998113967, 164.8421105158674891, 9.999999999999985789 ) ) ;
#278 = FACE_OUTER_BOUND ( 'NONE', #615, .T. ) ;
#279 = AXIS2_PLACEMENT_3D ( 'NONE', #46, #627, #520 ) ;
#280 = ORIENTED_EDGE ( 'NONE', *, *, #566, .F. ) ;
#281 = VECTOR ( 'NONE', #668, 1000.000000000000000 ) ;
#282 = DIRECTION ( 'NONE',  ( 0.000000000000000000, 0.000000000000000000, 1.000000000000000000 ) ) ;
#283 = ORIENTED_EDGE ( 'NONE', *, *, #1198, .F. ) ;
#284 = CIRCLE ( 'NONE', #871, 2.500000000000002220 ) ;
#285 = EDGE_CURVE ( 'NONE', #492, #385, #682, .T. ) ;
#286 = DIRECTION ( 'NONE',  ( -1.000000000000000000, 0.000000000000000000, 0.000000000000000000 ) ) ;
#287 = CARTESIAN_POINT ( 'NONE',  ( 71.22542857703346897, 162.7997812281067240, -3.500000000000015543 ) ) ;
#288 = ORIENTED_EDGE ( 'NONE', *, *, #293, .F. ) ;
#289 = AXIS2_PLACEMENT_3D ( 'NONE', #49, #437, #457 ) ;
#290 = EDGE_LOOP ( 'NONE', ( #96, #273, #900, #1061 ) ) ;
#291 = ADVANCED_FACE ( 'NONE', ( #782 ), #979, .T. ) ;
#292 = DIRECTION ( 'NONE',  ( -0.9063077870366509359, 0.4226182617406972764, -0.000000000000000000 ) ) ;
#293 = EDGE_CURVE ( 'NONE', #1204, #948, #1163, .T. ) ;
#294 = CARTESIAN_POINT ( 'NONE',  ( 74.53491617466107755, 156.2913411814328128, -3.500000000000015099 ) ) ;
#295 = VERTEX_POINT ( 'NONE', #118 ) ;
#296 = DIRECTION ( 'NONE',  ( 0.000000000000000000, 1.000000000000000000, -4.568758655454454689E-17 ) ) ;
#297 = ORIENTED_EDGE ( 'NONE', *, *, #115, .T. ) ;
#298 = CARTESIAN_POINT ( 'NONE',  ( 79.36713851998113967, 164.8421105158674891, -3.500000000000015543 ) ) ;
#299 = DIRECTION ( 'NONE',  ( -0.000000000000000000, -0.000000000000000000, -1.000000000000000000 ) ) ;
#300 = EDGE_LOOP ( 'NONE', ( #561, #721 ) ) ;
#301 = VECTOR ( 'NONE', #1191, 1000.000000000000000 ) ;
#302 = EDGE_LOOP ( 'NONE', ( #935, #419, #50, #518 ) ) ;
#303 = CARTESIAN_POINT ( 'NONE',  ( 61.65288109731604038, 132.2150301825480767, -10.00000000000001599 ) ) ;
#304 = CIRCLE ( 'NONE', #320, 6.000000000000005329 ) ;
#305 = LINE ( 'NONE', #116, #1020 ) ;
#306 = ORIENTED_EDGE ( 'NONE', *, *, #375, .F. ) ;
#307 = EDGE_CURVE ( 'NONE', #186, #1084, #901, .T. ) ;
#308 = ORIENTED_EDGE ( 'NONE', *, *, #1192, .F. ) ;
#309 = FACE_OUTER_BOUND ( 'NONE', #466, .T. ) ;
#310 = CARTESIAN_POINT ( 'NONE',  ( 73.71777499138426037, 161.6375810083198132, -3.500000000000015543 ) ) ;
#311 = ORIENTED_EDGE ( 'NONE', *, *, #513, .F. ) ;
#312 = DIRECTION ( 'NONE',  ( -0.000000000000000000, 0.000000000000000000, 1.000000000000000000 ) ) ;
#313 = ORIENTED_EDGE ( 'NONE', *, *, #274, .T. ) ;
#314 = FACE_OUTER_BOUND ( 'NONE', #855, .T. ) ;
#315 = DIRECTION ( 'NONE',  ( -0.000000000000000000, -0.000000000000000000, -1.000000000000000000 ) ) ;
#316 = VERTEX_POINT ( 'NONE', #1070 ) ;
#317 = VERTEX_POINT ( 'NONE', #486 ) ;
#318 = DIRECTION ( 'NONE',  ( -0.4226182617406973319, -0.9063077870366510469, 0.000000000000000000 ) ) ;
#319 = AXIS2_PLACEMENT_3D ( 'NONE', #553, #945, #750 ) ;
#320 = AXIS2_PLACEMENT_3D ( 'NONE', #1060, #390, #188 ) ;
#321 = ADVANCED_FACE ( 'NONE', ( #874, #1189, #1266 ), #407, .F. ) ;
#322 = CARTESIAN_POINT ( 'NONE',  ( 57.80107300241027701, 134.0111577949460298, 9.999999999999985789 ) ) ;
#323 = ORIENTED_EDGE ( 'NONE', *, *, #1064, .T. ) ;
#324 = ORIENTED_EDGE ( 'NONE', *, *, #970, .F. ) ;
#325 = PRODUCT_RELATED_PRODUCT_CATEGORY ( 'detail', '', ( #193 ) ) ;
#326 = EDGE_CURVE ( 'NONE', #199, #485, #6, .T. ) ;
#327 = APPLICATION_CONTEXT ( 'configuration controlled 3d designs of mechanical parts and assemblies' ) ;
#328 = CARTESIAN_POINT ( 'NONE',  ( 74.36713851998113967, 164.8421105158674891, 9.999999999999985789 ) ) ;
#329 = DIRECTION ( 'NONE',  ( 1.000000000000000000, 0.000000000000000000, -0.000000000000000000 ) ) ;
#330 = DIRECTION ( 'NONE',  ( -0.9063077870366509359, 0.4226182617406972764, -0.000000000000000000 ) ) ;
#331 = VERTEX_POINT ( 'NONE', #191 ) ;
#332 = DIRECTION ( 'NONE',  ( 1.000000000000000000, 0.000000000000000000, 0.000000000000000000 ) ) ;
#333 = CYLINDRICAL_SURFACE ( 'NONE', #1180, 1.000000000000002220 ) ;
#334 = DIRECTION ( 'NONE',  ( 0.4226182617406974429, 0.9063077870366509359, -1.008213483499440650E-16 ) ) ;
#335 = EDGE_LOOP ( 'NONE', ( #1011, #493, #397, #779 ) ) ;
#336 = CARTESIAN_POINT ( 'NONE',  ( 75.07723667193923234, 161.0036536157087994, -3.500000000000015543 ) ) ;
#337 = DATE_AND_TIME ( #929, #259 ) ;
#338 = ADVANCED_FACE ( 'NONE', ( #386 ), #778, .F. ) ;
#339 = CIRCLE ( 'NONE', #54, 2.500000000000002220 ) ;
#340 = LINE ( 'NONE', #435, #402 ) ;
#341 = AXIS2_PLACEMENT_3D ( 'NONE', #496, #789, #1258 ) ;
#342 = FACE_OUTER_BOUND ( 'NONE', #569, .T. ) ;
#343 = AXIS2_PLACEMENT_3D ( 'NONE', #1217, #840, #462 ) ;
#344 = ORIENTED_EDGE ( 'NONE', *, *, #513, .T. ) ;
#345 = LINE ( 'NONE', #148, #461 ) ;
#346 = VECTOR ( 'NONE', #1238, 1000.000000000000227 ) ;
#347 = DIRECTION ( 'NONE',  ( 0.4226182617406971653, 0.9063077870366510469, 0.000000000000000000 ) ) ;
#348 = DIRECTION ( 'NONE',  ( 1.000000000000000000, 0.000000000000000000, 0.000000000000000000 ) ) ;
#349 = DIRECTION ( 'NONE',  ( -0.000000000000000000, -0.000000000000000000, -1.000000000000000000 ) ) ;
#350 = ORIENTED_EDGE ( 'NONE', *, *, #1012, .F. ) ;
#351 = CARTESIAN_POINT ( 'NONE',  ( 61.65288109731604038, 132.2150301825480767, -10.00000000000001599 ) ) ;
#352 = DIRECTION ( 'NONE',  ( -0.4226182617406972764, -0.9063077870366510469, 0.000000000000000000 ) ) ;
#353 = FACE_OUTER_BOUND ( 'NONE', #189, .T. ) ;
#354 = ORIENTED_EDGE ( 'NONE', *, *, #603, .F. ) ;
#355 =( LENGTH_UNIT ( ) NAMED_UNIT ( * ) SI_UNIT ( .MILLI., .METRE. ) );
#356 = CARTESIAN_POINT ( 'NONE',  ( 70.86713851998113967, 164.8421105158674891, 9.999999999999985789 ) ) ;
#357 = CYLINDRICAL_SURFACE ( 'NONE', #1106, 6.000000000000005329 ) ;
#358 = VECTOR ( 'NONE', #1049, 1000.000000000000227 ) ;
#359 = LOCAL_TIME ( 16, 5, 38.00000000000000000, #475 ) ;
#360 = ORIENTED_EDGE ( 'NONE', *, *, #1109, .F. ) ;
#361 = CIRCLE ( 'NONE', #673, 6.000000000000005329 ) ;
#362 = DIRECTION ( 'NONE',  ( 0.000000000000000000, 0.000000000000000000, 1.000000000000000000 ) ) ;
#363 = FACE_OUTER_BOUND ( 'NONE', #1221, .T. ) ;
#364 = EDGE_CURVE ( 'NONE', #331, #28, #589, .T. ) ;
#365 = CARTESIAN_POINT ( 'NONE',  ( 78.92904476684499571, 159.2075260033107895, 9.999999999999985789 ) ) ;
#366 = ORIENTED_EDGE ( 'NONE', *, *, #780, .F. ) ;
#367 = APPLICATION_PROTOCOL_DEFINITION ( 'international standard', 'config_control_design', 1994, #327 ) ;
#368 = ORIENTED_EDGE ( 'NONE', *, *, #552, .F. ) ;
#369 = CARTESIAN_POINT ( 'NONE',  ( 58.65288109731603328, 132.2150301825480767, -10.00000000000001599 ) ) ;
#370 = ORIENTED_EDGE ( 'NONE', *, *, #213, .T. ) ;
#371 = DIRECTION ( 'NONE',  ( -0.000000000000000000, -0.000000000000000000, 1.000000000000000000 ) ) ;
#372 = EDGE_CURVE ( 'NONE', #472, #1171, #652, .T. ) ;
#373 = DIRECTION ( 'NONE',  ( 0.9063077870366510469, -0.4226182617406973319, 0.000000000000000000 ) ) ;
#374 = ADVANCED_FACE ( 'NONE', ( #1083 ), #112, .T. ) ;
#375 = EDGE_CURVE ( 'NONE', #577, #587, #465, .T. ) ;
#376 = DIRECTION ( 'NONE',  ( -0.000000000000000000, -0.000000000000000000, -1.000000000000000000 ) ) ;
#377 = AXIS2_PLACEMENT_3D ( 'NONE', #263, #736, #642 ) ;
#378 = ORIENTED_EDGE ( 'NONE', *, *, #1192, .T. ) ;
#379 = ORIENTED_EDGE ( 'NONE', *, *, #460, .F. ) ;
#380 = AXIS2_PLACEMENT_3D ( 'NONE', #183, #299, #1181 ) ;
#381 = EDGE_CURVE ( 'NONE', #267, #331, #713, .T. ) ;
#382 = LINE ( 'NONE', #69, #797 ) ;
#383 = AXIS2_PLACEMENT_3D ( 'NONE', #1144, #89, #1050 ) ;
#384 = CARTESIAN_POINT ( 'NONE',  ( 74.11229791292038271, 155.3850333943961459, 2.499999999999979128 ) ) ;
#385 = VERTEX_POINT ( 'NONE', #70 ) ;
#386 = FACE_OUTER_BOUND ( 'NONE', #1074, .T. ) ;
#387 = VERTEX_POINT ( 'NONE', #451 ) ;
#388 = CARTESIAN_POINT ( 'NONE',  ( 71.39337455181042458, 156.6528881796182304, 2.499999999999979128 ) ) ;
#389 = DIRECTION ( 'NONE',  ( 1.000000000000000000, 0.000000000000000000, 0.000000000000000000 ) ) ;
#390 = DIRECTION ( 'NONE',  ( -0.000000000000000000, 0.000000000000000000, 1.000000000000000000 ) ) ;
#391 = VERTEX_POINT ( 'NONE', #153 ) ;
#392 = CARTESIAN_POINT ( 'NONE',  ( 61.65288109731604038, 132.2150301825480767, -10.00000000000001599 ) ) ;
#393 = ORIENTED_EDGE ( 'NONE', *, *, #1139, .F. ) ;
#394 = LINE ( 'NONE', #8, #671 ) ;
#395 = EDGE_CURVE ( 'NONE', #1267, #147, #934, .T. ) ;
#396 = CARTESIAN_POINT ( 'NONE',  ( 92.47622918304983841, 146.8217916093027782, -2.500000000000015543 ) ) ;
#397 = ORIENTED_EDGE ( 'NONE', *, *, #1236, .T. ) ;
#398 = CIRCLE ( 'NONE', #279, 3.000000000000002665 ) ;
#399 = ORIENTED_EDGE ( 'NONE', *, *, #244, .T. ) ;
#400 = DIRECTION ( 'NONE',  ( -0.000000000000000000, 0.000000000000000000, 1.000000000000000000 ) ) ;
#401 = VECTOR ( 'NONE', #632, 1000.000000000000114 ) ;
#402 = VECTOR ( 'NONE', #72, 1000.000000000000000 ) ;
#403 = CARTESIAN_POINT ( 'NONE',  ( 78.92904476684499571, 159.2075260033107895, 9.999999999999985789 ) ) ;
#404 = ORIENTED_EDGE ( 'NONE', *, *, #829, .F. ) ;
#405 = EDGE_CURVE ( 'NONE', #773, #1204, #361, .T. ) ;
#406 = CIRCLE ( 'NONE', #225, 1.000000000000002220 ) ;
#407 = PLANE ( 'NONE',  #568 ) ;
#408 = ORIENTED_EDGE ( 'NONE', *, *, #436, .F. ) ;
#409 = CARTESIAN_POINT ( 'NONE',  ( 74.36713851998113967, 164.8421105158674891, 3.499999999999985345 ) ) ;
#410 = CARTESIAN_POINT ( 'NONE',  ( 62.08332126480296154, 136.6874144753178086, -7.000000000000015099 ) ) ;
#411 = ORIENTED_EDGE ( 'NONE', *, *, #326, .F. ) ;
#412 = CARTESIAN_POINT ( 'NONE',  ( 62.08332126480296154, 136.6874144753178086, -7.000000000000015099 ) ) ;
#413 = ORIENTED_EDGE ( 'NONE', *, *, #1156, .F. ) ;
#414 = PLANE ( 'NONE',  #690 ) ;
#415 = EDGE_CURVE ( 'NONE', #391, #1005, #941, .T. ) ;
#416 = DIRECTION ( 'NONE',  ( -0.4226182617406972764, -0.9063077870366509359, 5.041067417497202019E-17 ) ) ;
#417 = ORIENTED_EDGE ( 'NONE', *, *, #829, .T. ) ;
#418 = EDGE_CURVE ( 'NONE', #1076, #28, #1133, .T. ) ;
#419 = ORIENTED_EDGE ( 'NONE', *, *, #1229, .T. ) ;
#420 = CARTESIAN_POINT ( 'NONE',  ( 65.50468919222180375, 130.4189025701500952, 9.999999999999985789 ) ) ;
#421 = CALENDAR_DATE ( 2026, 5, 8 ) ;
#422 = CIRCLE ( 'NONE', #200, 6.000000000000005329 ) ;
#423 = EDGE_CURVE ( 'NONE', #771, #601, #1239, .T. ) ;
#424 = AXIS2_PLACEMENT_3D ( 'NONE', #998, #521, #1107 ) ;
#425 = CARTESIAN_POINT ( 'NONE',  ( 59.59097485045217013, 137.8496146951047479, -7.000000000000015099 ) ) ;
#426 = CARTESIAN_POINT ( 'NONE',  ( 76.86713851998113967, 164.8421105158674891, 9.999999999999985789 ) ) ;
#427 = EDGE_LOOP ( 'NONE', ( #154, #228, #695, #793 ) ) ;
#428 = DIRECTION ( 'NONE',  ( 0.000000000000000000, 0.000000000000000000, 1.000000000000000000 ) ) ;
#429 = DIRECTION ( 'NONE',  ( -0.9063077870366509359, 0.4226182617406974429, 0.000000000000000000 ) ) ;
#430 = DIRECTION ( 'NONE',  ( 0.9063077870366510469, -0.4226182617406973319, 0.000000000000000000 ) ) ;
#431 = EDGE_CURVE ( 'NONE', #894, #20, #1146, .T. ) ;
#432 = EDGE_LOOP ( 'NONE', ( #360, #344, #955, #680, #1227, #826, #785, #663 ) ) ;
#433 = CARTESIAN_POINT ( 'NONE',  ( 76.86713851998113967, 164.8421105158674891, -10.00000000000001599 ) ) ;
#434 = APPROVAL_ROLE ( '' ) ;
#435 = CARTESIAN_POINT ( 'NONE',  ( 59.59097485045217013, 137.8496146951047479, 9.999999999999985789 ) ) ;
#436 = EDGE_CURVE ( 'NONE', #260, #295, #760, .T. ) ;
#437 = DIRECTION ( 'NONE',  ( -0.000000000000000000, 0.000000000000000000, 1.000000000000000000 ) ) ;
#438 = VERTEX_POINT ( 'NONE', #968 ) ;
#439 = DIRECTION ( 'NONE',  ( -0.4226182617406971653, -0.9063077870366510469, 0.000000000000000000 ) ) ;
#440 = COORDINATED_UNIVERSAL_TIME_OFFSET ( 8, 0, .AHEAD. ) ;
#441 = CIRCLE ( 'NONE', #1178, 2.500000000000002220 ) ;
#442 = LINE ( 'NONE', #932, #892 ) ;
#443 = VECTOR ( 'NONE', #698, 1000.000000000000000 ) ;
#444 = DIRECTION ( 'NONE',  ( -0.000000000000000000, 0.000000000000000000, 1.000000000000000000 ) ) ;
#445 = DIRECTION ( 'NONE',  ( -0.000000000000000000, 0.000000000000000000, 1.000000000000000000 ) ) ;
#446 = ORIENTED_EDGE ( 'NONE', *, *, #719, .T. ) ;
#447 = CARTESIAN_POINT ( 'NONE',  ( 67.29459104026371108, 134.2573594703088418, -10.00000000000001599 ) ) ;
#448 = COORDINATED_UNIVERSAL_TIME_OFFSET ( 8, 0, .AHEAD. ) ;
#449 = LINE ( 'NONE', #1034, #997 ) ;
#450 = DIRECTION ( 'NONE',  ( 0.000000000000000000, -0.000000000000000000, -1.000000000000000000 ) ) ;
#451 = CARTESIAN_POINT ( 'NONE',  ( 70.86713851998113967, 164.8421105158674891, -10.00000000000001599 ) ) ;
#452 = ORIENTED_EDGE ( 'NONE', *, *, #115, .F. ) ;
#453 = LINE ( 'NONE', #178, #727 ) ;
#454 = PERSON_AND_ORGANIZATION_ROLE ( 'design_supplier' ) ;
#455 = ADVANCED_FACE ( 'NONE', ( #1264 ), #90, .F. ) ;
#456 = CARTESIAN_POINT ( 'NONE',  ( 79.36713851998113967, 164.8421105158674891, -10.00000000000001599 ) ) ;
#457 = DIRECTION ( 'NONE',  ( 1.000000000000000000, 0.000000000000000000, 0.000000000000000000 ) ) ;
#458 = VERTEX_POINT ( 'NONE', #585 ) ;
#459 = DIRECTION ( 'NONE',  ( -0.000000000000000000, -0.000000000000000000, 1.000000000000000000 ) ) ;
#460 = EDGE_CURVE ( 'NONE', #438, #1171, #210, .T. ) ;
#461 = VECTOR ( 'NONE', #1228, 1000.000000000000000 ) ;
#462 = DIRECTION ( 'NONE',  ( 0.4226182617406974429, 0.9063077870366508249, 0.000000000000000000 ) ) ;
#463 = CARTESIAN_POINT ( 'NONE',  ( 76.86713851998113967, 164.8421105158674891, 9.999999999999985789 ) ) ;
#464 = AXIS2_PLACEMENT_3D ( 'NONE', #481, #459, #163 ) ;
#465 = LINE ( 'NONE', #1247, #610 ) ;
#466 = EDGE_LOOP ( 'NONE', ( #984, #311, #1182, #805, #378 ) ) ;
#467 = AXIS2_PLACEMENT_3D ( 'NONE', #498, #792, #75 ) ;
#468 = DIRECTION ( 'NONE',  ( 0.000000000000000000, 0.000000000000000000, 1.000000000000000000 ) ) ;
#469 = ORIENTED_EDGE ( 'NONE', *, *, #274, .F. ) ;
#470 = VECTOR ( 'NONE', #1138, 1000.000000000000114 ) ;
#471 = CARTESIAN_POINT ( 'NONE',  ( 79.36713851998113967, 164.8421105158674891, -10.00000000000001599 ) ) ;
#472 = VERTEX_POINT ( 'NONE', #1169 ) ;
#473 = ADVANCED_FACE ( 'NONE', ( #1073 ), #1068, .T. ) ;
#474 = DIRECTION ( 'NONE',  ( 1.000000000000000000, 0.000000000000000000, 0.000000000000000000 ) ) ;
#475 = COORDINATED_UNIVERSAL_TIME_OFFSET ( 8, 0, .AHEAD. ) ;
#476 = CC_DESIGN_DATE_AND_TIME_ASSIGNMENT ( #677, #963, ( #588 ) ) ;
#477 = PLANE ( 'NONE',  #657 ) ;
#478 = DIRECTION ( 'NONE',  ( 0.000000000000000000, 0.000000000000000000, 1.000000000000000000 ) ) ;
#479 = ORIENTED_EDGE ( 'NONE', *, *, #839, .F. ) ;
#480 = EDGE_CURVE ( 'NONE', #485, #458, #1087, .T. ) ;
#481 = CARTESIAN_POINT ( 'NONE',  ( 76.86713851998113967, 164.8421105158674891, -10.00000000000001599 ) ) ;
#482 = CARTESIAN_POINT ( 'NONE',  ( 82.86713851998115388, 164.8421105158674891, 3.499999999999985345 ) ) ;
#483 = DIRECTION ( 'NONE',  ( 0.4226182617406973319, 0.9063077870366509359, -0.000000000000000000 ) ) ;
#484 = VECTOR ( 'NONE', #734, 1000.000000000000000 ) ;
#485 = VERTEX_POINT ( 'NONE', #674 ) ;
#486 = CARTESIAN_POINT ( 'NONE',  ( 64.65288109731604038, 132.2150301825480767, 9.999999999999985789 ) ) ;
#487 = VECTOR ( 'NONE', #784, 1000.000000000000227 ) ;
#488 = DIRECTION ( 'NONE',  ( -0.9063077870366509359, 0.4226182617406973319, 0.000000000000000000 ) ) ;
#489 = CARTESIAN_POINT ( 'NONE',  ( 61.65288109731604038, 132.2150301825480767, 9.999999999999985789 ) ) ;
#490 = VECTOR ( 'NONE', #559, 1000.000000000000000 ) ;
#491 = CARTESIAN_POINT ( 'NONE',  ( 73.71777499138426037, 161.6375810083198132, -7.000000000000016875 ) ) ;
#492 = VERTEX_POINT ( 'NONE', #384 ) ;
#493 = ORIENTED_EDGE ( 'NONE', *, *, #436, .T. ) ;
#494 = ADVANCED_FACE ( 'NONE', ( #879 ), #4, .F. ) ;
#495 = CARTESIAN_POINT ( 'NONE',  ( 78.92904476684500992, 159.2075260033107895, -3.500000000000015543 ) ) ;
#496 = CARTESIAN_POINT ( 'NONE',  ( 76.43669835249423272, 160.3697262230977287, -7.000000000000016875 ) ) ;
#497 = EDGE_LOOP ( 'NONE', ( #93, #969 ) ) ;
#498 = CARTESIAN_POINT ( 'NONE',  ( 76.43669835249423272, 160.3697262230977287, -7.000000000000016875 ) ) ;
#499 = ORIENTED_EDGE ( 'NONE', *, *, #1198, .T. ) ;
#500 = LINE ( 'NONE', #388, #1037 ) ;
#501 = ADVANCED_FACE ( 'NONE', ( #599 ), #1159, .T. ) ;
#502 = DIRECTION ( 'NONE',  ( -0.000000000000000000, -0.000000000000000000, -1.000000000000000000 ) ) ;
#503 = ORIENTED_EDGE ( 'NONE', *, *, #460, .T. ) ;
#504 = AXIS2_PLACEMENT_3D ( 'NONE', #303, #992, #687 ) ;
#505 = CARTESIAN_POINT ( 'NONE',  ( 64.80224462591293388, 135.4195596900957526, 6.999999999999988454 ) ) ;
#506 = EDGE_LOOP ( 'NONE', ( #368, #1100 ) ) ;
#507 = DIRECTION ( 'NONE',  ( 0.4226182617406973319, 0.9063077870366509359, -0.000000000000000000 ) ) ;
#508 = VECTOR ( 'NONE', #376, 1000.000000000000000 ) ;
#509 = DIRECTION ( 'NONE',  ( -0.4226182617406974429, -0.9063077870366509359, 5.041067417497203252E-17 ) ) ;
#510 = EDGE_LOOP ( 'NONE', ( #1046, #241, #600, #399, #1094, #107, #1265, #197 ) ) ;
#511 = VECTOR ( 'NONE', #536, 1000.000000000000000 ) ;
#512 = ORIENTED_EDGE ( 'NONE', *, *, #198, .T. ) ;
#513 = EDGE_CURVE ( 'NONE', #172, #1267, #304, .T. ) ;
#514 = CARTESIAN_POINT ( 'NONE',  ( 59.59097485045217013, 137.8496146951047479, 9.999999999999985789 ) ) ;
#515 = EDGE_CURVE ( 'NONE', #125, #316, #580, .T. ) ;
#516 = CARTESIAN_POINT ( 'NONE',  ( 64.80224462591293388, 135.4195596900957526, 6.999999999999988454 ) ) ;
#517 = ORIENTED_EDGE ( 'NONE', *, *, #152, .T. ) ;
#518 = ORIENTED_EDGE ( 'NONE', *, *, #152, .F. ) ;
#519 = EDGE_CURVE ( 'NONE', #1001, #5, #1244, .T. ) ;
#520 = DIRECTION ( 'NONE',  ( 1.000000000000000000, 0.000000000000000000, 0.000000000000000000 ) ) ;
#521 = DIRECTION ( 'NONE',  ( 0.000000000000000000, 0.000000000000000000, 1.000000000000000000 ) ) ;
#522 = FACE_BOUND ( 'NONE', #859, .T. ) ;
#523 = APPLICATION_CONTEXT ( 'configuration controlled 3d designs of mechanical parts and assemblies' ) ;
#524 = ORIENTED_EDGE ( 'NONE', *, *, #423, .T. ) ;
#525 = LINE ( 'NONE', #717, #606 ) ;
#526 = DATE_AND_TIME ( #136, #202 ) ;
#527 = VECTOR ( 'NONE', #1149, 1000.000000000000000 ) ;
#528 = CIRCLE ( 'NONE', #139, 6.000000000000005329 ) ;
#529 = AXIS2_PLACEMENT_3D ( 'NONE', #1173, #478, #205 ) ;
#530 = CARTESIAN_POINT ( 'NONE',  ( 76.86713851998113967, 164.8421105158674891, -10.00000000000001599 ) ) ;
#531 = DIRECTION ( 'NONE',  ( 0.4226182617406972764, 0.9063077870366509359, 0.000000000000000000 ) ) ;
#532 = ORIENTED_EDGE ( 'NONE', *, *, #60, .F. ) ;
#533 = DIRECTION ( 'NONE',  ( 1.000000000000000000, 0.000000000000000000, 0.000000000000000000 ) ) ;
#534 = EDGE_CURVE ( 'NONE', #773, #777, #305, .T. ) ;
#535 = DIRECTION ( 'NONE',  ( -0.9063077870366509359, 0.4226182617406972764, -0.000000000000000000 ) ) ;
#536 = DIRECTION ( 'NONE',  ( -0.000000000000000000, -0.000000000000000000, -1.000000000000000000 ) ) ;
#537 = ORIENTED_EDGE ( 'NONE', *, *, #190, .T. ) ;
#538 = LINE ( 'NONE', #1123, #956 ) ;
#539 = DIRECTION ( 'NONE',  ( 0.9063077870366510469, -0.4226182617406971653, 0.000000000000000000 ) ) ;
#540 = CYLINDRICAL_SURFACE ( 'NONE', #920, 5.999999999999998224 ) ;
#541 = VERTEX_POINT ( 'NONE', #689 ) ;
#542 = DIRECTION ( 'NONE',  ( 0.9063077870366509359, -0.4226182617406974429, -0.000000000000000000 ) ) ;
#543 = CIRCLE ( 'NONE', #1260, 3.000000000000002665 ) ;
#544 = CIRCLE ( 'NONE', #1261, 3.000000000000002665 ) ;
#545 = DIRECTION ( 'NONE',  ( -0.9063077870366509359, 0.4226182617406973319, -0.000000000000000000 ) ) ;
#546 = CIRCLE ( 'NONE', #424, 6.000000000000005329 ) ;
#547 = DIRECTION ( 'NONE',  ( -0.000000000000000000, -0.000000000000000000, -1.000000000000000000 ) ) ;
#548 = CARTESIAN_POINT ( 'NONE',  ( 82.86713851998115388, 164.8421105158674891, 9.999999999999985789 ) ) ;
#549 = ORIENTED_EDGE ( 'NONE', *, *, #759, .F. ) ;
#550 = CARTESIAN_POINT ( 'NONE',  ( 76.86713851998113967, 164.8421105158674891, -10.00000000000001599 ) ) ;
#551 = EDGE_CURVE ( 'NONE', #927, #1076, #679, .T. ) ;
#552 = EDGE_CURVE ( 'NONE', #999, #962, #1222, .T. ) ;
#553 = CARTESIAN_POINT ( 'NONE',  ( 76.86713851998113967, 164.8421105158674891, 9.999999999999985789 ) ) ;
#554 = ADVANCED_FACE ( 'NONE', ( #872 ), #974, .F. ) ;
#555 = CARTESIAN_POINT ( 'NONE',  ( 60.29341941676106131, 132.8489575751590905, -1.550074588595108624E-14 ) ) ;
#556 = ORIENTED_EDGE ( 'NONE', *, *, #418, .T. ) ;
#557 = CALENDAR_DATE ( 2026, 5, 8 ) ;
#558 = CARTESIAN_POINT ( 'NONE',  ( 57.80107300241027701, 134.0111577949460298, 9.999999999999985789 ) ) ;
#559 = DIRECTION ( 'NONE',  ( -0.000000000000000000, -0.000000000000000000, 1.000000000000000000 ) ) ;
#560 = DIRECTION ( 'NONE',  ( 1.000000000000000000, 0.000000000000000000, 0.000000000000000000 ) ) ;
#561 = ORIENTED_EDGE ( 'NONE', *, *, #866, .T. ) ;
#562 = PERSON_AND_ORGANIZATION ( #688, #1220 ) ;
#563 = ORIENTED_EDGE ( 'NONE', *, *, #21, .F. ) ;
#564 = VECTOR ( 'NONE', #1052, 1000.000000000000000 ) ;
#565 = DIRECTION ( 'NONE',  ( 0.000000000000000000, 0.000000000000000000, 1.000000000000000000 ) ) ;
#566 = EDGE_CURVE ( 'NONE', #172, #1081, #95, .T. ) ;
#567 = DIRECTION ( 'NONE',  ( -0.4226182617406972208, -0.9063077870366511579, 0.000000000000000000 ) ) ;
#568 = AXIS2_PLACEMENT_3D ( 'NONE', #582, #312, #983 ) ;
#569 = EDGE_LOOP ( 'NONE', ( #404, #847, #212, #71 ) ) ;
#570 = VECTOR ( 'NONE', #270, 1000.000000000000000 ) ;
#571 = CC_DESIGN_PERSON_AND_ORGANIZATION_ASSIGNMENT ( #742, #87, ( #588 ) ) ;
#572 = LINE ( 'NONE', #92, #281 ) ;
#573 = ORIENTED_EDGE ( 'NONE', *, *, #480, .F. ) ;
#574 = CLOSED_SHELL ( 'NONE', ( #250, #455, #648, #24, #783, #108, #1183, #173, #229, #1028, #83, #1096, #670, #818, #73, #832, #883, #692, #501, #67, #321, #1249, #160, #9, #926, #613, #991, #338, #554, #664, #494, #156, #473, #876, #597, #291, #374, #743 ) ) ;
#575 = DIRECTION ( 'NONE',  ( 0.9063077870366509359, -0.4226182617406972208, -0.000000000000000000 ) ) ;
#576 = CARTESIAN_POINT ( 'NONE',  ( 76.86713851998113967, 164.8421105158674891, 3.499999999999985345 ) ) ;
#577 = VERTEX_POINT ( 'NONE', #287 ) ;
#578 = VERTEX_POINT ( 'NONE', #294 ) ;
#579 = DIRECTION ( 'NONE',  ( -0.000000000000000000, -0.000000000000000000, -1.000000000000000000 ) ) ;
#580 = LINE ( 'NONE', #396, #487 ) ;
#581 = ORIENTED_EDGE ( 'NONE', *, *, #423, .F. ) ;
#582 = CARTESIAN_POINT ( 'NONE',  ( 61.65288109731604038, 132.2150301825480767, -10.00000000000001599 ) ) ;
#583 = ORIENTED_EDGE ( 'NONE', *, *, #603, .T. ) ;
#584 = DIRECTION ( 'NONE',  ( -0.000000000000000000, -0.000000000000000000, -1.000000000000000000 ) ) ;
#585 = CARTESIAN_POINT ( 'NONE',  ( 73.71777499138426037, 161.6375810083198132, 3.499999999999985345 ) ) ;
#586 = CIRCLE ( 'NONE', #76, 2.500000000000002220 ) ;
#587 = VERTEX_POINT ( 'NONE', #683 ) ;
#588 = SECURITY_CLASSIFICATION ( '', '', #164 ) ;
#589 = LINE ( 'NONE', #989, #162 ) ;
#590 = ORIENTED_EDGE ( 'NONE', *, *, #515, .F. ) ;
#591 = AXIS2_PLACEMENT_3D ( 'NONE', #530, #1009, #123 ) ;
#592 = DIRECTION ( 'NONE',  ( 0.9063077870366509359, -0.4226182617406974429, -0.000000000000000000 ) ) ;
#593 = VECTOR ( 'NONE', #232, 1000.000000000000227 ) ;
#594 = DIRECTION ( 'NONE',  ( -0.9063077870366509359, 0.4226182617406973319, 0.000000000000000000 ) ) ;
#595 = ORIENTED_EDGE ( 'NONE', *, *, #395, .T. ) ;
#596 = ORIENTED_EDGE ( 'NONE', *, *, #891, .T. ) ;
#597 = ADVANCED_FACE ( 'NONE', ( #278 ), #196, .T. ) ;
#598 = CARTESIAN_POINT ( 'NONE',  ( 64.80224462591293388, 135.4195596900957526, -7.000000000000015099 ) ) ;
#599 = FACE_OUTER_BOUND ( 'NONE', #975, .T. ) ;
#600 = ORIENTED_EDGE ( 'NONE', *, *, #519, .T. ) ;
#601 = VERTEX_POINT ( 'NONE', #132 ) ;
#602 = DIRECTION ( 'NONE',  ( 0.9063077870366509359, -0.4226182617406972208, -0.000000000000000000 ) ) ;
#603 = EDGE_CURVE ( 'NONE', #709, #199, #708, .T. ) ;
#604 = CARTESIAN_POINT ( 'NONE',  ( 92.89884744479054746, 147.7280993963394451, -2.500000000000015543 ) ) ;
#605 = ORIENTED_EDGE ( 'NONE', *, *, #480, .T. ) ;
#606 = VECTOR ( 'NONE', #907, 1000.000000000000114 ) ;
#607 = ORIENTED_EDGE ( 'NONE', *, *, #957, .T. ) ;
#608 = EDGE_CURVE ( 'NONE', #1005, #1171, #1211, .T. ) ;
#609 = CARTESIAN_POINT ( 'NONE',  ( 74.53491617466107755, 156.2913411814328128, 2.499999999999986233 ) ) ;
#610 = VECTOR ( 'NONE', #765, 1000.000000000000000 ) ;
#611 = LINE ( 'NONE', #1015, #238 ) ;
#612 = ORIENTED_EDGE ( 'NONE', *, *, #431, .T. ) ;
#613 = ADVANCED_FACE ( 'NONE', ( #819 ), #333, .F. ) ;
#614 = CIRCLE ( 'NONE', #383, 6.000000000000005329 ) ;
#615 = EDGE_LOOP ( 'NONE', ( #55, #1129, #1254, #803 ) ) ;
#616 = CARTESIAN_POINT ( 'NONE',  ( 92.47622918304983841, 146.8217916093027782, 2.499999999999979128 ) ) ;
#617 = EDGE_CURVE ( 'NONE', #921, #177, #622, .T. ) ;
#618 = LINE ( 'NONE', #48, #631 ) ;
#619 = EDGE_LOOP ( 'NONE', ( #1088, #524, #711, #370, #1018, #129, #117, #308 ) ) ;
#620 = ORIENTED_EDGE ( 'NONE', *, *, #608, .T. ) ;
#621 = DIRECTION ( 'NONE',  ( -0.000000000000000000, -0.000000000000000000, -1.000000000000000000 ) ) ;
#622 = LINE ( 'NONE', #43, #220 ) ;
#623 = CARTESIAN_POINT ( 'NONE',  ( 61.65288109731604038, 132.2150301825480767, 9.999999999999985789 ) ) ;
#624 = ORIENTED_EDGE ( 'NONE', *, *, #685, .F. ) ;
#625 = EDGE_CURVE ( 'NONE', #541, #799, #546, .T. ) ;
#626 = CIRCLE ( 'NONE', #767, 2.500000000000002220 ) ;
#627 = DIRECTION ( 'NONE',  ( 0.000000000000000000, 0.000000000000000000, 1.000000000000000000 ) ) ;
#628 = PERSON_AND_ORGANIZATION ( #688, #1220 ) ;
#629 =( GEOMETRIC_REPRESENTATION_CONTEXT ( 3 ) GLOBAL_UNCERTAINTY_ASSIGNED_CONTEXT ( ( #931 ) ) GLOBAL_UNIT_ASSIGNED_CONTEXT ( ( #355, #185, #1062 ) ) REPRESENTATION_CONTEXT ( 'NONE', 'WORKASPACE' ) );
#630 = AXIS2_PLACEMENT_3D ( 'NONE', #904, #36, #718 ) ;
#631 = VECTOR ( 'NONE', #509, 1000.000000000000000 ) ;
#632 = DIRECTION ( 'NONE',  ( -0.9063077870366509359, 0.4226182617406973319, -0.000000000000000000 ) ) ;
#633 = DIRECTION ( 'NONE',  ( -1.000000000000000000, 0.000000000000000000, 0.000000000000000000 ) ) ;
#634 = ORIENTED_EDGE ( 'NONE', *, *, #654, .T. ) ;
#635 = AXIS2_PLACEMENT_3D ( 'NONE', #933, #239, #1225 ) ;
#636 = LINE ( 'NONE', #1026, #1119 ) ;
#637 = EDGE_CURVE ( 'NONE', #177, #186, #618, .T. ) ;
#638 = FACE_OUTER_BOUND ( 'NONE', #896, .T. ) ;
#639 = CARTESIAN_POINT ( 'NONE',  ( 59.59097485045217013, 137.8496146951047479, -7.000000000000015099 ) ) ;
#640 = VERTEX_POINT ( 'NONE', #310 ) ;
#641 = CARTESIAN_POINT ( 'NONE',  ( 71.81599281355113362, 157.5591959666548973, 3.499999999999988010 ) ) ;
#642 = DIRECTION ( 'NONE',  ( 1.000000000000000000, 0.000000000000000000, 0.000000000000000000 ) ) ;
#643 = CARTESIAN_POINT ( 'NONE',  ( 71.22542857703346897, 162.7997812281067240, 6.999999999999985789 ) ) ;
#644 = EDGE_CURVE ( 'NONE', #746, #709, #611, .T. ) ;
#645 = ORIENTED_EDGE ( 'NONE', *, *, #285, .F. ) ;
#646 = LINE ( 'NONE', #1048, #564 ) ;
#647 = CC_DESIGN_PERSON_AND_ORGANIZATION_ASSIGNMENT ( #1027, #149, ( #1201 ) ) ;
#648 = ADVANCED_FACE ( 'NONE', ( #1200 ), #909, .T. ) ;
#649 = AXIS2_PLACEMENT_3D ( 'NONE', #939, #362, #658 ) ;
#650 = CC_DESIGN_APPROVAL ( #869, ( #1201 ) ) ;
#651 = DIRECTION ( 'NONE',  ( 0.4226182617406972208, 0.9063077870366511579, -1.084202172485502067E-14 ) ) ;
#652 = CIRCLE ( 'NONE', #1262, 6.000000000000005329 ) ;
#653 = FACE_OUTER_BOUND ( 'NONE', #691, .T. ) ;
#654 = EDGE_CURVE ( 'NONE', #387, #894, #791, .T. ) ;
#655 = ORIENTED_EDGE ( 'NONE', *, *, #870, .F. ) ;
#656 = DIRECTION ( 'NONE',  ( 0.000000000000000000, 0.000000000000000000, 1.000000000000000000 ) ) ;
#657 = AXIS2_PLACEMENT_3D ( 'NONE', #555, #373, #1257 ) ;
#658 = DIRECTION ( 'NONE',  ( 1.000000000000000000, 0.000000000000000000, 0.000000000000000000 ) ) ;
#659 = FACE_OUTER_BOUND ( 'NONE', #335, .T. ) ;
#660 = CARTESIAN_POINT ( 'NONE',  ( 78.22660020053612584, 164.2081831232564753, 3.499999999999985345 ) ) ;
#661 = VERTEX_POINT ( 'NONE', #802 ) ;
#662 = MECHANICAL_CONTEXT ( 'NONE', #523, 'mechanical' ) ;
#663 = ORIENTED_EDGE ( 'NONE', *, *, #293, .T. ) ;
#664 = ADVANCED_FACE ( 'NONE', ( #918 ), #798, .F. ) ;
#665 = CARTESIAN_POINT ( 'NONE',  ( 92.89884744479054746, 147.7280993963394451, -3.500000000000015099 ) ) ;
#666 = DIRECTION ( 'NONE',  ( 0.4226182617406972208, 0.9063077870366511579, -1.257674520083182304E-14 ) ) ;
#667 = EDGE_LOOP ( 'NONE', ( #124, #479, #354, #26 ) ) ;
#668 = DIRECTION ( 'NONE',  ( -0.4226182617406974429, -0.9063077870366509359, 5.041067417497203252E-17 ) ) ;
#669 = ORIENTED_EDGE ( 'NONE', *, *, #1098, .F. ) ;
#670 = ADVANCED_FACE ( 'NONE', ( #31, #807 ), #1187, .F. ) ;
#671 = VECTOR ( 'NONE', #701, 1000.000000000000000 ) ;
#672 = LINE ( 'NONE', #967, #1039 ) ;
#673 = AXIS2_PLACEMENT_3D ( 'NONE', #1226, #63, #560 ) ;
#674 = CARTESIAN_POINT ( 'NONE',  ( 73.71777499138426037, 161.6375810083198132, 6.999999999999985789 ) ) ;
#675 = ORIENTED_EDGE ( 'NONE', *, *, #1236, .F. ) ;
#676 = CARTESIAN_POINT ( 'NONE',  ( 76.86713851998113967, 164.8421105158674891, 3.499999999999985345 ) ) ;
#677 = DATE_AND_TIME ( #557, #15 ) ;
#678 = LINE ( 'NONE', #961, #346 ) ;
#679 = LINE ( 'NONE', #110, #508 ) ;
#680 = ORIENTED_EDGE ( 'NONE', *, *, #381, .T. ) ;
#681 = EDGE_LOOP ( 'NONE', ( #1155, #1140, #977, #283, #726 ) ) ;
#682 = LINE ( 'NONE', #878, #938 ) ;
#683 = CARTESIAN_POINT ( 'NONE',  ( 71.22542857703346897, 162.7997812281067240, -7.000000000000016875 ) ) ;
#684 = ORIENTED_EDGE ( 'NONE', *, *, #1103, .F. ) ;
#685 = EDGE_CURVE ( 'NONE', #709, #700, #25, .T. ) ;
#686 = ORIENTED_EDGE ( 'NONE', *, *, #372, .F. ) ;
#687 = DIRECTION ( 'NONE',  ( 1.000000000000000000, 0.000000000000000000, 0.000000000000000000 ) ) ;
#688 = PERSON ( '未', '未', '未', ('未'), ('未'), ('未') ) ;
#689 = CARTESIAN_POINT ( 'NONE',  ( 70.86713851998113967, 164.8421105158674891, 3.499999999999985345 ) ) ;
#690 = AXIS2_PLACEMENT_3D ( 'NONE', #214, #507, #488 ) ;
#691 = EDGE_LOOP ( 'NONE', ( #408, #716, #276, #323 ) ) ;
#692 = ADVANCED_FACE ( 'NONE', ( #723 ), #145, .F. ) ;
#693 = CC_DESIGN_SECURITY_CLASSIFICATION ( #588, ( #1201 ) ) ;
#694 = DIRECTION ( 'NONE',  ( 1.000000000000000000, 0.000000000000000000, 0.000000000000000000 ) ) ;
#695 = ORIENTED_EDGE ( 'NONE', *, *, #870, .T. ) ;
#696 = AXIS2_PLACEMENT_3D ( 'NONE', #770, #483, #594 ) ;
#697 = CARTESIAN_POINT ( 'NONE',  ( 76.86713851998113967, 164.8421105158674891, -3.500000000000015543 ) ) ;
#698 = DIRECTION ( 'NONE',  ( -0.000000000000000000, -0.000000000000000000, 1.000000000000000000 ) ) ;
#699 = VERTEX_POINT ( 'NONE', #215 ) ;
#700 = VERTEX_POINT ( 'NONE', #425 ) ;
#701 = DIRECTION ( 'NONE',  ( 0.000000000000000000, -0.000000000000000000, -1.000000000000000000 ) ) ;
#702 = EDGE_CURVE ( 'NONE', #458, #799, #1117, .T. ) ;
#703 = DIRECTION ( 'NONE',  ( 0.000000000000000000, -0.000000000000000000, -1.000000000000000000 ) ) ;
#704 = CC_DESIGN_PERSON_AND_ORGANIZATION_ASSIGNMENT ( #562, #1250, ( #193 ) ) ;
#705 = ORIENTED_EDGE ( 'NONE', *, *, #1021, .F. ) ;
#706 = ORIENTED_EDGE ( 'NONE', *, *, #774, .F. ) ;
#707 = LINE ( 'NONE', #598, #1055 ) ;
#708 = LINE ( 'NONE', #1099, #769 ) ;
#709 = VERTEX_POINT ( 'NONE', #237 ) ;
#710 = AXIS2_PLACEMENT_3D ( 'NONE', #142, #1135, #722 ) ;
#711 = ORIENTED_EDGE ( 'NONE', *, *, #60, .T. ) ;
#712 = DIRECTION ( 'NONE',  ( 0.000000000000000000, 0.000000000000000000, 1.000000000000000000 ) ) ;
#713 = CIRCLE ( 'NONE', #101, 6.000000000000005329 ) ;
#714 = DIRECTION ( 'NONE',  ( 0.4226182617406971653, 0.9063077870366510469, 0.000000000000000000 ) ) ;
#715 = ORIENTED_EDGE ( 'NONE', *, *, #99, .F. ) ;
#716 = ORIENTED_EDGE ( 'NONE', *, *, #1082, .F. ) ;
#717 = CARTESIAN_POINT ( 'NONE',  ( 73.71777499138426037, 161.6375810083198132, 6.999999999999985789 ) ) ;
#718 = DIRECTION ( 'NONE',  ( 0.000000000000000000, -1.000000000000000000, 9.137517310908909378E-17 ) ) ;
#719 = EDGE_CURVE ( 'NONE', #385, #1167, #960, .T. ) ;
#720 = DIRECTION ( 'NONE',  ( 1.000000000000000000, 0.000000000000000000, 0.000000000000000000 ) ) ;
#721 = ORIENTED_EDGE ( 'NONE', *, *, #976, .T. ) ;
#722 = DIRECTION ( 'NONE',  ( 1.000000000000000000, 0.000000000000000000, -0.000000000000000000 ) ) ;
#723 = FACE_OUTER_BOUND ( 'NONE', #1184, .T. ) ;
#724 = FACE_OUTER_BOUND ( 'NONE', #681, .T. ) ;
#725 = EDGE_CURVE ( 'NONE', #206, #317, #757, .T. ) ;
#726 = ORIENTED_EDGE ( 'NONE', *, *, #364, .F. ) ;
#727 = VECTOR ( 'NONE', #971, 1000.000000000000000 ) ;
#728 = CARTESIAN_POINT ( 'NONE',  ( 76.43669835249423272, 160.3697262230977287, 6.999999999999985789 ) ) ;
#729 = AXIS2_PLACEMENT_3D ( 'NONE', #10, #18, #993 ) ;
#730 = VECTOR ( 'NONE', #1137, 1000.000000000000000 ) ;
#731 = CARTESIAN_POINT ( 'NONE',  ( 78.22660020053612584, 164.2081831232564753, -3.500000000000015543 ) ) ;
#732 = DIRECTION ( 'NONE',  ( -1.000000000000000000, 0.000000000000000000, 0.000000000000000000 ) ) ;
#733 = VERTEX_POINT ( 'NONE', #456 ) ;
#734 = DIRECTION ( 'NONE',  ( 0.9063077870366509359, -0.4226182617406974429, 0.000000000000000000 ) ) ;
#735 = EDGE_CURVE ( 'NONE', #921, #578, #844, .T. ) ;
#736 = DIRECTION ( 'NONE',  ( -0.000000000000000000, -0.000000000000000000, 1.000000000000000000 ) ) ;
#737 = CARTESIAN_POINT ( 'NONE',  ( 76.86713851998113967, 164.8421105158674891, 9.999999999999985789 ) ) ;
#738 = CC_DESIGN_PERSON_AND_ORGANIZATION_ASSIGNMENT ( #1154, #454, ( #1201 ) ) ;
#739 = ORIENTED_EDGE ( 'NONE', *, *, #519, .F. ) ;
#740 = EDGE_CURVE ( 'NONE', #962, #999, #240, .T. ) ;
#741 = LINE ( 'NONE', #811, #848 ) ;
#742 = PERSON_AND_ORGANIZATION ( #688, #1220 ) ;
#743 = ADVANCED_FACE ( 'NONE', ( #169 ), #245, .F. ) ;
#744 = DIRECTION ( 'NONE',  ( -0.000000000000000000, -0.000000000000000000, -1.000000000000000000 ) ) ;
#745 = CARTESIAN_POINT ( 'NONE',  ( 65.50468919222180375, 130.4189025701500952, 9.999999999999985789 ) ) ;
#746 = VERTEX_POINT ( 'NONE', #251 ) ;
#747 = DIRECTION ( 'NONE',  ( 1.000000000000000000, 0.000000000000000000, 0.000000000000000000 ) ) ;
#748 = SHAPE_DEFINITION_REPRESENTATION ( #886, #966 ) ;
#749 = CIRCLE ( 'NONE', #912, 6.000000000000005329 ) ;
#750 = DIRECTION ( 'NONE',  ( -1.000000000000000000, 0.000000000000000000, 0.000000000000000000 ) ) ;
#751 = AXIS2_PLACEMENT_3D ( 'NONE', #981, #987, #862 ) ;
#752 = FACE_OUTER_BOUND ( 'NONE', #223, .T. ) ;
#753 = DIRECTION ( 'NONE',  ( -0.4226182617406972764, -0.9063077870366510469, 0.000000000000000000 ) ) ;
#754 = ORIENTED_EDGE ( 'NONE', *, *, #1195, .T. ) ;
#755 = DIRECTION ( 'NONE',  ( 1.000000000000000000, 0.000000000000000000, 0.000000000000000000 ) ) ;
#756 = CIRCLE ( 'NONE', #635, 6.000000000000005329 ) ;
#757 = LINE ( 'NONE', #59, #730 ) ;
#758 = CARTESIAN_POINT ( 'NONE',  ( 62.08332126480296154, 136.6874144753178086, 6.999999999999988454 ) ) ;
#759 = EDGE_CURVE ( 'NONE', #700, #20, #340, .T. ) ;
#760 = LINE ( 'NONE', #272, #443 ) ;
#761 = ORIENTED_EDGE ( 'NONE', *, *, #58, .T. ) ;
#762 = APPROVAL_STATUS ( 'not_yet_approved' ) ;
#763 = ORIENTED_EDGE ( 'NONE', *, *, #415, .F. ) ;
#764 = DIRECTION ( 'NONE',  ( -0.000000000000000000, -0.000000000000000000, -1.000000000000000000 ) ) ;
#765 = DIRECTION ( 'NONE',  ( -0.000000000000000000, -0.000000000000000000, -1.000000000000000000 ) ) ;
#766 = ORIENTED_EDGE ( 'NONE', *, *, #735, .T. ) ;
#767 = AXIS2_PLACEMENT_3D ( 'NONE', #218, #712, #1 ) ;
#768 = CARTESIAN_POINT ( 'NONE',  ( 64.80224462591293388, 135.4195596900957526, -7.000000000000015099 ) ) ;
#769 = VECTOR ( 'NONE', #1193, 1000.000000000000000 ) ;
#770 = CARTESIAN_POINT ( 'NONE',  ( 73.71777499138426037, 161.6375810083198132, -7.000000000000016875 ) ) ;
#771 = VERTEX_POINT ( 'NONE', #1126 ) ;
#772 = APPLICATION_PROTOCOL_DEFINITION ( 'international standard', 'config_control_design', 1994, #523 ) ;
#773 = VERTEX_POINT ( 'NONE', #1237 ) ;
#774 = EDGE_CURVE ( 'NONE', #32, #387, #1044, .T. ) ;
#775 = CARTESIAN_POINT ( 'NONE',  ( 74.36713851998113967, 164.8421105158674891, -10.00000000000001599 ) ) ;
#776 = CARTESIAN_POINT ( 'NONE',  ( 67.29459104026371108, 134.2573594703088418, 9.999999999999985789 ) ) ;
#777 = VERTEX_POINT ( 'NONE', #1150 ) ;
#778 = PLANE ( 'NONE',  #916 ) ;
#779 = ORIENTED_EDGE ( 'NONE', *, *, #725, .F. ) ;
#780 = EDGE_CURVE ( 'NONE', #1001, #391, #1224, .T. ) ;
#781 = DIRECTION ( 'NONE',  ( 2.130447149300334631E-17, 4.568758655454454689E-17, 1.000000000000000000 ) ) ;
#782 = FACE_OUTER_BOUND ( 'NONE', #1214, .T. ) ;
#783 = ADVANCED_FACE ( 'NONE', ( #851 ), #256, .T. ) ;
#784 = DIRECTION ( 'NONE',  ( -0.9063077870366509359, 0.4226182617406972764, -0.000000000000000000 ) ) ;
#785 = ORIENTED_EDGE ( 'NONE', *, *, #405, .T. ) ;
#786 = ORIENTED_EDGE ( 'NONE', *, *, #209, .F. ) ;
#787 = PLANE ( 'NONE',  #176 ) ;
#788 = AXIS2_PLACEMENT_3D ( 'NONE', #13, #400, #332 ) ;
#789 = DIRECTION ( 'NONE',  ( -0.4226182617406974429, -0.9063077870366509359, 0.000000000000000000 ) ) ;
#790 = ORIENTED_EDGE ( 'NONE', *, *, #375, .T. ) ;
#791 = CIRCLE ( 'NONE', #591, 6.000000000000005329 ) ;
#792 = DIRECTION ( 'NONE',  ( -0.4226182617406974429, -0.9063077870366509359, 0.000000000000000000 ) ) ;
#793 = ORIENTED_EDGE ( 'NONE', *, *, #1212, .F. ) ;
#794 = EDGE_CURVE ( 'NONE', #661, #640, #959, .T. ) ;
#795 = AXIS2_PLACEMENT_3D ( 'NONE', #322, #1092, #714 ) ;
#796 = CARTESIAN_POINT ( 'NONE',  ( 76.86713851998113967, 164.8421105158674891, 9.999999999999985789 ) ) ;
#797 = VECTOR ( 'NONE', #946, 1000.000000000000114 ) ;
#798 = PLANE ( 'NONE',  #630 ) ;
#799 = VERTEX_POINT ( 'NONE', #824 ) ;
#800 = ORIENTED_EDGE ( 'NONE', *, *, #551, .T. ) ;
#801 = FACE_OUTER_BOUND ( 'NONE', #1063, .T. ) ;
#802 = CARTESIAN_POINT ( 'NONE',  ( 71.81599281355113362, 157.5591959666548973, -3.500000000000015099 ) ) ;
#803 = ORIENTED_EDGE ( 'NONE', *, *, #21, .T. ) ;
#804 = DIRECTION ( 'NONE',  ( -2.130447149300334015E-17, -4.568758655454454689E-17, -1.000000000000000000 ) ) ;
#805 = ORIENTED_EDGE ( 'NONE', *, *, #2, .T. ) ;
#806 = CARTESIAN_POINT ( 'NONE',  ( 74.11229791292038271, 155.3850333943961459, 2.499999999999979128 ) ) ;
#807 = FACE_OUTER_BOUND ( 'NONE', #619, .T. ) ;
#808 = ORIENTED_EDGE ( 'NONE', *, *, #1057, .T. ) ;
#809 = VERTEX_POINT ( 'NONE', #157 ) ;
#810 = CC_DESIGN_APPROVAL ( #910, ( #588 ) ) ;
#811 = CARTESIAN_POINT ( 'NONE',  ( 70.86713851998113967, 164.8421105158674891, 9.999999999999985789 ) ) ;
#812 = PERSON_AND_ORGANIZATION_ROLE ( 'creator' ) ;
#813 = CARTESIAN_POINT ( 'NONE',  ( 75.07723667193924655, 161.0036536157087994, 3.499999999999985345 ) ) ;
#814 = FACE_OUTER_BOUND ( 'NONE', #184, .T. ) ;
#815 = ORIENTED_EDGE ( 'NONE', *, *, #47, .T. ) ;
#816 = CC_DESIGN_DATE_AND_TIME_ASSIGNMENT ( #526, #915, ( #1158 ) ) ;
#817 = CARTESIAN_POINT ( 'NONE',  ( 64.80224462591293388, 135.4195596900957526, 6.999999999999988454 ) ) ;
#818 = ADVANCED_FACE ( 'NONE', ( #1131 ), #1143, .F. ) ;
#819 = FACE_OUTER_BOUND ( 'NONE', #880, .T. ) ;
#820 = FACE_OUTER_BOUND ( 'NONE', #432, .T. ) ;
#821 = ORIENTED_EDGE ( 'NONE', *, *, #1090, .F. ) ;
#822 = CARTESIAN_POINT ( 'NONE',  ( 59.59097485045217013, 137.8496146951047479, 6.999999999999988454 ) ) ;
#823 = COORDINATED_UNIVERSAL_TIME_OFFSET ( 8, 0, .AHEAD. ) ;
#824 = CARTESIAN_POINT ( 'NONE',  ( 71.22542857703346897, 162.7997812281067240, 3.499999999999985345 ) ) ;
#825 = LINE ( 'NONE', #1113, #470 ) ;
#826 = ORIENTED_EDGE ( 'NONE', *, *, #1012, .T. ) ;
#827 = CIRCLE ( 'NONE', #1241, 1.000000000000002220 ) ;
#828 = LINE ( 'NONE', #1130, #98 ) ;
#829 = EDGE_CURVE ( 'NONE', #1204, #472, #442, .T. ) ;
#830 = APPROVAL_PERSON_ORGANIZATION ( #628, #869, #434 ) ;
#831 = DIRECTION ( 'NONE',  ( -0.000000000000000000, -0.000000000000000000, -1.000000000000000000 ) ) ;
#832 = ADVANCED_FACE ( 'NONE', ( #638 ), #68, .F. ) ;
#833 = DIRECTION ( 'NONE',  ( 0.9063077870366509359, -0.4226182617406974429, -0.000000000000000000 ) ) ;
#834 = DIRECTION ( 'NONE',  ( 1.000000000000000000, 0.000000000000000000, 0.000000000000000000 ) ) ;
#835 = VERTEX_POINT ( 'NONE', #1245 ) ;
#836 = CIRCLE ( 'NONE', #289, 6.000000000000005329 ) ;
#837 = CARTESIAN_POINT ( 'NONE',  ( 76.86713851998113967, 164.8421105158674891, -3.500000000000015543 ) ) ;
#838 = DATE_AND_TIME ( #1136, #359 ) ;
#839 = EDGE_CURVE ( 'NONE', #199, #1076, #449, .T. ) ;
#840 = DIRECTION ( 'NONE',  ( -0.9063077870366509359, 0.4226182617406974984, 0.000000000000000000 ) ) ;
#841 = CARTESIAN_POINT ( 'NONE',  ( 82.86713851998115388, 164.8421105158674891, -3.500000000000015543 ) ) ;
#842 = ORIENTED_EDGE ( 'NONE', *, *, #244, .F. ) ;
#843 = CARTESIAN_POINT ( 'NONE',  ( 61.65288109731604038, 132.2150301825480767, 9.999999999999985789 ) ) ;
#844 = LINE ( 'NONE', #731, #1058 ) ;
#845 = DIRECTION ( 'NONE',  ( 1.000000000000000000, 0.000000000000000000, 0.000000000000000000 ) ) ;
#846 = DIRECTION ( 'NONE',  ( -0.000000000000000000, -0.000000000000000000, -1.000000000000000000 ) ) ;
#847 = ORIENTED_EDGE ( 'NONE', *, *, #405, .F. ) ;
#848 = VECTOR ( 'NONE', #621, 1000.000000000000000 ) ;
#849 = EDGE_CURVE ( 'NONE', #809, #1042, #1219, .T. ) ;
#850 = APPROVAL_PERSON_ORGANIZATION ( #954, #930, #203 ) ;
#851 = FACE_OUTER_BOUND ( 'NONE', #1071, .T. ) ;
#852 = CARTESIAN_POINT ( 'NONE',  ( 78.92904476684499571, 159.2075260033107895, 9.999999999999985789 ) ) ;
#853 = EDGE_LOOP ( 'NONE', ( #705, #982, #634, #469, #306 ) ) ;
#854 = CARTESIAN_POINT ( 'NONE',  ( 0.000000000000000000, 0.000000000000000000, 0.000000000000000000 ) ) ;
#855 = EDGE_LOOP ( 'NONE', ( #645, #207, #1031, #596 ) ) ;
#856 = AXIS2_PLACEMENT_3D ( 'NONE', #745, #430, #531 ) ;
#857 = DIRECTION ( 'NONE',  ( 0.000000000000000000, 0.000000000000000000, 1.000000000000000000 ) ) ;
#858 = EDGE_CURVE ( 'NONE', #578, #661, #950, .T. ) ;
#859 = EDGE_LOOP ( 'NONE', ( #254, #675 ) ) ;
#860 = ORIENTED_EDGE ( 'NONE', *, *, #1082, .T. ) ;
#861 = DIRECTION ( 'NONE',  ( 1.000000000000000000, 0.000000000000000000, 0.000000000000000000 ) ) ;
#862 = DIRECTION ( 'NONE',  ( 1.000000000000000000, 0.000000000000000000, 0.000000000000000000 ) ) ;
#863 = ORIENTED_EDGE ( 'NONE', *, *, #654, .F. ) ;
#864 = LINE ( 'NONE', #1255, #14 ) ;
#865 = ORIENTED_EDGE ( 'NONE', *, *, #551, .F. ) ;
#866 = EDGE_CURVE ( 'NONE', #733, #699, #339, .T. ) ;
#867 = VECTOR ( 'NONE', #1032, 999.9999999999998863 ) ;
#868 = CARTESIAN_POINT ( 'NONE',  ( 61.65288109731604038, 132.2150301825480767, -10.00000000000001599 ) ) ;
#869 = APPROVAL ( #923, '未' ) ;
#870 = EDGE_CURVE ( 'NONE', #1042, #809, #626, .T. ) ;
#871 = AXIS2_PLACEMENT_3D ( 'NONE', #182, #764, #861 ) ;
#872 = FACE_OUTER_BOUND ( 'NONE', #1256, .T. ) ;
#873 = VERTEX_POINT ( 'NONE', #1185 ) ;
#874 = FACE_BOUND ( 'NONE', #217, .T. ) ;
#875 = CARTESIAN_POINT ( 'NONE',  ( 79.36713851998113967, 164.8421105158674891, 3.499999999999985345 ) ) ;
#876 = ADVANCED_FACE ( 'NONE', ( #801 ), #787, .T. ) ;
#877 = VECTOR ( 'NONE', #334, 1000.000000000000000 ) ;
#878 = CARTESIAN_POINT ( 'NONE',  ( 92.47622918304983841, 146.8217916093027782, 2.499999999999979128 ) ) ;
#879 = FACE_OUTER_BOUND ( 'NONE', #667, .T. ) ;
#880 = EDGE_LOOP ( 'NONE', ( #590, #512, #1248, #192 ) ) ;
#881 = ORIENTED_EDGE ( 'NONE', *, *, #1006, .F. ) ;
#882 = DIRECTION ( 'NONE',  ( 1.000000000000000000, 0.000000000000000000, 0.000000000000000000 ) ) ;
#883 = ADVANCED_FACE ( 'NONE', ( #309 ), #1002, .T. ) ;
#884 = DIRECTION ( 'NONE',  ( -0.000000000000000000, -0.000000000000000000, -1.000000000000000000 ) ) ;
#885 = ORIENTED_EDGE ( 'NONE', *, *, #839, .T. ) ;
#886 = PRODUCT_DEFINITION_SHAPE ( 'NONE', 'NONE',  #1158 ) ;
#887 = CARTESIAN_POINT ( 'NONE',  ( 73.71777499138426037, 161.6375810083198132, 6.999999999999985789 ) ) ;
#888 = ORIENTED_EDGE ( 'NONE', *, *, #1253, .F. ) ;
#889 = DIRECTION ( 'NONE',  ( 0.000000000000000000, 0.000000000000000000, -1.000000000000000000 ) ) ;
#890 = MANIFOLD_SOLID_BREP ( 'Scale1', #574 ) ;
#891 = EDGE_CURVE ( 'NONE', #316, #385, #500, .T. ) ;
#892 = VECTOR ( 'NONE', #744, 1000.000000000000000 ) ;
#893 = DIRECTION ( 'NONE',  ( 1.000000000000000000, 0.000000000000000000, 0.000000000000000000 ) ) ;
#894 = VERTEX_POINT ( 'NONE', #985 ) ;
#895 = VECTOR ( 'NONE', #27, 1000.000000000000227 ) ;
#896 = EDGE_LOOP ( 'NONE', ( #1054, #995, #517, #881 ) ) ;
#897 = VECTOR ( 'NONE', #1112, 1000.000000000000114 ) ;
#898 = DIRECTION ( 'NONE',  ( -0.000000000000000000, -0.000000000000000000, -1.000000000000000000 ) ) ;
#899 = DIRECTION ( 'NONE',  ( 0.000000000000000000, 0.000000000000000000, 1.000000000000000000 ) ) ;
#900 = ORIENTED_EDGE ( 'NONE', *, *, #1212, .T. ) ;
#901 = LINE ( 'NONE', #505, #204 ) ;
#902 = ORIENTED_EDGE ( 'NONE', *, *, #1116, .F. ) ;
#903 = CARTESIAN_POINT ( 'NONE',  ( 75.07723667193923234, 161.0036536157087994, 3.499999999999985345 ) ) ;
#904 = CARTESIAN_POINT ( 'NONE',  ( 73.71777499138426037, 161.6375810083198132, 6.999999999999985789 ) ) ;
#905 = ORIENTED_EDGE ( 'NONE', *, *, #99, .T. ) ;
#906 = VERTEX_POINT ( 'NONE', #109 ) ;
#907 = DIRECTION ( 'NONE',  ( -0.9063077870366509359, 0.4226182617406973319, -0.000000000000000000 ) ) ;
#908 = EDGE_CURVE ( 'NONE', #1120, #771, #394, .T. ) ;
#909 = CYLINDRICAL_SURFACE ( 'NONE', #82, 5.999999999999998224 ) ;
#910 = APPROVAL ( #79, '未' ) ;
#911 = CARTESIAN_POINT ( 'NONE',  ( 59.59097485045217013, 137.8496146951047479, -10.00000000000001599 ) ) ;
#912 = AXIS2_PLACEMENT_3D ( 'NONE', #433, #1007, #533 ) ;
#913 = VERTEX_POINT ( 'NONE', #298 ) ;
#914 = DIRECTION ( 'NONE',  ( 0.9063077870366510469, -0.4226182617406973319, 0.000000000000000000 ) ) ;
#915 = DATE_TIME_ROLE ( 'creation_date' ) ;
#916 = AXIS2_PLACEMENT_3D ( 'NONE', #412, #804, #296 ) ;
#917 = EDGE_CURVE ( 'NONE', #601, #492, #827, .T. ) ;
#918 = FACE_OUTER_BOUND ( 'NONE', #211, .T. ) ;
#919 = LINE ( 'NONE', #1213, #877 ) ;
#920 = AXIS2_PLACEMENT_3D ( 'NONE', #1016, #547, #732 ) ;
#921 = VERTEX_POINT ( 'NONE', #1091 ) ;
#922 = DIRECTION ( 'NONE',  ( 1.000000000000000000, 0.000000000000000000, 0.000000000000000000 ) ) ;
#923 = APPROVAL_STATUS ( 'not_yet_approved' ) ;
#924 = DIRECTION ( 'NONE',  ( -0.4226182617406972208, -0.9063077870366511579, 0.000000000000000000 ) ) ;
#925 = CARTESIAN_POINT ( 'NONE',  ( 74.11229791292038271, 155.3850333943961459, -2.500000000000015543 ) ) ;
#926 = ADVANCED_FACE ( 'NONE', ( #314 ), #1095, .F. ) ;
#927 = VERTEX_POINT ( 'NONE', #514 ) ;
#928 = CARTESIAN_POINT ( 'NONE',  ( 57.80107300241027701, 134.0111577949460298, 9.999999999999985789 ) ) ;
#929 = CALENDAR_DATE ( 2026, 5, 8 ) ;
#930 = APPROVAL ( #762, '未' ) ;
#931 = UNCERTAINTY_MEASURE_WITH_UNIT (LENGTH_MEASURE( 1.000000000000000082E-05 ), #355, 'distance_accuracy_value', 'NONE');
#932 = CARTESIAN_POINT ( 'NONE',  ( 67.65288109731604038, 132.2150301825480767, 9.999999999999985789 ) ) ;
#933 = CARTESIAN_POINT ( 'NONE',  ( 76.86713851998113967, 164.8421105158674891, 9.999999999999985789 ) ) ;
#934 = LINE ( 'NONE', #548, #958 ) ;
#935 = ORIENTED_EDGE ( 'NONE', *, *, #976, .F. ) ;
#936 = AXIS2_PLACEMENT_3D ( 'NONE', #796, #224, #1197 ) ;
#937 = FACE_OUTER_BOUND ( 'NONE', #40, .T. ) ;
#938 = VECTOR ( 'NONE', #292, 1000.000000000000227 ) ;
#939 = CARTESIAN_POINT ( 'NONE',  ( 76.86713851998113967, 164.8421105158674891, 9.999999999999985789 ) ) ;
#940 = CARTESIAN_POINT ( 'NONE',  ( 70.86713851998113967, 164.8421105158674891, -3.500000000000015543 ) ) ;
#941 = LINE ( 'NONE', #365, #1122 ) ;
#942 = EDGE_LOOP ( 'NONE', ( #104, #655 ) ) ;
#943 = DIRECTION ( 'NONE',  ( 1.000000000000000000, 0.000000000000000000, 0.000000000000000000 ) ) ;
#944 = APPROVAL_ROLE ( '' ) ;
#945 = DIRECTION ( 'NONE',  ( -0.000000000000000000, -0.000000000000000000, -1.000000000000000000 ) ) ;
#946 = DIRECTION ( 'NONE',  ( -0.9063077870366509359, 0.4226182617406973319, 0.000000000000000000 ) ) ;
#947 = CARTESIAN_POINT ( 'NONE',  ( 76.86713851998113967, 164.8421105158674891, 9.999999999999985789 ) ) ;
#948 = VERTEX_POINT ( 'NONE', #208 ) ;
#949 = PERSON_AND_ORGANIZATION ( #688, #1220 ) ;
#950 = LINE ( 'NONE', #665, #358 ) ;
#951 = DIRECTION ( 'NONE',  ( -0.000000000000000000, -0.000000000000000000, 1.000000000000000000 ) ) ;
#952 = DIRECTION ( 'NONE',  ( -0.4226182617406971653, -0.9063077870366510469, 0.000000000000000000 ) ) ;
#953 = ORIENTED_EDGE ( 'NONE', *, *, #431, .F. ) ;
#954 = PERSON_AND_ORGANIZATION ( #688, #1220 ) ;
#955 = ORIENTED_EDGE ( 'NONE', *, *, #29, .T. ) ;
#956 = VECTOR ( 'NONE', #243, 1000.000000000000000 ) ;
#957 = EDGE_CURVE ( 'NONE', #186, #438, #707, .T. ) ;
#958 = VECTOR ( 'NONE', #846, 1000.000000000000000 ) ;
#959 = LINE ( 'NONE', #150, #219 ) ;
#960 = CIRCLE ( 'NONE', #17, 1.000000000000002220 ) ;
#961 = CARTESIAN_POINT ( 'NONE',  ( 75.50767683942616770, 165.4760379084785313, 3.499999999999985345 ) ) ;
#962 = VERTEX_POINT ( 'NONE', #409 ) ;
#963 = DATE_TIME_ROLE ( 'classification_date' ) ;
#964 = ORIENTED_EDGE ( 'NONE', *, *, #891, .F. ) ;
#965 = VECTOR ( 'NONE', #951, 1000.000000000000000 ) ;
#966 = ADVANCED_BREP_SHAPE_REPRESENTATION ( 'biella_centrale_0.1_Default_sldprt', ( #890, #1243 ), #629 ) ;
#967 = CARTESIAN_POINT ( 'NONE',  ( 71.22542857703346897, 162.7997812281067240, 9.999999999999985789 ) ) ;
#968 = CARTESIAN_POINT ( 'NONE',  ( 67.29459104026371108, 134.2573594703088418, -7.000000000000015099 ) ) ;
#969 = ORIENTED_EDGE ( 'NONE', *, *, #1006, .T. ) ;
#970 = EDGE_CURVE ( 'NONE', #777, #472, #236, .T. ) ;
#971 = DIRECTION ( 'NONE',  ( -0.000000000000000000, -0.000000000000000000, -1.000000000000000000 ) ) ;
#972 = EDGE_CURVE ( 'NONE', #771, #248, #1077, .T. ) ;
#973 = CARTESIAN_POINT ( 'NONE',  ( 61.65288109731604038, 132.2150301825480767, -10.00000000000001599 ) ) ;
#974 = PLANE ( 'NONE',  #696 ) ;
#975 = EDGE_LOOP ( 'NONE', ( #234, #350, #800, #1259, #1025, #1089 ) ) ;
#976 = EDGE_CURVE ( 'NONE', #699, #733, #586, .T. ) ;
#977 = ORIENTED_EDGE ( 'NONE', *, *, #625, .T. ) ;
#978 = CIRCLE ( 'NONE', #1162, 6.000000000000005329 ) ;
#979 = PLANE ( 'NONE',  #180 ) ;
#980 = AXIS2_PLACEMENT_3D ( 'NONE', #516, #221, #429 ) ;
#981 = CARTESIAN_POINT ( 'NONE',  ( 76.86713851998113967, 164.8421105158674891, -10.00000000000001599 ) ) ;
#982 = ORIENTED_EDGE ( 'NONE', *, *, #774, .T. ) ;
#983 = DIRECTION ( 'NONE',  ( 1.000000000000000000, 0.000000000000000000, 0.000000000000000000 ) ) ;
#984 = ORIENTED_EDGE ( 'NONE', *, *, #395, .F. ) ;
#985 = CARTESIAN_POINT ( 'NONE',  ( 71.22542857703346897, 162.7997812281067240, -10.00000000000001599 ) ) ;
#986 = AXIS2_PLACEMENT_3D ( 'NONE', #1010, #330, #1218 ) ;
#987 = DIRECTION ( 'NONE',  ( -0.000000000000000000, -0.000000000000000000, 1.000000000000000000 ) ) ;
#988 = LINE ( 'NONE', #111, #1086 ) ;
#989 = CARTESIAN_POINT ( 'NONE',  ( 71.22542857703346897, 162.7997812281067240, 9.999999999999985789 ) ) ;
#990 = ORIENTED_EDGE ( 'NONE', *, *, #58, .F. ) ;
#991 = ADVANCED_FACE ( 'NONE', ( #100 ), #414, .F. ) ;
#992 = DIRECTION ( 'NONE',  ( -0.000000000000000000, 0.000000000000000000, 1.000000000000000000 ) ) ;
#993 = DIRECTION ( 'NONE',  ( 0.9063077870366509359, -0.4226182617406973319, 0.000000000000000000 ) ) ;
#994 = ORIENTED_EDGE ( 'NONE', *, *, #1195, .F. ) ;
#995 = ORIENTED_EDGE ( 'NONE', *, *, #866, .F. ) ;
#996 = DIRECTION ( 'NONE',  ( -0.4226182617406972208, -0.9063077870366511579, 2.125036258071583957E-14 ) ) ;
#997 = VECTOR ( 'NONE', #545, 1000.000000000000114 ) ;
#998 = CARTESIAN_POINT ( 'NONE',  ( 76.86713851998113967, 164.8421105158674891, 3.499999999999985345 ) ) ;
#999 = VERTEX_POINT ( 'NONE', #875 ) ;
#1000 = VECTOR ( 'NONE', #952, 1000.000000000000114 ) ;
#1001 = VERTEX_POINT ( 'NONE', #495 ) ;
#1002 = CYLINDRICAL_SURFACE ( 'NONE', #936, 6.000000000000005329 ) ;
#1003 = CARTESIAN_POINT ( 'NONE',  ( 61.65288109731604038, 132.2150301825480767, 9.999999999999985789 ) ) ;
#1004 = EDGE_LOOP ( 'NONE', ( #754, #808, #280, #227 ) ) ;
#1005 = VERTEX_POINT ( 'NONE', #120 ) ;
#1006 = EDGE_CURVE ( 'NONE', #873, #913, #441, .T. ) ;
#1007 = DIRECTION ( 'NONE',  ( -0.000000000000000000, 0.000000000000000000, 1.000000000000000000 ) ) ;
#1008 = EDGE_CURVE ( 'NONE', #492, #125, #22, .T. ) ;
#1009 = DIRECTION ( 'NONE',  ( -0.000000000000000000, 0.000000000000000000, 1.000000000000000000 ) ) ;
#1010 = CARTESIAN_POINT ( 'NONE',  ( 92.89884744479054746, 147.7280993963394451, 2.499999999999986233 ) ) ;
#1011 = ORIENTED_EDGE ( 'NONE', *, *, #42, .F. ) ;
#1012 = EDGE_CURVE ( 'NONE', #927, #773, #137, .T. ) ;
#1013 = DIRECTION ( 'NONE',  ( 0.4226182617406972764, 0.9063077870366509359, 0.000000000000000000 ) ) ;
#1014 = DATE_AND_TIME ( #421, #1179 ) ;
#1015 = CARTESIAN_POINT ( 'NONE',  ( 62.08332126480296154, 136.6874144753178086, -7.000000000000015099 ) ) ;
#1016 = CARTESIAN_POINT ( 'NONE',  ( 61.65288109731604038, 132.2150301825480767, 9.999999999999985789 ) ) ;
#1017 = AXIS2_PLACEMENT_3D ( 'NONE', #558, #539, #347 ) ;
#1018 = ORIENTED_EDGE ( 'NONE', *, *, #702, .T. ) ;
#1019 = LINE ( 'NONE', #57, #159 ) ;
#1020 = VECTOR ( 'NONE', #1080, 1000.000000000000000 ) ;
#1021 = EDGE_CURVE ( 'NONE', #32, #577, #978, .T. ) ;
#1022 = CARTESIAN_POINT ( 'NONE',  ( 65.50468919222180375, 130.4189025701500952, -10.00000000000001599 ) ) ;
#1023 = LINE ( 'NONE', #146, #511 ) ;
#1024 = AXIS2_PLACEMENT_3D ( 'NONE', #463, #1157, #286 ) ;
#1025 = ORIENTED_EDGE ( 'NONE', *, *, #759, .T. ) ;
#1026 = CARTESIAN_POINT ( 'NONE',  ( 76.43669835249423272, 160.3697262230977287, 6.999999999999985789 ) ) ;
#1027 = PERSON_AND_ORGANIZATION ( #688, #1220 ) ;
#1028 = ADVANCED_FACE ( 'NONE', ( #937 ), #1115, .T. ) ;
#1029 = DIRECTION ( 'NONE',  ( 0.4226182617406972764, 0.9063077870366509359, -0.000000000000000000 ) ) ;
#1030 = CARTESIAN_POINT ( 'NONE',  ( 61.65288109731604038, 132.2150301825480767, -10.00000000000001599 ) ) ;
#1031 = ORIENTED_EDGE ( 'NONE', *, *, #515, .T. ) ;
#1032 = DIRECTION ( 'NONE',  ( -0.4226182617406973319, -0.9063077870366510469, 0.000000000000000000 ) ) ;
#1033 = DESIGN_CONTEXT ( 'detailed design', #327, 'design' ) ;
#1034 = CARTESIAN_POINT ( 'NONE',  ( 62.08332126480296154, 136.6874144753178086, 6.999999999999988454 ) ) ;
#1035 = DIRECTION ( 'NONE',  ( 0.000000000000000000, 0.000000000000000000, 1.000000000000000000 ) ) ;
#1036 = EDGE_LOOP ( 'NONE', ( #549, #1134, #313, #612 ) ) ;
#1037 = VECTOR ( 'NONE', #1172, 1000.000000000000000 ) ;
#1038 = CARTESIAN_POINT ( 'NONE',  ( 82.86713851998115388, 164.8421105158674891, 9.999999999999985789 ) ) ;
#1039 = VECTOR ( 'NONE', #584, 1000.000000000000000 ) ;
#1040 = DIRECTION ( 'NONE',  ( 1.000000000000000000, 0.000000000000000000, 0.000000000000000000 ) ) ;
#1041 = CARTESIAN_POINT ( 'NONE',  ( 71.81599281355113362, 157.5591959666548689, -2.500000000000015543 ) ) ;
#1042 = VERTEX_POINT ( 'NONE', #328 ) ;
#1043 = CARTESIAN_POINT ( 'NONE',  ( 67.29459104026371108, 134.2573594703088418, 9.999999999999985789 ) ) ;
#1044 = LINE ( 'NONE', #356, #570 ) ;
#1045 = FACE_OUTER_BOUND ( 'NONE', #853, .T. ) ;
#1046 = ORIENTED_EDGE ( 'NONE', *, *, #735, .F. ) ;
#1047 = EDGE_CURVE ( 'NONE', #700, #1076, #235, .T. ) ;
#1048 = CARTESIAN_POINT ( 'NONE',  ( 79.36713851998113967, 164.8421105158674891, -10.00000000000001599 ) ) ;
#1049 = DIRECTION ( 'NONE',  ( -0.9063077870366509359, 0.4226182617406972764, -0.000000000000000000 ) ) ;
#1050 = DIRECTION ( 'NONE',  ( 1.000000000000000000, 0.000000000000000000, 0.000000000000000000 ) ) ;
#1051 = ORIENTED_EDGE ( 'NONE', *, *, #198, .F. ) ;
#1052 = DIRECTION ( 'NONE',  ( -0.000000000000000000, -0.000000000000000000, 1.000000000000000000 ) ) ;
#1053 = COORDINATED_UNIVERSAL_TIME_OFFSET ( 8, 0, .AHEAD. ) ;
#1054 = ORIENTED_EDGE ( 'NONE', *, *, #1229, .F. ) ;
#1055 = VECTOR ( 'NONE', #592, 1000.000000000000000 ) ;
#1056 = AXIS2_PLACEMENT_3D ( 'NONE', #489, #195, #389 ) ;
#1057 = EDGE_CURVE ( 'NONE', #906, #1081, #345, .T. ) ;
#1058 = VECTOR ( 'NONE', #352, 1000.000000000000114 ) ;
#1059 = CARTESIAN_POINT ( 'NONE',  ( 74.53491617466107755, 156.2913411814328128, -2.500000000000015543 ) ) ;
#1060 = CARTESIAN_POINT ( 'NONE',  ( 76.86713851998113967, 164.8421105158674891, 9.999999999999985789 ) ) ;
#1061 = ORIENTED_EDGE ( 'NONE', *, *, #849, .T. ) ;
#1062 =( NAMED_UNIT ( * ) SI_UNIT ( $, .STERADIAN. ) SOLID_ANGLE_UNIT ( ) );
#1063 = EDGE_LOOP ( 'NONE', ( #888, #413, #141, #607 ) ) ;
#1064 = EDGE_CURVE ( 'NONE', #317, #295, #398, .T. ) ;
#1065 = AXIS2_PLACEMENT_3D ( 'NONE', #1030, #1035, #720 ) ;
#1066 = LINE ( 'NONE', #775, #965 ) ;
#1067 = EDGE_CURVE ( 'NONE', #485, #28, #525, .T. ) ;
#1068 = PLANE ( 'NONE',  #341 ) ;
#1069 = ORIENTED_EDGE ( 'NONE', *, *, #233, .F. ) ;
#1070 = CARTESIAN_POINT ( 'NONE',  ( 71.39337455181042458, 156.6528881796182304, -2.500000000000015543 ) ) ;
#1071 = EDGE_LOOP ( 'NONE', ( #1161, #595, #1240, #821 ) ) ;
#1072 = CARTESIAN_POINT ( 'NONE',  ( 76.43669835249423272, 160.3697262230977287, 6.999999999999985789 ) ) ;
#1073 = FACE_OUTER_BOUND ( 'NONE', #171, .T. ) ;
#1074 = EDGE_LOOP ( 'NONE', ( #815, #624, #222, #761 ) ) ;
#1075 = DIRECTION ( 'NONE',  ( 0.000000000000000000, 0.000000000000000000, 1.000000000000000000 ) ) ;
#1076 = VERTEX_POINT ( 'NONE', #822 ) ;
#1077 = LINE ( 'NONE', #903, #301 ) ;
#1078 = VECTOR ( 'NONE', #439, 1000.000000000000114 ) ;
#1079 = APPROVAL_PERSON_ORGANIZATION ( #949, #910, #944 ) ;
#1080 = DIRECTION ( 'NONE',  ( -0.000000000000000000, -0.000000000000000000, -1.000000000000000000 ) ) ;
#1081 = VERTEX_POINT ( 'NONE', #1111 ) ;
#1082 = EDGE_CURVE ( 'NONE', #206, #260, #543, .T. ) ;
#1083 = FACE_OUTER_BOUND ( 'NONE', #1110, .T. ) ;
#1084 = VERTEX_POINT ( 'NONE', #817 ) ;
#1085 = DIRECTION ( 'NONE',  ( 1.000000000000000000, 0.000000000000000000, 0.000000000000000000 ) ) ;
#1086 = VECTOR ( 'NONE', #450, 1000.000000000000000 ) ;
#1087 = LINE ( 'NONE', #491, #16 ) ;
#1088 = ORIENTED_EDGE ( 'NONE', *, *, #972, .F. ) ;
#1089 = ORIENTED_EDGE ( 'NONE', *, *, #233, .T. ) ;
#1090 = EDGE_CURVE ( 'NONE', #267, #541, #741, .T. ) ;
#1091 = CARTESIAN_POINT ( 'NONE',  ( 76.43669835249423272, 160.3697262230977287, -3.500000000000015543 ) ) ;
#1092 = DIRECTION ( 'NONE',  ( 0.9063077870366510469, -0.4226182617406971653, 0.000000000000000000 ) ) ;
#1093 = ORIENTED_EDGE ( 'NONE', *, *, #644, .T. ) ;
#1094 = ORIENTED_EDGE ( 'NONE', *, *, #1021, .T. ) ;
#1095 = PLANE ( 'NONE',  #1097 ) ;
#1096 = ADVANCED_FACE ( 'NONE', ( #1223, #1209 ), #155, .T. ) ;
#1097 = AXIS2_PLACEMENT_3D ( 'NONE', #616, #318, #126 ) ;
#1098 = EDGE_CURVE ( 'NONE', #835, #387, #749, .T. ) ;
#1099 = CARTESIAN_POINT ( 'NONE',  ( 62.08332126480296154, 136.6874144753178086, 6.999999999999988454 ) ) ;
#1100 = ORIENTED_EDGE ( 'NONE', *, *, #740, .F. ) ;
#1101 = VECTOR ( 'NONE', #103, 1000.000000000000000 ) ;
#1102 = ORIENTED_EDGE ( 'NONE', *, *, #1067, .T. ) ;
#1103 = EDGE_CURVE ( 'NONE', #5, #835, #1019, .T. ) ;
#1104 = CARTESIAN_POINT ( 'NONE',  ( 76.86713851998113967, 164.8421105158674891, -10.00000000000001599 ) ) ;
#1105 = CIRCLE ( 'NONE', #242, 6.000000000000005329 ) ;
#1106 = AXIS2_PLACEMENT_3D ( 'NONE', #170, #579, #1164 ) ;
#1107 = DIRECTION ( 'NONE',  ( 1.000000000000000000, 0.000000000000000000, 0.000000000000000000 ) ) ;
#1108 = ORIENTED_EDGE ( 'NONE', *, *, #917, .T. ) ;
#1109 = EDGE_CURVE ( 'NONE', #172, #948, #34, .T. ) ;
#1110 = EDGE_LOOP ( 'NONE', ( #1170, #1202, #366, #902 ) ) ;
#1111 = CARTESIAN_POINT ( 'NONE',  ( 78.92904476684500992, 159.2075260033107895, 6.999999999999985789 ) ) ;
#1112 = DIRECTION ( 'NONE',  ( -0.9063077870366509359, 0.4226182617406973319, 0.000000000000000000 ) ) ;
#1113 = CARTESIAN_POINT ( 'NONE',  ( 73.71777499138426037, 161.6375810083198132, -7.000000000000016875 ) ) ;
#1114 = ORIENTED_EDGE ( 'NONE', *, *, #307, .F. ) ;
#1115 = PLANE ( 'NONE',  #121 ) ;
#1116 = EDGE_CURVE ( 'NONE', #921, #1001, #1215, .T. ) ;
#1117 = LINE ( 'NONE', #813, #897 ) ;
#1118 = FACE_BOUND ( 'NONE', #942, .T. ) ;
#1119 = VECTOR ( 'NONE', #542, 1000.000000000000000 ) ;
#1120 = VERTEX_POINT ( 'NONE', #728 ) ;
#1121 = EDGE_CURVE ( 'NONE', #438, #906, #538, .T. ) ;
#1122 = VECTOR ( 'NONE', #349, 1000.000000000000000 ) ;
#1123 = CARTESIAN_POINT ( 'NONE',  ( 67.29459104026371108, 134.2573594703088418, 6.999999999999988454 ) ) ;
#1124 = APPROVAL_DATE_TIME ( #337, #869 ) ;
#1125 = AXIS2_PLACEMENT_3D ( 'NONE', #1230, #831, #1040 ) ;
#1126 = CARTESIAN_POINT ( 'NONE',  ( 76.43669835249423272, 160.3697262230977287, 3.499999999999985345 ) ) ;
#1127 = LINE ( 'NONE', #639, #62 ) ;
#1128 = CIRCLE ( 'NONE', #23, 1.000000000000002220 ) ;
#1129 = ORIENTED_EDGE ( 'NONE', *, *, #957, .F. ) ;
#1130 = CARTESIAN_POINT ( 'NONE',  ( 76.43669835249423272, 160.3697262230977287, -7.000000000000016875 ) ) ;
#1131 = FACE_OUTER_BOUND ( 'NONE', #1036, .T. ) ;
#1132 = DIRECTION ( 'NONE',  ( -0.000000000000000000, -0.000000000000000000, -1.000000000000000000 ) ) ;
#1133 = LINE ( 'NONE', #253, #56 ) ;
#1134 = ORIENTED_EDGE ( 'NONE', *, *, #47, .F. ) ;
#1135 = DIRECTION ( 'NONE',  ( 0.000000000000000000, 0.000000000000000000, 1.000000000000000000 ) ) ;
#1136 = CALENDAR_DATE ( 2026, 5, 8 ) ;
#1137 = DIRECTION ( 'NONE',  ( -0.000000000000000000, -0.000000000000000000, 1.000000000000000000 ) ) ;
#1138 = DIRECTION ( 'NONE',  ( -0.9063077870366509359, 0.4226182617406973319, -0.000000000000000000 ) ) ;
#1139 = EDGE_CURVE ( 'NONE', #1120, #1081, #636, .T. ) ;
#1140 = ORIENTED_EDGE ( 'NONE', *, *, #1090, .T. ) ;
#1141 = FACE_OUTER_BOUND ( 'NONE', #302, .T. ) ;
#1142 = AXIS2_PLACEMENT_3D ( 'NONE', #868, #94, #1252 ) ;
#1143 = PLANE ( 'NONE',  #1017 ) ;
#1144 = CARTESIAN_POINT ( 'NONE',  ( 61.65288109731604038, 132.2150301825480767, -10.00000000000001599 ) ) ;
#1145 = EDGE_CURVE ( 'NONE', #331, #927, #51, .T. ) ;
#1146 = LINE ( 'NONE', #266, #1000 ) ;
#1147 = ORIENTED_EDGE ( 'NONE', *, *, #326, .T. ) ;
#1148 = VECTOR ( 'NONE', #833, 1000.000000000000000 ) ;
#1149 = DIRECTION ( 'NONE',  ( -0.000000000000000000, -0.000000000000000000, -1.000000000000000000 ) ) ;
#1150 = CARTESIAN_POINT ( 'NONE',  ( 55.65288109731604038, 132.2150301825480767, -10.00000000000001599 ) ) ;
#1151 = CARTESIAN_POINT ( 'NONE',  ( 64.65288109731604038, 132.2150301825480767, -10.00000000000001599 ) ) ;
#1152 = ORIENTED_EDGE ( 'NONE', *, *, #1057, .F. ) ;
#1153 = CYLINDRICAL_SURFACE ( 'NONE', #258, 2.500000000000002220 ) ;
#1154 = PERSON_AND_ORGANIZATION ( #688, #1220 ) ;
#1155 = ORIENTED_EDGE ( 'NONE', *, *, #381, .F. ) ;
#1156 = EDGE_CURVE ( 'NONE', #177, #391, #828, .T. ) ;
#1157 = DIRECTION ( 'NONE',  ( -0.000000000000000000, -0.000000000000000000, -1.000000000000000000 ) ) ;
#1158 = PRODUCT_DEFINITION ( '�', '', #1201, #1033 ) ;
#1159 = CYLINDRICAL_SURFACE ( 'NONE', #380, 5.999999999999998224 ) ;
#1160 = ORIENTED_EDGE ( 'NONE', *, *, #415, .T. ) ;
#1161 = ORIENTED_EDGE ( 'NONE', *, *, #29, .F. ) ;
#1162 = AXIS2_PLACEMENT_3D ( 'NONE', #837, #230, #922 ) ;
#1163 = CIRCLE ( 'NONE', #1056, 6.000000000000005329 ) ;
#1164 = DIRECTION ( 'NONE',  ( -1.000000000000000000, 0.000000000000000000, 0.000000000000000000 ) ) ;
#1165 = DIRECTION ( 'NONE',  ( -0.000000000000000000, -0.000000000000000000, -1.000000000000000000 ) ) ;
#1166 = ORIENTED_EDGE ( 'NONE', *, *, #1103, .T. ) ;
#1167 = VERTEX_POINT ( 'NONE', #641 ) ;
#1168 = CYLINDRICAL_SURFACE ( 'NONE', #86, 3.000000000000002665 ) ;
#1169 = CARTESIAN_POINT ( 'NONE',  ( 67.65288109731604038, 132.2150301825480767, -10.00000000000001599 ) ) ;
#1170 = ORIENTED_EDGE ( 'NONE', *, *, #617, .T. ) ;
#1171 = VERTEX_POINT ( 'NONE', #447 ) ;
#1172 = DIRECTION ( 'NONE',  ( 0.000000000000000000, 0.000000000000000000, 1.000000000000000000 ) ) ;
#1173 = CARTESIAN_POINT ( 'NONE',  ( 76.86713851998113967, 164.8421105158674891, -3.500000000000015543 ) ) ;
#1174 = ORIENTED_EDGE ( 'NONE', *, *, #637, .F. ) ;
#1175 = DIRECTION ( 'NONE',  ( -0.000000000000000000, 0.000000000000000000, 1.000000000000000000 ) ) ;
#1176 = ORIENTED_EDGE ( 'NONE', *, *, #917, .F. ) ;
#1177 = DIRECTION ( 'NONE',  ( 0.000000000000000000, -1.000000000000000000, 4.568758655454454689E-17 ) ) ;
#1178 = AXIS2_PLACEMENT_3D ( 'NONE', #697, #898, #1085 ) ;
#1179 = LOCAL_TIME ( 16, 5, 38.00000000000000000, #448 ) ;
#1180 = AXIS2_PLACEMENT_3D ( 'NONE', #604, #226, #924 ) ;
#1181 = DIRECTION ( 'NONE',  ( -1.000000000000000000, 0.000000000000000000, 0.000000000000000000 ) ) ;
#1182 = ORIENTED_EDGE ( 'NONE', *, *, #566, .T. ) ;
#1183 = ADVANCED_FACE ( 'NONE', ( #1141 ), #1153, .F. ) ;
#1184 = EDGE_LOOP ( 'NONE', ( #7, #269, #865, #80 ) ) ;
#1185 = CARTESIAN_POINT ( 'NONE',  ( 74.36713851998113967, 164.8421105158674891, -3.500000000000015543 ) ) ;
#1186 = AXIS2_PLACEMENT_3D ( 'NONE', #623, #444, #348 ) ;
#1187 = PLANE ( 'NONE',  #81 ) ;
#1188 = EDGE_LOOP ( 'NONE', ( #620, #686, #324, #1069, #953, #863, #669, #179 ) ) ;
#1189 = FACE_BOUND ( 'NONE', #300, .T. ) ;
#1190 = ORIENTED_EDGE ( 'NONE', *, *, #972, .T. ) ;
#1191 = DIRECTION ( 'NONE',  ( 0.9063077870366509359, -0.4226182617406974429, 0.000000000000000000 ) ) ;
#1192 = EDGE_CURVE ( 'NONE', #248, #147, #422, .T. ) ;
#1193 = DIRECTION ( 'NONE',  ( -0.000000000000000000, -0.000000000000000000, 1.000000000000000000 ) ) ;
#1194 = ORIENTED_EDGE ( 'NONE', *, *, #908, .T. ) ;
#1195 = EDGE_CURVE ( 'NONE', #948, #906, #268, .T. ) ;
#1196 = ORIENTED_EDGE ( 'NONE', *, *, #1067, .F. ) ;
#1197 = DIRECTION ( 'NONE',  ( -1.000000000000000000, 0.000000000000000000, 0.000000000000000000 ) ) ;
#1198 = EDGE_CURVE ( 'NONE', #28, #799, #453, .T. ) ;
#1199 = VECTOR ( 'NONE', #889, 1000.000000000000000 ) ;
#1200 = FACE_OUTER_BOUND ( 'NONE', #19, .T. ) ;
#1201 = PRODUCT_DEFINITION_FORMATION_WITH_SPECIFIED_SOURCE ( '�', '', #193, .NOT_KNOWN. ) ;
#1202 = ORIENTED_EDGE ( 'NONE', *, *, #1156, .T. ) ;
#1203 = VECTOR ( 'NONE', #1165, 1000.000000000000000 ) ;
#1204 = VERTEX_POINT ( 'NONE', #78 ) ;
#1205 = CARTESIAN_POINT ( 'NONE',  ( 65.50468919222180375, 130.4189025701500952, 9.999999999999985789 ) ) ;
#1206 = DIRECTION ( 'NONE',  ( -0.4226182617406973319, -0.9063077870366510469, 0.000000000000000000 ) ) ;
#1207 = LINE ( 'NONE', #257, #1148 ) ;
#1208 = ORIENTED_EDGE ( 'NONE', *, *, #719, .F. ) ;
#1209 = FACE_OUTER_BOUND ( 'NONE', #510, .T. ) ;
#1210 = PERSON_AND_ORGANIZATION ( #688, #1220 ) ;
#1211 = LINE ( 'NONE', #1022, #39 ) ;
#1212 = EDGE_CURVE ( 'NONE', #999, #809, #646, .T. ) ;
#1213 = CARTESIAN_POINT ( 'NONE',  ( 76.43669835249423272, 160.3697262230977287, 6.999999999999985789 ) ) ;
#1214 = EDGE_LOOP ( 'NONE', ( #1152, #563, #905, #77 ) ) ;
#1215 = LINE ( 'NONE', #336, #484 ) ;
#1216 = APPROVAL_DATE_TIME ( #1014, #930 ) ;
#1217 = CARTESIAN_POINT ( 'NONE',  ( 63.01234277787101945, 131.5811027899370060, -1.550074588595108624E-14 ) ) ;
#1218 = DIRECTION ( 'NONE',  ( -0.4226182617406972208, -0.9063077870366511579, 0.000000000000000000 ) ) ;
#1219 = CIRCLE ( 'NONE', #649, 2.500000000000002220 ) ;
#1220 = ORGANIZATION ( '未', '未', '' ) ;
#1221 = EDGE_LOOP ( 'NONE', ( #12, #297, #1093, #583, #1147, #605, #113, #1208, #964, #786 ) ) ;
#1222 = CIRCLE ( 'NONE', #122, 2.500000000000002220 ) ;
#1223 = FACE_BOUND ( 'NONE', #497, .T. ) ;
#1224 = LINE ( 'NONE', #165, #181 ) ;
#1225 = DIRECTION ( 'NONE',  ( 1.000000000000000000, 0.000000000000000000, 0.000000000000000000 ) ) ;
#1226 = CARTESIAN_POINT ( 'NONE',  ( 61.65288109731604038, 132.2150301825480767, 9.999999999999985789 ) ) ;
#1227 = ORIENTED_EDGE ( 'NONE', *, *, #1145, .T. ) ;
#1228 = DIRECTION ( 'NONE',  ( 0.4226182617406974429, 0.9063077870366509359, -1.008213483499440650E-16 ) ) ;
#1229 = EDGE_CURVE ( 'NONE', #699, #873, #864, .T. ) ;
#1230 = CARTESIAN_POINT ( 'NONE',  ( 76.86713851998113967, 164.8421105158674891, 3.499999999999985345 ) ) ;
#1231 = PLANE ( 'NONE',  #856 ) ;
#1232 = DIRECTION ( 'NONE',  ( 0.4226182617406972764, 0.9063077870366509359, -1.008213483499440404E-16 ) ) ;
#1233 = ORIENTED_EDGE ( 'NONE', *, *, #1098, .T. ) ;
#1234 = EDGE_CURVE ( 'NONE', #147, #541, #528, .T. ) ;
#1235 = FACE_OUTER_BOUND ( 'NONE', #290, .T. ) ;
#1236 = EDGE_CURVE ( 'NONE', #295, #317, #544, .T. ) ;
#1237 = CARTESIAN_POINT ( 'NONE',  ( 55.65288109731604038, 132.2150301825480767, 9.999999999999985789 ) ) ;
#1238 = DIRECTION ( 'NONE',  ( 0.4226182617406972764, 0.9063077870366509359, -0.000000000000000000 ) ) ;
#1239 = LINE ( 'NONE', #660, #261 ) ;
#1240 = ORIENTED_EDGE ( 'NONE', *, *, #1234, .T. ) ;
#1241 = AXIS2_PLACEMENT_3D ( 'NONE', #609, #602, #996 ) ;
#1242 = DIRECTION ( 'NONE',  ( 0.000000000000000000, 0.000000000000000000, 1.000000000000000000 ) ) ;
#1243 = AXIS2_PLACEMENT_3D ( 'NONE', #854, #1242, #755 ) ;
#1244 = CIRCLE ( 'NONE', #529, 6.000000000000005329 ) ;
#1245 = CARTESIAN_POINT ( 'NONE',  ( 82.86713851998115388, 164.8421105158674891, -10.00000000000001599 ) ) ;
#1246 = DIRECTION ( 'NONE',  ( -0.000000000000000000, -0.000000000000000000, 1.000000000000000000 ) ) ;
#1247 = CARTESIAN_POINT ( 'NONE',  ( 71.22542857703346897, 162.7997812281067240, 9.999999999999985789 ) ) ;
#1248 = ORIENTED_EDGE ( 'NONE', *, *, #858, .T. ) ;
#1249 = ADVANCED_FACE ( 'NONE', ( #1235 ), #65, .F. ) ;
#1250 = PERSON_AND_ORGANIZATION_ROLE ( 'design_owner' ) ;
#1251 = ORIENTED_EDGE ( 'NONE', *, *, #285, .T. ) ;
#1252 = DIRECTION ( 'NONE',  ( 1.000000000000000000, 0.000000000000000000, 0.000000000000000000 ) ) ;
#1253 = EDGE_CURVE ( 'NONE', #391, #438, #572, .T. ) ;
#1254 = ORIENTED_EDGE ( 'NONE', *, *, #307, .T. ) ;
#1255 = CARTESIAN_POINT ( 'NONE',  ( 74.36713851998113967, 164.8421105158674891, -10.00000000000001599 ) ) ;
#1256 = EDGE_LOOP ( 'NONE', ( #537, #790, #990, #452 ) ) ;
#1257 = DIRECTION ( 'NONE',  ( 0.4226182617406973319, 0.9063077870366510469, 0.000000000000000000 ) ) ;
#1258 = DIRECTION ( 'NONE',  ( 0.9063077870366509359, -0.4226182617406974429, 0.000000000000000000 ) ) ;
#1259 = ORIENTED_EDGE ( 'NONE', *, *, #1047, .F. ) ;
#1260 = AXIS2_PLACEMENT_3D ( 'NONE', #351, #428, #131 ) ;
#1261 = AXIS2_PLACEMENT_3D ( 'NONE', #843, #468, #474 ) ;
#1262 = AXIS2_PLACEMENT_3D ( 'NONE', #392, #1175, #694 ) ;
#1263 = CARTESIAN_POINT ( 'NONE',  ( 76.43669835249423272, 160.3697262230977287, -7.000000000000016875 ) ) ;
#1264 = FACE_OUTER_BOUND ( 'NONE', #427, .T. ) ;
#1265 = ORIENTED_EDGE ( 'NONE', *, *, #794, .F. ) ;
#1266 = FACE_OUTER_BOUND ( 'NONE', #1188, .T. ) ;
#1267 = VERTEX_POINT ( 'NONE', #1038 ) ;
ENDSEC;
END-ISO-10303-21;
